999
dxflib 2.2.0.0
  0
SECTION
  2
HEADER
  9
$ACADVER
  1
AC1015
  9
$HANDSEED
  5
FFFF
  9
$SPLINESEGS
 70
8
  9
$DIMEXE
 40
1.25
  9
$PSVPSCALE
 40
1.0
  9
$DIMLUNIT
 70
2
  9
$GRIDMODE
 70
1
  9
$INSUNITS
 70
4
  9
$DIMADEC
 70
2
  9
$DIMASZ
 40
2.5
  9
$DIMGAP
 40
0.625
  9
$DIMTXT
 40
2.5
  9
$GRIDUNIT
 10
0.0
 20
0.0
  9
$DIMEXO
 40
0.625
  9
$LUPREC
 70
4
  9
$PINSBASE
 10
2.5471698113207708
 20
88.7392795883361885
 30
0.0
  9
$DIMAUNIT
 70
0
  9
$AUPREC
 70
2
  9
$PLIMMIN
 10
0.0
 20
0.0
  9
$LUNITS
 70
2
  9
$PLIMMAX
 10
250.0
 20
250.0
  9
$DIMSTYLE
  2
Standard
  9
$AUNITS
 70
0
  0
ENDSEC
  0
SECTION
  2
TABLES
  0
TABLE
  2
VPORT
  5
8
100
AcDbSymbolTable
 70
1
  0
VPORT
  5
30
100
AcDbSymbolTableRecord
100
AcDbViewportTableRecord
  2
*Active
 70
0
 10
0.0
 20
0.0
 11
1.0
 21
1.0
 12
286.3055555555554861
 22
148.5
 13
0.0
 23
0.0
 14
10.0
 24
10.0
 15
10.0
 25
10.0
 16
0.0
 26
0.0
 36
1.0
 17
0.0
 27
0.0
 37
0.0
 40
297.0
 41
1.92798353909465
 42
50.0
 43
0.0
 44
0.0
 50
0.0
 51
0.0
 71
0
 72
100
 73
1
 74
3
 75
1
 76
1
 77
0
 78
0
281
0
 65
1
110
0.0
120
0.0
130
0.0
111
1.0
121
0.0
131
0.0
112
0.0
122
1.0
132
0.0
 79
0
146
0.0
  0
ENDTAB
  0
TABLE
  2
LTYPE
  5
5
100
AcDbSymbolTable
 70
21
  0
LTYPE
  5
14
100
AcDbSymbolTableRecord
100
AcDbLinetypeTableRecord
  2
ByBlock
 70
0
  3

 72
65
 73
0
 40
0.0
  0
LTYPE
  5
15
100
AcDbSymbolTableRecord
100
AcDbLinetypeTableRecord
  2
ByLayer
 70
0
  3

 72
65
 73
0
 40
0.0
  0
LTYPE
  5
16
100
AcDbSymbolTableRecord
100
AcDbLinetypeTableRecord
  2
CONTINUOUS
 70
0
  3
Solid line
 72
65
 73
0
 40
0.0
  0
LTYPE
  5
31
100
AcDbSymbolTableRecord
100
AcDbLinetypeTableRecord
  2
DOT
 70
0
  3
Dot . . . . . . . . . . . . . . . . . . . . . .
 72
65
 73
2
 40
6.3499999999999996
 49
0.0
 74
0
 49
-6.3499999999999996
 74
0
  0
LTYPE
  5
32
100
AcDbSymbolTableRecord
100
AcDbLinetypeTableRecord
  2
DOT2
 70
0
  3
Dot (.5x) .....................................
 72
65
 73
2
 40
3.1749999999999998
 49
0.0
 74
0
 49
-3.1749999999999998
 74
0
  0
LTYPE
  5
33
100
AcDbSymbolTableRecord
100
AcDbLinetypeTableRecord
  2
DOTX2
 70
0
  3
Dot (2x) .  .  .  .  .  .  .  .  .  .  .  .  .
 72
65
 73
2
 40
12.6999999999999993
 49
0.0
 74
0
 49
-12.6999999999999993
 74
0
  0
LTYPE
  5
34
100
AcDbSymbolTableRecord
100
AcDbLinetypeTableRecord
  2
DASHED
 70
0
  3
Dashed __ __ __ __ __ __ __ __ __ __ __ __ __ _
 72
65
 73
2
 40
19.0500000000000007
 49
12.6999999999999993
 74
0
 49
-6.3499999999999996
 74
0
  0
LTYPE
  5
35
100
AcDbSymbolTableRecord
100
AcDbLinetypeTableRecord
  2
DASHED2
 70
0
  3
Dashed (.5x) _ _ _ _ _ _ _ _ _ _ _ _ _ _ _ _ _
 72
65
 73
2
 40
9.5250000000000004
 49
6.3499999999999996
 74
0
 49
-3.1749999999999998
 74
0
  0
LTYPE
  5
36
100
AcDbSymbolTableRecord
100
AcDbLinetypeTableRecord
  2
DASHEDX2
 70
0
  3
Dashed (2x) ____  ____  ____  ____  ____  ___
 72
65
 73
2
 40
38.1000000000000014
 49
25.3999999999999986
 74
0
 49
-12.6999999999999993
 74
0
  0
LTYPE
  5
37
100
AcDbSymbolTableRecord
100
AcDbLinetypeTableRecord
  2
DASHDOT
 70
0
  3
Dash dot __ . __ . __ . __ . __ . __ . __ . __
 72
65
 73
4
 40
25.3999999999999986
 49
12.6999999999999993
 74
0
 49
-6.3499999999999996
 74
0
 49
0.0
 74
0
 49
-6.3499999999999996
 74
0
  0
LTYPE
  5
38
100
AcDbSymbolTableRecord
100
AcDbLinetypeTableRecord
  2
DASHDOT2
 70
0
  3
Dash dot (.5x) _._._._._._._._._._._._._._._.
 72
65
 73
4
 40
12.6999999999999993
 49
6.3499999999999996
 74
0
 49
-3.1749999999999998
 74
0
 49
0.0
 74
0
 49
-3.1749999999999998
 74
0
  0
LTYPE
  5
39
100
AcDbSymbolTableRecord
100
AcDbLinetypeTableRecord
  2
DASHDOTX2
 70
0
  3
Dash dot (2x) ____  .  ____  .  ____  .  ___
 72
65
 73
4
 40
50.7999999999999972
 49
25.3999999999999986
 74
0
 49
-12.6999999999999993
 74
0
 49
0.0
 74
0
 49
-12.6999999999999993
 74
0
  0
LTYPE
  5
3A
100
AcDbSymbolTableRecord
100
AcDbLinetypeTableRecord
  2
DIVIDE
 70
0
  3
Divide ____ . . ____ . . ____ . . ____ . . ____
 72
65
 73
6
 40
31.75
 49
12.6999999999999993
 74
0
 49
-6.3499999999999996
 74
0
 49
0.0
 74
0
 49
-6.3499999999999996
 74
0
 49
0.0
 74
0
 49
-6.3499999999999996
 74
0
  0
LTYPE
  5
3B
100
AcDbSymbolTableRecord
100
AcDbLinetypeTableRecord
  2
DIVIDE2
 70
0
  3
Divide (.5x) __..__..__..__..__..__..__..__.._
 72
65
 73
6
 40
15.875
 49
6.3499999999999996
 74
0
 49
-3.1749999999999998
 74
0
 49
0.0
 74
0
 49
-3.1749999999999998
 74
0
 49
0.0
 74
0
 49
-3.1749999999999998
 74
0
  0
LTYPE
  5
3C
100
AcDbSymbolTableRecord
100
AcDbLinetypeTableRecord
  2
DIVIDEX2
 70
0
  3
Divide (2x) ________  .  .  ________  .  .  _
 72
65
 73
6
 40
63.5
 49
25.3999999999999986
 74
0
 49
-12.6999999999999993
 74
0
 49
0.0
 74
0
 49
-12.6999999999999993
 74
0
 49
0.0
 74
0
 49
-12.6999999999999993
 74
0
  0
LTYPE
  5
3D
100
AcDbSymbolTableRecord
100
AcDbLinetypeTableRecord
  2
CENTER
 70
0
  3
Center ____ _ ____ _ ____ _ ____ _ ____ _ ____
 72
65
 73
4
 40
50.7999999999999972
 49
31.75
 74
0
 49
-6.3499999999999996
 74
0
 49
6.3499999999999996
 74
0
 49
-6.3499999999999996
 74
0
  0
LTYPE
  5
3E
100
AcDbSymbolTableRecord
100
AcDbLinetypeTableRecord
  2
CENTER2
 70
0
  3
Center (.5x) ___ _ ___ _ ___ _ ___ _ ___ _ ___
 72
65
 73
4
 40
28.5749999999999993
 49
19.0500000000000007
 74
0
 49
-3.1749999999999998
 74
0
 49
3.1749999999999998
 74
0
 49
-3.1749999999999998
 74
0
  0
LTYPE
  5
3F
100
AcDbSymbolTableRecord
100
AcDbLinetypeTableRecord
  2
CENTERX2
 70
0
  3
Center (2x) ________  __  ________  __  _____
 72
65
 73
4
 40
101.5999999999999943
 49
63.5
 74
0
 49
-12.6999999999999993
 74
0
 49
12.6999999999999993
 74
0
 49
-12.6999999999999993
 74
0
  0
LTYPE
  5
40
100
AcDbSymbolTableRecord
100
AcDbLinetypeTableRecord
  2
BORDER
 70
0
  3
Border __ __ . __ __ . __ __ . __ __ . __ __ .
 72
65
 73
6
 40
44.4500000000000028
 49
12.6999999999999993
 74
0
 49
-6.3499999999999996
 74
0
 49
12.6999999999999993
 74
0
 49
-6.3499999999999996
 74
0
 49
0.0
 74
0
 49
-6.3499999999999996
 74
0
  0
LTYPE
  5
41
100
AcDbSymbolTableRecord
100
AcDbLinetypeTableRecord
  2
BORDER2
 70
0
  3
Border (.5x) __.__.__.__.__.__.__.__.__.__.__.
 72
65
 73
6
 40
22.2250000000000014
 49
6.3499999999999996
 74
0
 49
-3.1749999999999998
 74
0
 49
6.3499999999999996
 74
0
 49
-3.1749999999999998
 74
0
 49
0.0
 74
0
 49
-3.1749999999999998
 74
0
  0
LTYPE
  5
42
100
AcDbSymbolTableRecord
100
AcDbLinetypeTableRecord
  2
BORDERX2
 70
0
  3
Border (2x) ____  ____  .  ____  ____  .  ___
 72
65
 73
6
 40
88.9000000000000057
 49
25.3999999999999986
 74
0
 49
-12.6999999999999993
 74
0
 49
25.3999999999999986
 74
0
 49
-12.6999999999999993
 74
0
 49
0.0
 74
0
 49
-12.6999999999999993
 74
0
  0
ENDTAB
  0
TABLE
  2
LAYER
  5
2
100
AcDbSymbolTable
 70
13
  0
LAYER
  5
10
100
AcDbSymbolTableRecord
100
AcDbLayerTableRecord
  2
0
 70
0
 62
9
  6
CONTINUOUS
370
0
390
F
  0
LAYER
  5
43
100
AcDbSymbolTableRecord
100
AcDbLayerTableRecord
  2
LayerBaseFrame
 70
0
 62
1
  6
CONTINUOUS
370
0
390
F
  0
LAYER
  5
44
100
AcDbSymbolTableRecord
100
AcDbLayerTableRecord
  2
RaspberryPi_MountingHoles
 70
0
 62
1
  6
CONTINUOUS
370
0
390
F
  0
LAYER
  5
45
100
AcDbSymbolTableRecord
100
AcDbLayerTableRecord
  2
RaspberryPi_BoardHeaders
 70
1
 62
4
  6
CONTINUOUS
370
0
390
F
  0
LAYER
  5
46
100
AcDbSymbolTableRecord
100
AcDbLayerTableRecord
  2
RaspberryPi_Connectors
 70
1
 62
3
  6
CONTINUOUS
370
0
390
F
  0
LAYER
  5
47
100
AcDbSymbolTableRecord
100
AcDbLayerTableRecord
  2
RaspberryPi_Board
 70
0
 62
2
  6
CONTINUOUS
370
0
390
F
  0
LAYER
  5
48
100
AcDbSymbolTableRecord
100
AcDbLayerTableRecord
  2
ComponentAccess
 70
0
 62
1
  6
CONTINUOUS
370
0
390
F
  0
LAYER
  5
49
100
AcDbSymbolTableRecord
100
AcDbLayerTableRecord
  2
ESC_Breakout_Board
 70
0
 62
2
  6
CONTINUOUS
370
0
390
F
  0
LAYER
  5
4A
100
AcDbSymbolTableRecord
100
AcDbLayerTableRecord
  2
ESC_Breakout_MountingHoles
 70
0
 62
1
  6
CONTINUOUS
370
0
390
F
  0
LAYER
  5
4B
100
AcDbSymbolTableRecord
100
AcDbLayerTableRecord
  2
BatteryMonitor_Board
 70
0
 62
2
  6
CONTINUOUS
370
0
390
F
  0
LAYER
  5
4C
100
AcDbSymbolTableRecord
100
AcDbLayerTableRecord
  2
BatteryMonitor_MountingHoles
 70
0
 62
1
  6
CONTINUOUS
370
0
390
F
  0
LAYER
  5
4D
100
AcDbSymbolTableRecord
100
AcDbLayerTableRecord
  2
PowerSupply_Board
 70
0
 62
2
  6
CONTINUOUS
370
0
390
F
  0
LAYER
  5
4E
100
AcDbSymbolTableRecord
100
AcDbLayerTableRecord
  2
PowerSupply_MountingHoles
 70
0
 62
1
  6
CONTINUOUS
370
0
390
F
  0
ENDTAB
  0
TABLE
  2
STYLE
  5
3
100
AcDbSymbolTable
 70
1
  0
STYLE
  5
11
100
AcDbSymbolTableRecord
100
AcDbTextStyleTableRecord
  2
Standard
 70
0
 40
0.0
 41
0.75
 50
0.0
 71
0
 42
2.5
  3
txt
  4

  0
ENDTAB
  0
TABLE
  2
VIEW
  5
6
100
AcDbSymbolTable
 70
0
  0
ENDTAB
  0
TABLE
  2
UCS
  5
7
100
AcDbSymbolTable
 70
0
  0
ENDTAB
  0
TABLE
  2
APPID
  5
9
100
AcDbSymbolTable
 70
1
  0
APPID
  5
12
100
AcDbSymbolTableRecord
100
AcDbRegAppTableRecord
  2
ACAD
 70
0
  0
ENDTAB
  0
TABLE
  2
DIMSTYLE
  5
A
100
AcDbSymbolTable
 70
1
100
AcDbDimStyleTable
 71
0
  0
DIMSTYLE
105
27
100
AcDbSymbolTableRecord
100
AcDbDimStyleTableRecord
  2
Standard
 41
2.5
 42
0.625
 43
3.75
 44
1.25
 70
0
 73
0
 74
0
 77
1
 78
8
140
2.5
141
2.5
143
0.03937007874016
147
0.625
171
3
172
1
271
2
272
2
274
3
278
44
283
0
284
8
340
11
  0
ENDTAB
  0
TABLE
  2
BLOCK_RECORD
  5
1
100
AcDbSymbolTable
 70
1
  0
BLOCK_RECORD
  5
1F
100
AcDbSymbolTableRecord
100
AcDbBlockTableRecord
  2
*Model_Space
340
22
  0
BLOCK_RECORD
  5
1B
100
AcDbSymbolTableRecord
100
AcDbBlockTableRecord
  2
*Paper_Space
340
1E
  0
BLOCK_RECORD
  5
23
100
AcDbSymbolTableRecord
100
AcDbBlockTableRecord
  2
*Paper_Space0
340
26
  0
BLOCK_RECORD
  5
4F
100
AcDbSymbolTableRecord
100
AcDbBlockTableRecord
  2
ELayerBase
340
0
  0
BLOCK_RECORD
  5
50
100
AcDbSymbolTableRecord
100
AcDbBlockTableRecord
  2
RaspberryPi-0
340
0
  0
BLOCK_RECORD
  5
51
100
AcDbSymbolTableRecord
100
AcDbBlockTableRecord
  2
ESC_BreakoutBoard
340
0
  0
BLOCK_RECORD
  5
52
100
AcDbSymbolTableRecord
100
AcDbBlockTableRecord
  2
iMall-nRF24L01-module-0
340
0
  0
ENDTAB
  0
ENDSEC
  0
SECTION
  2
BLOCKS
  0
BLOCK
  5
20
100
AcDbEntity
  8
0
100
AcDbBlockBegin
  2
*Model_Space
 70
0
 10
0.0
 20
0.0
 30
0.0
  3
*Model_Space
  1

  0
ENDBLK
  5
21
100
AcDbEntity
  8
0
100
AcDbBlockEnd
  0
BLOCK
  5
1C
100
AcDbEntity
 67
1
  8
0
100
AcDbBlockBegin
  2
*Paper_Space
 70
0
 10
0.0
 20
0.0
 30
0.0
  3
*Paper_Space
  1

  0
ENDBLK
  5
1D
100
AcDbEntity
 67
1
  8
0
100
AcDbBlockEnd
  0
BLOCK
  5
24
100
AcDbEntity
  8
0
100
AcDbBlockBegin
  2
*Paper_Space0
 70
0
 10
0.0
 20
0.0
 30
0.0
  3
*Paper_Space0
  1

  0
ENDBLK
  5
25
100
AcDbEntity
  8
0
100
AcDbBlockEnd
  0
BLOCK
  5
53
100
AcDbEntity
  8
0
100
AcDbBlockBegin
  2
ELayerBase
 70
0
 10
0.0
 20
0.0
 30
0.0
  3
ELayerBase
  1

  0
ARC
  5
54
100
AcDbEntity
  8
LayerBaseFrame
 62
256
370
-1
  6
ByLayer
100
AcDbCircle
 10
20.0
 20
140.0
 30
0.0
 40
20.0
100
AcDbArc
 50
90.0
 51
180.0
  0
LINE
  5
55
100
AcDbEntity
100
AcDbLine
  8
LayerBaseFrame
 62
256
370
-1
  6
ByLayer
 10
20.0
 20
160.0
 30
0.0
 11
140.0
 21
160.0
 31
0.0
  0
ARC
  5
56
100
AcDbEntity
  8
LayerBaseFrame
 62
256
370
-1
  6
ByLayer
100
AcDbCircle
 10
140.0
 20
140.0
 30
0.0
 40
20.0
100
AcDbArc
 50
0.0
 51
90.0
  0
LINE
  5
57
100
AcDbEntity
100
AcDbLine
  8
LayerBaseFrame
 62
256
370
-1
  6
ByLayer
 10
160.0
 20
140.0
 30
0.0
 11
160.0
 21
20.0
 31
0.0
  0
ARC
  5
58
100
AcDbEntity
  8
LayerBaseFrame
 62
256
370
-1
  6
ByLayer
100
AcDbCircle
 10
140.0
 20
20.0
 30
0.0
 40
20.0
100
AcDbArc
 50
270.0
 51
0.0
  0
LINE
  5
59
100
AcDbEntity
100
AcDbLine
  8
LayerBaseFrame
 62
256
370
-1
  6
ByLayer
 10
140.0
 20
0.0
 30
0.0
 11
20.0
 21
0.0
 31
0.0
  0
LINE
  5
5A
100
AcDbEntity
100
AcDbLine
  8
LayerBaseFrame
 62
256
370
-1
  6
ByLayer
 10
0.0
 20
20.0
 30
0.0
 11
0.0
 21
140.0
 31
0.0
  0
ARC
  5
5B
100
AcDbEntity
  8
LayerBaseFrame
 62
256
370
-1
  6
ByLayer
100
AcDbCircle
 10
20.0
 20
20.0
 30
0.0
 40
20.0
100
AcDbArc
 50
180.0
 51
270.0
  0
CIRCLE
  5
5C
100
AcDbEntity
100
AcDbCircle
  8
LayerBaseFrame
 62
256
370
-1
  6
ByLayer
 10
15.0
 20
145.0
 30
0.0
 40
3.0
  0
CIRCLE
  5
5D
100
AcDbEntity
100
AcDbCircle
  8
LayerBaseFrame
 62
256
370
-1
  6
ByLayer
 10
145.0
 20
145.0
 30
0.0
 40
3.0
  0
CIRCLE
  5
5E
100
AcDbEntity
100
AcDbCircle
  8
LayerBaseFrame
 62
256
370
-1
  6
ByLayer
 10
145.0
 20
15.0
 30
0.0
 40
3.0
  0
CIRCLE
  5
5F
100
AcDbEntity
100
AcDbCircle
  8
LayerBaseFrame
 62
256
370
-1
  6
ByLayer
 10
15.0
 20
15.0
 30
0.0
 40
3.0
  0
ENDBLK
  5
60
100
AcDbEntity
  8
0
100
AcDbBlockEnd
  0
BLOCK
  5
61
100
AcDbEntity
  8
0
100
AcDbBlockBegin
  2
RaspberryPi-0
 70
0
 10
0.0
 20
0.0
 30
0.0
  3
RaspberryPi-0
  1

  0
CIRCLE
  5
62
100
AcDbEntity
100
AcDbCircle
  8
RaspberryPi_MountingHoles
 62
256
370
-1
  6
ByLayer
 10
25.5
 20
18.0
 30
0.0
 40
1.45
  0
CIRCLE
  5
63
100
AcDbEntity
100
AcDbCircle
  8
RaspberryPi_MountingHoles
 62
256
370
-1
  6
ByLayer
 10
80.0
 20
43.5
 30
0.0
 40
1.45
  0
LINE
  5
64
100
AcDbEntity
100
AcDbLine
  8
RaspberryPi_BoardHeaders
 62
256
370
-1
  6
ByLayer
 10
59.7455679999999916
 20
21.9499989999999912
 30
0.0
 11
59.7455679999999916
 21
0.5329089999999894
 31
0.0
  0
LINE
  5
65
100
AcDbEntity
100
AcDbLine
  8
RaspberryPi_BoardHeaders
 62
256
370
-1
  6
ByLayer
 10
56.746955000000014
 20
0.5329090000000178
 30
0.0
 11
59.7455679999999916
 21
0.5329089999999894
 31
0.0
  0
LINE
  5
66
100
AcDbEntity
100
AcDbLine
  8
RaspberryPi_BoardHeaders
 62
256
370
-1
  6
ByLayer
 10
56.746955000000014
 20
21.9499989999999627
 30
0.0
 11
56.746955000000014
 21
0.5329090000000178
 31
0.0
  0
LINE
  5
67
100
AcDbEntity
100
AcDbLine
  8
RaspberryPi_BoardHeaders
 62
256
370
-1
  6
ByLayer
 10
56.746955000000014
 20
21.9499989999999627
 30
0.0
 11
59.7455679999999916
 21
21.9499989999999912
 31
0.0
  0
LINE
  5
68
100
AcDbEntity
100
AcDbLine
  8
RaspberryPi_BoardHeaders
 62
256
370
-1
  6
ByLayer
 10
13.0906800000000203
 20
39.6912639999999897
 30
0.0
 11
13.0906800000000203
 21
18.1999989999999627
 31
0.0
  0
LINE
  5
69
100
AcDbEntity
100
AcDbLine
  8
RaspberryPi_BoardHeaders
 62
256
370
-1
  6
ByLayer
 10
10.1802620000000275
 20
18.1999989999999912
 30
0.0
 11
13.0906800000000203
 21
18.1999989999999627
 31
0.0
  0
LINE
  5
6A
100
AcDbEntity
100
AcDbLine
  8
RaspberryPi_BoardHeaders
 62
256
370
-1
  6
ByLayer
 10
10.1802620000000275
 20
39.6912639999999897
 30
0.0
 11
10.1802620000000275
 21
18.1999989999999912
 31
0.0
  0
LINE
  5
6B
100
AcDbEntity
100
AcDbLine
  8
RaspberryPi_BoardHeaders
 62
256
370
-1
  6
ByLayer
 10
10.1802620000000275
 20
39.6912639999999897
 30
0.0
 11
13.0906800000000203
 21
39.6912639999999897
 31
0.0
  0
LINE
  5
6C
100
AcDbEntity
100
AcDbLine
  8
RaspberryPi_BoardHeaders
 62
256
370
-1
  6
ByLayer
 10
0.629998999999998
 20
50.0799989999999866
 30
0.0
 11
33.6499989999999798
 21
50.0799989999999866
 31
0.0
  0
LINE
  5
6D
100
AcDbEntity
100
AcDbLine
  8
RaspberryPi_BoardHeaders
 62
256
370
-1
  6
ByLayer
 10
0.629998999999998
 20
55.1599989999999991
 30
0.0
 11
33.6499989999999798
 21
55.1599989999999991
 31
0.0
  0
LINE
  5
6E
100
AcDbEntity
100
AcDbLine
  8
RaspberryPi_BoardHeaders
 62
256
370
-1
  6
ByLayer
 10
33.6499989999999798
 20
55.1599989999999991
 30
0.0
 11
33.6499989999999798
 21
50.0799989999999866
 31
0.0
  0
LINE
  5
6F
100
AcDbEntity
100
AcDbLine
  8
RaspberryPi_BoardHeaders
 62
256
370
-1
  6
ByLayer
 10
0.629998999999998
 20
55.1599989999999991
 30
0.0
 11
0.629998999999998
 21
50.0799989999999866
 31
0.0
  0
LWPOLYLINE
  5
70
  8
RaspberryPi_BoardHeaders
 62
256
370
-1
  6
ByLayer
100
AcDbEntity
100
AcDbPolyline
 90
4
 70
1
 10
1.1379990000000362
 20
52.1119989999999973
 10
2.6619990000000371
 20
52.1119989999999973
 10
2.6619990000000371
 20
50.5879989999999964
 10
1.1379989999999793
 20
50.5879989999999964
  0
LWPOLYLINE
  5
71
  8
RaspberryPi_BoardHeaders
 62
256
370
-1
  6
ByLayer
100
AcDbEntity
100
AcDbPolyline
 90
4
 70
1
 10
1.1379989999999793
 20
54.6519989999999893
 10
2.6619989999999802
 20
54.6519989999999893
 10
2.6619990000000371
 20
53.1279989999999884
 10
1.1379990000000362
 20
53.1279989999999884
  0
LWPOLYLINE
  5
72
  8
RaspberryPi_BoardHeaders
 62
256
370
-1
  6
ByLayer
100
AcDbEntity
100
AcDbPolyline
 90
4
 70
1
 10
3.6779989999999998
 20
52.1119989999999973
 10
5.2019990000000007
 20
52.1119989999999973
 10
5.2019990000000007
 20
50.5879989999999964
 10
3.6779989999999998
 20
50.5879989999999964
  0
LWPOLYLINE
  5
73
  8
RaspberryPi_BoardHeaders
 62
256
370
-1
  6
ByLayer
100
AcDbEntity
100
AcDbPolyline
 90
4
 70
1
 10
3.6779989999999998
 20
54.6519989999999893
 10
5.2019990000000007
 20
54.6519989999999893
 10
5.2019990000000007
 20
53.1279989999999884
 10
3.6779989999999998
 20
53.1279989999999884
  0
LWPOLYLINE
  5
74
  8
RaspberryPi_BoardHeaders
 62
256
370
-1
  6
ByLayer
100
AcDbEntity
100
AcDbPolyline
 90
4
 70
1
 10
6.2179989999999634
 20
52.1119989999999973
 10
7.7419990000000212
 20
52.1119989999999973
 10
7.7419990000000212
 20
50.5879989999999964
 10
6.2179990000000203
 20
50.5879989999999964
  0
LWPOLYLINE
  5
75
  8
RaspberryPi_BoardHeaders
 62
256
370
-1
  6
ByLayer
100
AcDbEntity
100
AcDbPolyline
 90
4
 70
1
 10
6.2179990000000203
 20
54.6519989999999893
 10
7.7419990000000212
 20
54.6519989999999893
 10
7.7419990000000212
 20
53.1279989999999884
 10
6.2179990000000203
 20
53.1279989999999884
  0
LWPOLYLINE
  5
76
  8
RaspberryPi_BoardHeaders
 62
256
370
-1
  6
ByLayer
100
AcDbEntity
100
AcDbPolyline
 90
4
 70
1
 10
8.7579990000000407
 20
52.1119989999999973
 10
10.2819989999999848
 20
52.1119989999999973
 10
10.2819990000000416
 20
50.5879989999999964
 10
8.7579990000000407
 20
50.5879989999999964
  0
LWPOLYLINE
  5
77
  8
RaspberryPi_BoardHeaders
 62
256
370
-1
  6
ByLayer
100
AcDbEntity
100
AcDbPolyline
 90
4
 70
1
 10
8.7579990000000407
 20
54.6519989999999893
 10
10.2819990000000416
 20
54.6519989999999893
 10
10.2819989999999848
 20
53.1279989999999884
 10
8.7579989999999839
 20
53.1279989999999884
  0
LWPOLYLINE
  5
78
  8
RaspberryPi_BoardHeaders
 62
256
370
-1
  6
ByLayer
100
AcDbEntity
100
AcDbPolyline
 90
4
 70
1
 10
11.2979990000000043
 20
52.1119989999999973
 10
12.8219990000000053
 20
52.1119989999999973
 10
12.8219990000000053
 20
50.5879989999999964
 10
11.2979990000000043
 20
50.5879989999999964
  0
LWPOLYLINE
  5
79
  8
RaspberryPi_BoardHeaders
 62
256
370
-1
  6
ByLayer
100
AcDbEntity
100
AcDbPolyline
 90
4
 70
1
 10
11.2979990000000043
 20
54.6519989999999893
 10
12.8219990000000053
 20
54.6519989999999893
 10
12.8219990000000053
 20
53.1279989999999884
 10
11.2979990000000043
 20
53.1279989999999884
  0
LWPOLYLINE
  5
7A
  8
RaspberryPi_BoardHeaders
 62
256
370
-1
  6
ByLayer
100
AcDbEntity
100
AcDbPolyline
 90
4
 70
1
 10
13.8379990000000248
 20
52.1119989999999973
 10
15.3619990000000257
 20
52.1119989999999973
 10
15.3619990000000257
 20
50.5879989999999964
 10
13.8379990000000248
 20
50.5879989999999964
  0
LWPOLYLINE
  5
7B
  8
RaspberryPi_BoardHeaders
 62
256
370
-1
  6
ByLayer
100
AcDbEntity
100
AcDbPolyline
 90
4
 70
1
 10
13.837998999999968
 20
54.6519990000000178
 10
15.3619990000000257
 20
54.6519989999999893
 10
15.3619990000000257
 20
53.1279989999999884
 10
13.837998999999968
 20
53.1279989999999884
  0
LWPOLYLINE
  5
7C
  8
RaspberryPi_BoardHeaders
 62
256
370
-1
  6
ByLayer
100
AcDbEntity
100
AcDbPolyline
 90
4
 70
1
 10
16.3779989999999884
 20
52.1119989999999973
 10
17.9019989999999893
 20
52.1119989999999973
 10
17.9019989999999893
 20
50.5879989999999964
 10
16.3779989999999884
 20
50.5879989999999964
  0
LWPOLYLINE
  5
7D
  8
RaspberryPi_BoardHeaders
 62
256
370
-1
  6
ByLayer
100
AcDbEntity
100
AcDbPolyline
 90
4
 70
1
 10
16.3779989999999884
 20
54.6519989999999893
 10
17.9019989999999893
 20
54.6519989999999893
 10
17.9019989999999893
 20
53.1279990000000168
 10
16.3779989999999884
 20
53.1279990000000168
  0
LWPOLYLINE
  5
7E
  8
RaspberryPi_BoardHeaders
 62
256
370
-1
  6
ByLayer
100
AcDbEntity
100
AcDbPolyline
 90
4
 70
1
 10
18.9179990000000089
 20
52.1119989999999973
 10
20.4419990000000098
 20
52.1119989999999973
 10
20.4419990000000098
 20
50.5879989999999964
 10
18.9179990000000089
 20
50.587998999999968
  0
LWPOLYLINE
  5
7F
  8
RaspberryPi_BoardHeaders
 62
256
370
-1
  6
ByLayer
100
AcDbEntity
100
AcDbPolyline
 90
4
 70
1
 10
18.9179990000000089
 20
54.6519989999999893
 10
20.4419990000000098
 20
54.6519989999999893
 10
20.4419990000000098
 20
53.1279990000000168
 10
18.9179990000000089
 20
53.1279990000000168
  0
LWPOLYLINE
  5
80
  8
RaspberryPi_BoardHeaders
 62
256
370
-1
  6
ByLayer
100
AcDbEntity
100
AcDbPolyline
 90
4
 70
1
 10
21.4579989999999725
 20
52.1119989999999973
 10
22.9819989999999734
 20
52.1119989999999973
 10
22.9819989999999734
 20
50.5879989999999964
 10
21.4579989999999725
 20
50.5879989999999964
  0
LWPOLYLINE
  5
81
  8
RaspberryPi_BoardHeaders
 62
256
370
-1
  6
ByLayer
100
AcDbEntity
100
AcDbPolyline
 90
4
 70
1
 10
21.4579989999999725
 20
54.6519990000000178
 10
22.9819989999999734
 20
54.6519989999999893
 10
22.9819989999999734
 20
53.1279989999999884
 10
21.4579989999999725
 20
53.1279990000000168
  0
LWPOLYLINE
  5
82
  8
RaspberryPi_BoardHeaders
 62
256
370
-1
  6
ByLayer
100
AcDbEntity
100
AcDbPolyline
 90
4
 70
1
 10
23.997998999999993
 20
52.1119989999999973
 10
25.5219989999999939
 20
52.1119989999999973
 10
25.5219989999999939
 20
50.5879989999999964
 10
23.997998999999993
 20
50.5879989999999964
  0
LWPOLYLINE
  5
83
  8
RaspberryPi_BoardHeaders
 62
256
370
-1
  6
ByLayer
100
AcDbEntity
100
AcDbPolyline
 90
4
 70
1
 10
23.997998999999993
 20
54.6519989999999893
 10
25.5219989999999939
 20
54.6519989999999893
 10
25.5219989999999939
 20
53.1279989999999884
 10
23.997998999999993
 20
53.1279989999999884
  0
LWPOLYLINE
  5
84
  8
RaspberryPi_BoardHeaders
 62
256
370
-1
  6
ByLayer
100
AcDbEntity
100
AcDbPolyline
 90
4
 70
1
 10
26.5379990000000134
 20
52.1119989999999973
 10
28.0619990000000143
 20
52.1119989999999973
 10
28.0619990000000143
 20
50.5879990000000248
 10
26.5379990000000134
 20
50.5879989999999964
  0
LWPOLYLINE
  5
85
  8
RaspberryPi_BoardHeaders
 62
256
370
-1
  6
ByLayer
100
AcDbEntity
100
AcDbPolyline
 90
4
 70
1
 10
26.5379990000000134
 20
54.6519989999999893
 10
28.0619990000000143
 20
54.6519989999999893
 10
28.0619990000000143
 20
53.1279989999999884
 10
26.5379990000000134
 20
53.1279989999999884
  0
LWPOLYLINE
  5
86
  8
RaspberryPi_BoardHeaders
 62
256
370
-1
  6
ByLayer
100
AcDbEntity
100
AcDbPolyline
 90
4
 70
1
 10
29.0779989999999771
 20
52.1119989999999973
 10
30.601998999999978
 20
52.1119989999999973
 10
30.601998999999978
 20
50.5879989999999964
 10
29.0779989999999771
 20
50.5879990000000248
  0
LWPOLYLINE
  5
87
  8
RaspberryPi_BoardHeaders
 62
256
370
-1
  6
ByLayer
100
AcDbEntity
100
AcDbPolyline
 90
4
 70
1
 10
29.0779989999999771
 20
54.6519989999999893
 10
30.601998999999978
 20
54.6519989999999893
 10
30.6019990000000348
 20
53.1279989999999884
 10
29.0779990000000339
 20
53.1279989999999884
  0
LWPOLYLINE
  5
88
  8
RaspberryPi_BoardHeaders
 62
256
370
-1
  6
ByLayer
100
AcDbEntity
100
AcDbPolyline
 90
4
 70
1
 10
31.6179989999999975
 20
52.1119989999999973
 10
33.1419989999999984
 20
52.1119990000000257
 10
33.1419989999999984
 20
50.5879989999999964
 10
31.6179989999999975
 20
50.5879989999999964
  0
LWPOLYLINE
  5
89
  8
RaspberryPi_BoardHeaders
 62
256
370
-1
  6
ByLayer
100
AcDbEntity
100
AcDbPolyline
 90
4
 70
1
 10
31.6179989999999975
 20
54.6519989999999893
 10
33.1419989999999984
 20
54.6519990000000178
 10
33.1419989999999984
 20
53.1279989999999884
 10
31.6179989999999975
 20
53.1279989999999884
  0
MTEXT
  5
8A
100
AcDbEntity
100
AcDbMText
  8
RaspberryPi_BoardHeaders
 62
256
370
-1
  6
CONTINUOUS
 10
34.6750000000000114
 20
54.5749979999999937
 30
0.0
 40
0.7500010013580322
 41
100.0
 71
9
 72
2
  1
26
  7
standard
 50
450.0
 73
1
 44
1.0
  0
MTEXT
  5
8B
100
AcDbEntity
100
AcDbMText
  8
RaspberryPi_BoardHeaders
 62
256
370
-1
  6
CONTINUOUS
 10
34.6750000000000114
 20
51.9749989999999968
 30
0.0
 40
0.7500010013580322
 41
100.0
 71
9
 72
2
  1
25
  7
standard
 50
450.0
 73
1
 44
1.0
  0
MTEXT
  5
8C
100
AcDbEntity
100
AcDbMText
  8
RaspberryPi_BoardHeaders
 62
256
370
-1
  6
CONTINUOUS
 10
2.3000000000000114
 20
55.9499999999999886
 30
0.0
 40
0.7500010013580322
 41
100.0
 71
9
 72
2
  1
2
  7
standard
 50
450.0
 73
1
 44
1.0
  0
MTEXT
  5
8D
100
AcDbEntity
100
AcDbMText
  8
RaspberryPi_BoardHeaders
 62
256
370
-1
  6
CONTINUOUS
 10
2.2249990000000253
 20
49.6749980000000164
 30
0.0
 40
0.7500010013580322
 41
100.0
 71
9
 72
2
  1
1
  7
standard
 50
450.0
 73
1
 44
1.0
  0
LINE
  5
8E
100
AcDbEntity
100
AcDbLine
  8
RaspberryPi_Connectors
 62
256
370
-1
  6
ByLayer
 10
17.5004040000000032
 20
42.4252950000000055
 30
0.0
 11
17.5004040000000032
 21
18.1718099999999936
 31
0.0
  0
LINE
  5
8F
100
AcDbEntity
100
AcDbLine
  8
RaspberryPi_Connectors
 62
256
370
-1
  6
ByLayer
 10
0.0
 20
42.4252950000000055
 30
0.0
 11
17.5004040000000032
 21
42.4252950000000055
 31
0.0
  0
LINE
  5
90
100
AcDbEntity
100
AcDbLine
  8
RaspberryPi_Connectors
 62
256
370
-1
  6
ByLayer
 10
0.0
 20
18.1718099999999936
 30
0.0
 11
17.5004040000000032
 21
18.1718099999999936
 31
0.0
  0
LINE
  5
91
100
AcDbEntity
100
AcDbLine
  8
RaspberryPi_Connectors
 62
256
370
-1
  6
ByLayer
 10
4.2999990000000139
 20
11.4690269999999828
 30
0.0
 11
4.2999990000000139
 21
3.884301999999991
 31
0.0
  0
LINE
  5
92
100
AcDbEntity
100
AcDbLine
  8
RaspberryPi_Connectors
 62
256
370
-1
  6
ByLayer
 10
0.0
 20
11.4690269999999828
 30
0.0
 11
4.2999990000000139
 21
11.4690269999999828
 31
0.0
  0
LINE
  5
93
100
AcDbEntity
100
AcDbLine
  8
RaspberryPi_Connectors
 62
256
370
-1
  6
ByLayer
 10
0.0
 20
3.884301999999991
 30
0.0
 11
4.2999990000000139
 21
3.884301999999991
 31
0.0
  0
LINE
  5
94
100
AcDbEntity
100
AcDbLine
  8
RaspberryPi_Connectors
 62
256
370
-1
  6
ByLayer
 10
51.9844530000000304
 20
10.7634709999999814
 30
0.0
 11
51.9844529999999736
 21
0.0
 31
0.0
  0
LINE
  5
95
100
AcDbEntity
100
AcDbLine
  8
RaspberryPi_Connectors
 62
256
370
-1
  6
ByLayer
 10
37.0795830000000137
 20
10.7634709999999814
 30
0.0
 11
37.0795830000000137
 21
0.0
 31
0.0
  0
LINE
  5
96
100
AcDbEntity
100
AcDbLine
  8
RaspberryPi_Connectors
 62
256
370
-1
  6
ByLayer
 10
37.0795830000000137
 20
10.7634709999999814
 30
0.0
 11
51.9844530000000304
 21
10.7634709999999814
 31
0.0
  0
LINE
  5
97
100
AcDbEntity
100
AcDbLine
  8
RaspberryPi_Connectors
 62
256
370
-1
  6
ByLayer
 10
65.7427920000000086
 20
2.2968000000000188
 30
0.0
 11
85.0
 21
2.2967999999999904
 31
0.0
  0
LINE
  5
98
100
AcDbEntity
100
AcDbLine
  8
RaspberryPi_Connectors
 62
256
370
-1
  6
ByLayer
 10
65.7427920000000086
 20
18.0836129999999571
 30
0.0
 11
65.7427920000000086
 21
2.2968000000000188
 31
0.0
  0
LINE
  5
99
100
AcDbEntity
100
AcDbLine
  8
RaspberryPi_Connectors
 62
256
370
-1
  6
ByLayer
 10
65.7427920000000086
 20
18.0836129999999571
 30
0.0
 11
85.0
 21
18.0836129999999571
 31
0.0
  0
LINE
  5
9A
100
AcDbEntity
100
AcDbLine
  8
RaspberryPi_Connectors
 62
256
370
-1
  6
ByLayer
 10
75.3559910000000173
 20
37.6627920000000245
 30
0.0
 11
75.3559910000000173
 21
24.3454250000000059
 31
0.0
  0
LINE
  5
9B
100
AcDbEntity
100
AcDbLine
  8
RaspberryPi_Connectors
 62
256
370
-1
  6
ByLayer
 10
75.3559910000000173
 20
37.6627920000000245
 30
0.0
 11
85.0000000000000568
 21
37.6627919999999961
 31
0.0
  0
LINE
  5
9C
100
AcDbEntity
100
AcDbLine
  8
RaspberryPi_Connectors
 62
256
370
-1
  6
ByLayer
 10
75.3559910000000173
 20
24.3454250000000059
 30
0.0
 11
85.0
 21
24.345424999999949
 31
0.0
  0
LINE
  5
9D
100
AcDbEntity
100
AcDbLine
  8
RaspberryPi_Connectors
 62
256
370
-1
  6
ByLayer
 10
70.7698790000000031
 20
56.1999989999999912
 30
0.0
 11
70.7698790000000031
 21
45.5121010000000012
 31
0.0
  0
LINE
  5
9E
100
AcDbEntity
100
AcDbLine
  8
RaspberryPi_Connectors
 62
256
370
-1
  6
ByLayer
 10
58.5108430000000226
 20
56.1999989999999912
 30
0.0
 11
58.5108430000000226
 21
45.5121010000000012
 31
0.0
  0
LINE
  5
9F
100
AcDbEntity
100
AcDbLine
  8
RaspberryPi_Connectors
 62
256
370
-1
  6
ByLayer
 10
58.5108430000000226
 20
45.5121010000000012
 30
0.0
 11
70.7698790000000031
 21
45.5121010000000012
 31
0.0
  0
LINE
  5
A0
100
AcDbEntity
100
AcDbLine
  8
RaspberryPi_Connectors
 62
256
370
-1
  6
ByLayer
 10
51.455284000000006
 20
53.8905780000000334
 30
0.0
 11
51.455284000000006
 21
43.7482129999999927
 31
0.0
  0
LINE
  5
A1
100
AcDbEntity
100
AcDbLine
  8
RaspberryPi_Connectors
 62
256
370
-1
  6
ByLayer
 10
40.695557000000008
 20
43.7482129999999927
 30
0.0
 11
51.455284000000006
 21
43.7482129999999927
 31
0.0
  0
LINE
  5
A2
100
AcDbEntity
100
AcDbLine
  8
RaspberryPi_Connectors
 62
256
370
-1
  6
ByLayer
 10
40.695557000000008
 20
53.890578000000005
 30
0.0
 11
40.695557000000008
 21
43.7482129999999927
 31
0.0
  0
LINE
  5
A3
100
AcDbEntity
100
AcDbLine
  8
RaspberryPi_Connectors
 62
256
370
-1
  6
ByLayer
 10
40.695557000000008
 20
53.890578000000005
 30
0.0
 11
51.455284000000006
 21
53.8905780000000334
 31
0.0
  0
LINE
  5
A4
100
AcDbEntity
100
AcDbLine
  8
RaspberryPi_Connectors
 62
256
370
-1
  6
ByLayer
 10
50.1323689999999829
 20
56.1999989999999912
 30
0.0
 11
50.1323690000000397
 21
53.8905779999999766
 31
0.0
  0
LINE
  5
A5
100
AcDbEntity
100
AcDbLine
  8
RaspberryPi_Connectors
 62
256
370
-1
  6
ByLayer
 10
41.8420849999999973
 20
56.1999990000000196
 30
0.0
 11
41.8420849999999973
 21
53.8905779999999766
 31
0.0
  0
LINE
  5
A6
100
AcDbEntity
100
AcDbLine
  8
RaspberryPi_Connectors
 62
256
370
-1
  6
ByLayer
 10
41.8420849999999973
 20
53.8905779999999766
 30
0.0
 11
50.1323690000000397
 21
53.8905779999999766
 31
0.0
  0
LINE
  5
A7
100
AcDbEntity
100
AcDbLine
  8
RaspberryPi_Connectors
 62
256
370
-1
  6
ByLayer
 10
61.1499999999999773
 20
60.0999989999999968
 30
0.0
 11
68.2249990000000253
 21
60.0999990000000253
 31
0.0
  0
LINE
  5
A8
100
AcDbEntity
100
AcDbLine
  8
RaspberryPi_Connectors
 62
256
370
-1
  6
ByLayer
 10
58.5
 20
56.5750000000000171
 30
0.0
 11
70.7749990000000366
 21
56.5749999999999886
 31
0.0
  0
LINE
  5
A9
100
AcDbEntity
100
AcDbLine
  8
RaspberryPi_Connectors
 62
256
370
-1
  6
ByLayer
 10
85.0
 20
37.6749990000000707
 30
0.0
 11
92.5249989999999798
 21
37.6749989999999855
 31
0.0
  0
LINE
  5
AA
100
AcDbEntity
100
AcDbLine
  8
RaspberryPi_Connectors
 62
256
370
-1
  6
ByLayer
 10
85.0
 20
24.3499989999999684
 30
0.0
 11
92.5249989999999798
 21
24.3499989999999684
 31
0.0
  0
LINE
  5
AB
100
AcDbEntity
100
AcDbLine
  8
RaspberryPi_Connectors
 62
256
370
-1
  6
ByLayer
 10
41.8500000000000227
 20
63.2999999999999829
 30
0.0
 11
50.125
 21
63.2999999999999829
 31
0.0
  0
LINE
  5
AC
100
AcDbEntity
100
AcDbLine
  8
RaspberryPi_Connectors
 62
256
370
-1
  6
ByLayer
 10
37.0750010000000429
 20
-1.1500009999999747
 30
0.0
 11
52.0
 21
-1.1500010000000316
 31
0.0
  0
LINE
  5
AD
100
AcDbEntity
100
AcDbLine
  8
RaspberryPi_Connectors
 62
256
370
-1
  6
ByLayer
 10
-18.0
 20
42.4249999999999829
 30
0.0
 11
-0.0249989999999798
 21
42.4249999999999829
 31
0.0
  0
LINE
  5
AE
100
AcDbEntity
100
AcDbLine
  8
RaspberryPi_Connectors
 62
256
370
-1
  6
ByLayer
 10
-18.0
 20
18.1749999999999829
 30
0.0
 11
0.0
 21
18.1749999999999829
 31
0.0
  0
LINE
  5
AF
100
AcDbEntity
100
AcDbLine
  8
RaspberryPi_Connectors
 62
256
370
-1
  6
ByLayer
 10
-0.7500009999999975
 20
11.4749979999999994
 30
0.0
 11
0.0
 21
11.4749979999999994
 31
0.0
  0
LINE
  5
B0
100
AcDbEntity
100
AcDbLine
  8
RaspberryPi_Connectors
 62
256
370
-1
  6
ByLayer
 10
85.0
 20
18.0749979999999937
 30
0.0
 11
86.0000009999999975
 21
18.0749979999999653
 31
0.0
  0
LINE
  5
B1
100
AcDbEntity
100
AcDbLine
  8
RaspberryPi_Connectors
 62
256
370
-1
  6
ByLayer
 10
85.0
 20
2.3000000000000114
 30
0.0
 11
86.0000009999999975
 21
2.2999999999999829
 31
0.0
  0
LINE
  5
B2
100
AcDbEntity
100
AcDbLine
  8
RaspberryPi_Connectors
 62
256
370
-1
  6
ByLayer
 10
-0.7500009999999975
 20
3.8749979999999766
 30
0.0
 11
0.0
 21
3.8749979999999766
 31
0.0
  0
LINE
  5
B3
100
AcDbEntity
100
AcDbLine
  8
RaspberryPi_Connectors
 62
256
370
-1
  6
ByLayer
 10
92.5249989999999798
 20
37.6749989999999855
 30
0.0
 11
92.5249989999999798
 21
24.3499989999999684
 31
0.0
  0
LINE
  5
B4
100
AcDbEntity
100
AcDbLine
  8
RaspberryPi_Connectors
 62
256
370
-1
  6
ByLayer
 10
50.125
 20
63.2999999999999829
 30
0.0
 11
50.125
 21
56.1999990000000196
 31
0.0
  0
LINE
  5
B5
100
AcDbEntity
100
AcDbLine
  8
RaspberryPi_Connectors
 62
256
370
-1
  6
ByLayer
 10
41.8500000000000227
 20
63.2999999999999829
 30
0.0
 11
41.8500000000000227
 21
56.1999989999999912
 31
0.0
  0
LINE
  5
B6
100
AcDbEntity
100
AcDbLine
  8
RaspberryPi_Connectors
 62
256
370
-1
  6
ByLayer
 10
-18.0
 20
42.4249999999999829
 30
0.0
 11
-18.0
 21
18.1749999999999829
 31
0.0
  0
LINE
  5
B7
100
AcDbEntity
100
AcDbLine
  8
RaspberryPi_Connectors
 62
256
370
-1
  6
ByLayer
 10
86.0000009999999975
 20
18.0749979999999653
 30
0.0
 11
86.0000009999999975
 21
2.2999999999999829
 31
0.0
  0
LINE
  5
B8
100
AcDbEntity
100
AcDbLine
  8
RaspberryPi_Connectors
 62
256
370
-1
  6
ByLayer
 10
-0.7500009999999975
 20
11.4749979999999994
 30
0.0
 11
-0.7500009999999975
 21
3.8749979999999766
 31
0.0
  0
LINE
  5
B9
100
AcDbEntity
100
AcDbLine
  8
RaspberryPi_Connectors
 62
256
370
-1
  6
ByLayer
 10
70.7749990000000366
 20
56.5749999999999886
 30
0.0
 11
70.7749989999999798
 21
56.1999989999999627
 31
0.0
  0
LINE
  5
BA
100
AcDbEntity
100
AcDbLine
  8
RaspberryPi_Connectors
 62
256
370
-1
  6
ByLayer
 10
68.2249990000000253
 20
60.0999990000000253
 30
0.0
 11
68.2249990000000253
 21
56.5750000000000171
 31
0.0
  0
LINE
  5
BB
100
AcDbEntity
100
AcDbLine
  8
RaspberryPi_Connectors
 62
256
370
-1
  6
ByLayer
 10
61.1499999999999773
 20
60.0999989999999968
 30
0.0
 11
61.1499999999999773
 21
56.5750000000000171
 31
0.0
  0
LINE
  5
BC
100
AcDbEntity
100
AcDbLine
  8
RaspberryPi_Connectors
 62
256
370
-1
  6
ByLayer
 10
58.5
 20
56.5750000000000171
 30
0.0
 11
58.5
 21
56.1999989999999912
 31
0.0
  0
LINE
  5
BD
100
AcDbEntity
100
AcDbLine
  8
RaspberryPi_Connectors
 62
256
370
-1
  6
ByLayer
 10
52.0
 20
0.0
 30
0.0
 11
52.0
 21
-1.1500010000000316
 31
0.0
  0
LINE
  5
BE
100
AcDbEntity
100
AcDbLine
  8
RaspberryPi_Connectors
 62
256
370
-1
  6
ByLayer
 10
37.0750009999999861
 20
0.0
 30
0.0
 11
37.0750010000000429
 21
-1.1500009999999747
 31
0.0
  0
LINE
  5
BF
100
AcDbEntity
100
AcDbLine
  8
RaspberryPi_Board
 62
256
370
-1
  6
ByLayer
 10
0.0
 20
56.1999989999999912
 30
0.0
 11
0.0
 21
0.0002990000000125
 31
0.0
  0
LINE
  5
C0
100
AcDbEntity
100
AcDbLine
  8
RaspberryPi_Board
 62
256
370
-1
  6
ByLayer
 10
0.0
 20
56.1999989999999912
 30
0.0
 11
85.0
 21
56.1999989999999912
 31
0.0
  0
LINE
  5
C1
100
AcDbEntity
100
AcDbLine
  8
RaspberryPi_Board
 62
256
370
-1
  6
ByLayer
 10
0.0
 20
0.0
 30
0.0
 11
85.0000000000000568
 21
0.0000000000000284
 31
0.0
  0
LINE
  5
C2
100
AcDbEntity
100
AcDbLine
  8
RaspberryPi_Board
 62
256
370
-1
  6
ByLayer
 10
85.0
 20
56.1999989999999912
 30
0.0
 11
85.0000000000000568
 21
0.0000000000000284
 31
0.0
  0
ENDBLK
  5
C3
100
AcDbEntity
  8
0
100
AcDbBlockEnd
  0
BLOCK
  5
C4
100
AcDbEntity
  8
0
100
AcDbBlockBegin
  2
ESC_BreakoutBoard
 70
0
 10
0.0
 20
0.0
 30
0.0
  3
ESC_BreakoutBoard
  1

  0
LINE
  5
C5
100
AcDbEntity
100
AcDbLine
  8
ESC_Breakout_Board
 62
256
370
-1
  6
ByLayer
 10
0.0
 20
0.0
 30
0.0
 11
16.0
 21
0.0
 31
0.0
  0
CIRCLE
  5
C6
100
AcDbEntity
100
AcDbCircle
  8
ESC_Breakout_MountingHoles
 62
256
370
-1
  6
ByLayer
 10
12.0
 20
5.5
 30
0.0
 40
2.5
  0
LINE
  5
C7
100
AcDbEntity
100
AcDbLine
  8
ESC_Breakout_Board
 62
256
370
-1
  6
ByLayer
 10
0.0000000000000029
 20
43.0
 30
0.0
 11
16.0000000000000036
 21
43.0
 31
0.0
  0
CIRCLE
  5
C8
100
AcDbEntity
100
AcDbCircle
  8
ESC_Breakout_MountingHoles
 62
256
370
-1
  6
ByLayer
 10
4.5000000000000018
 20
37.5
 30
0.0
 40
2.5
  0
LINE
  5
C9
100
AcDbEntity
100
AcDbLine
  8
ESC_Breakout_Board
 62
256
370
-1
  6
ByLayer
 10
0.0
 20
0.0
 30
0.0
 11
0.0000000000000026
 21
43.0
 31
0.0
  0
LINE
  5
CA
100
AcDbEntity
100
AcDbLine
  8
ESC_Breakout_Board
 62
256
370
-1
  6
ByLayer
 10
16.0
 20
0.0
 30
0.0
 11
16.0000000000000036
 21
43.0
 31
0.0
  0
ENDBLK
  5
CB
100
AcDbEntity
  8
0
100
AcDbBlockEnd
  0
BLOCK
  5
CC
100
AcDbEntity
  8
0
100
AcDbBlockBegin
  2
iMall-nRF24L01-module-0
 70
0
 10
0.0
 20
0.0
 30
0.0
  3
iMall-nRF24L01-module-0
  1

  0
ENDBLK
  5
CD
100
AcDbEntity
  8
0
100
AcDbBlockEnd
  0
ENDSEC
  0
SECTION
  2
ENTITIES
  0
INSERT
  5
CE
100
AcDbEntity
100
AcDbBlockReference
  8
LayerBaseFrame
 62
256
370
-1
  6
ByLayer
  2
ELayerBase
 10
160.0
 20
160.0
 30
0.0
 50
180.0
  0
ARC
  5
CF
100
AcDbEntity
  8
ComponentAccess
 62
256
370
-1
  6
ByLayer
100
AcDbCircle
 10
28.0
 20
143.0
 30
0.0
 40
2.0
100
AcDbArc
 50
90.0
 51
180.0
  0
LINE
  5
D0
100
AcDbEntity
100
AcDbLine
  8
ComponentAccess
 62
256
370
-1
  6
ByLayer
 10
26.0
 20
134.0
 30
0.0
 11
26.0
 21
143.0
 31
0.0
  0
ARC
  5
D1
100
AcDbEntity
  8
ComponentAccess
 62
256
370
-1
  6
ByLayer
100
AcDbCircle
 10
28.0
 20
134.0
 30
0.0
 40
2.0
100
AcDbArc
 50
180.0
 51
270.0
  0
LINE
  5
D2
100
AcDbEntity
100
AcDbLine
  8
ComponentAccess
 62
256
370
-1
  6
ByLayer
 10
43.0
 20
132.0
 30
0.0
 11
28.0
 21
132.0
 31
0.0
  0
ARC
  5
D3
100
AcDbEntity
  8
ComponentAccess
 62
256
370
-1
  6
ByLayer
100
AcDbCircle
 10
43.0
 20
134.0
 30
0.0
 40
2.0
100
AcDbArc
 50
270.0
 51
0.0
  0
LINE
  5
D4
100
AcDbEntity
100
AcDbLine
  8
ComponentAccess
 62
256
370
-1
  6
ByLayer
 10
45.0
 20
143.0
 30
0.0
 11
45.0
 21
134.0
 31
0.0
  0
LINE
  5
D5
100
AcDbEntity
100
AcDbLine
  8
ComponentAccess
 62
256
370
-1
  6
ByLayer
 10
28.0
 20
145.0
 30
0.0
 11
43.0
 21
145.0
 31
0.0
  0
ARC
  5
D6
100
AcDbEntity
  8
ComponentAccess
 62
256
370
-1
  6
ByLayer
100
AcDbCircle
 10
43.0
 20
143.0
 30
0.0
 40
2.0
100
AcDbArc
 50
0.0
 51
90.0
  0
ARC
  5
D7
100
AcDbEntity
  8
ComponentAccess
 62
256
370
-1
  6
ByLayer
100
AcDbCircle
 10
28.0
 20
26.0
 30
0.0
 40
2.0
100
AcDbArc
 50
90.0
 51
180.0
  0
LINE
  5
D8
100
AcDbEntity
100
AcDbLine
  8
ComponentAccess
 62
256
370
-1
  6
ByLayer
 10
26.0
 20
17.0
 30
0.0
 11
26.0
 21
26.0
 31
0.0
  0
ARC
  5
D9
100
AcDbEntity
  8
ComponentAccess
 62
256
370
-1
  6
ByLayer
100
AcDbCircle
 10
28.0
 20
17.0
 30
0.0
 40
2.0
100
AcDbArc
 50
180.0
 51
270.0
  0
LINE
  5
DA
100
AcDbEntity
100
AcDbLine
  8
ComponentAccess
 62
256
370
-1
  6
ByLayer
 10
43.0
 20
15.0
 30
0.0
 11
28.0
 21
15.0
 31
0.0
  0
ARC
  5
DB
100
AcDbEntity
  8
ComponentAccess
 62
256
370
-1
  6
ByLayer
100
AcDbCircle
 10
43.0
 20
17.0
 30
0.0
 40
2.0
100
AcDbArc
 50
270.0
 51
0.0
  0
LINE
  5
DC
100
AcDbEntity
100
AcDbLine
  8
ComponentAccess
 62
256
370
-1
  6
ByLayer
 10
45.0
 20
26.0
 30
0.0
 11
45.0
 21
17.0
 31
0.0
  0
LINE
  5
DD
100
AcDbEntity
100
AcDbLine
  8
ComponentAccess
 62
256
370
-1
  6
ByLayer
 10
28.0
 20
28.0
 30
0.0
 11
43.0
 21
28.0
 31
0.0
  0
ARC
  5
DE
100
AcDbEntity
  8
ComponentAccess
 62
256
370
-1
  6
ByLayer
100
AcDbCircle
 10
43.0
 20
26.0
 30
0.0
 40
2.0
100
AcDbArc
 50
0.0
 51
90.0
  0
ARC
  5
DF
100
AcDbEntity
  8
ComponentAccess
 62
256
370
-1
  6
ByLayer
100
AcDbCircle
 10
131.9999999999999147
 20
26.0000000000001137
 30
0.0
 40
2.0
100
AcDbArc
 50
0.0000000000001018
 51
90.0000000000000995
  0
LINE
  5
E0
100
AcDbEntity
100
AcDbLine
  8
ComponentAccess
 62
256
370
-1
  6
ByLayer
 10
133.9999999999999432
 20
17.0000000000000888
 30
0.0
 11
133.9999999999999432
 21
26.0000000000000853
 31
0.0
  0
ARC
  5
E1
100
AcDbEntity
  8
ComponentAccess
 62
256
370
-1
  6
ByLayer
100
AcDbCircle
 10
131.9999999999999432
 20
17.0000000000000959
 30
0.0
 40
2.0
100
AcDbArc
 50
270.0000000000001137
 51
0.0000000000001018
  0
LINE
  5
E2
100
AcDbEntity
100
AcDbLine
  8
ComponentAccess
 62
256
370
-1
  6
ByLayer
 10
116.9999999999999432
 20
15.0000000000000693
 30
0.0
 11
131.9999999999999432
 21
15.000000000000119
 31
0.0
  0
ARC
  5
E3
100
AcDbEntity
  8
ComponentAccess
 62
256
370
-1
  6
ByLayer
100
AcDbCircle
 10
116.9999999999999432
 20
17.0000000000000639
 30
0.0
 40
2.0
100
AcDbArc
 50
180.0000000000000853
 51
270.0000000000001137
  0
LINE
  5
E4
100
AcDbEntity
100
AcDbLine
  8
ComponentAccess
 62
256
370
-1
  6
ByLayer
 10
114.9999999999999005
 20
26.0000000000000959
 30
0.0
 11
114.9999999999999432
 21
17.0000000000000533
 31
0.0
  0
LINE
  5
E5
100
AcDbEntity
100
AcDbLine
  8
ComponentAccess
 62
256
370
-1
  6
ByLayer
 10
131.9999999999998863
 20
28.0000000000001243
 30
0.0
 11
116.9999999999999147
 21
28.0000000000000533
 31
0.0
  0
ARC
  5
E6
100
AcDbEntity
  8
ComponentAccess
 62
256
370
-1
  6
ByLayer
100
AcDbCircle
 10
116.9999999999999147
 20
26.0000000000000675
 30
0.0
 40
2.0
100
AcDbArc
 50
90.0000000000000995
 51
180.0000000000000853
  0
ARC
  5
E7
100
AcDbEntity
  8
ComponentAccess
 62
256
370
-1
  6
ByLayer
100
AcDbCircle
 10
131.9999999999998863
 20
133.9999999999998863
 30
0.0
 40
2.0
100
AcDbArc
 50
269.9999999999998863
 51
359.9999999999998863
  0
LINE
  5
E8
100
AcDbEntity
100
AcDbLine
  8
ComponentAccess
 62
256
370
-1
  6
ByLayer
 10
133.9999999999999432
 20
142.9999999999999147
 30
0.0
 11
133.9999999999999147
 21
133.9999999999998863
 31
0.0
  0
ARC
  5
E9
100
AcDbEntity
  8
ComponentAccess
 62
256
370
-1
  6
ByLayer
100
AcDbCircle
 10
131.9999999999999716
 20
142.9999999999999147
 30
0.0
 40
2.0
100
AcDbArc
 50
359.9999999999998863
 51
89.9999999999999005
  0
LINE
  5
EA
100
AcDbEntity
100
AcDbLine
  8
ComponentAccess
 62
256
370
-1
  6
ByLayer
 10
116.9999999999999289
 20
144.9999999999999432
 30
0.0
 11
131.9999999999999716
 21
144.9999999999998863
 31
0.0
  0
ARC
  5
EB
100
AcDbEntity
  8
ComponentAccess
 62
256
370
-1
  6
ByLayer
100
AcDbCircle
 10
116.9999999999999147
 20
142.9999999999999147
 30
0.0
 40
2.0
100
AcDbArc
 50
89.9999999999999005
 51
180.0
  0
LINE
  5
EC
100
AcDbEntity
100
AcDbLine
  8
ComponentAccess
 62
256
370
-1
  6
ByLayer
 10
114.9999999999998863
 20
133.9999999999998863
 30
0.0
 11
114.9999999999999147
 21
142.9999999999999147
 31
0.0
  0
LINE
  5
ED
100
AcDbEntity
100
AcDbLine
  8
ComponentAccess
 62
256
370
-1
  6
ByLayer
 10
131.9999999999998863
 20
131.9999999999998579
 30
0.0
 11
116.9999999999999005
 21
131.9999999999999432
 31
0.0
  0
ARC
  5
EE
100
AcDbEntity
  8
ComponentAccess
 62
256
370
-1
  6
ByLayer
100
AcDbCircle
 10
116.9999999999999147
 20
133.9999999999999432
 30
0.0
 40
2.0
100
AcDbArc
 50
180.0
 51
269.9999999999998863
  0
INSERT
  5
EF
100
AcDbEntity
100
AcDbBlockReference
  8
0
 62
256
370
-1
  6
ByLayer
  2
RaspberryPi-0
 10
69.0000000000000142
 20
130.9999999999999716
 30
0.0
 50
270.0
  0
ARC
  5
F0
100
AcDbEntity
  8
ComponentAccess
 62
256
370
-1
  6
ByLayer
100
AcDbCircle
 10
92.9999999999999147
 20
16.0000000000000568
 30
0.0
 40
2.0
100
AcDbArc
 50
270.0
 51
360.0
  0
LINE
  5
F1
100
AcDbEntity
100
AcDbLine
  8
ComponentAccess
 62
256
370
-1
  6
ByLayer
 10
94.9999999999999716
 20
28.0
 30
0.0
 11
94.9999999999999432
 21
16.0000000000000284
 31
0.0
  0
ARC
  5
F2
100
AcDbEntity
  8
ComponentAccess
 62
256
370
-1
  6
ByLayer
100
AcDbCircle
 10
93.0000000000000568
 20
38.0
 30
0.0
 40
2.0
100
AcDbArc
 50
360.0
 51
90.0
  0
LINE
  5
F3
100
AcDbEntity
100
AcDbLine
  8
ComponentAccess
 62
256
370
-1
  6
ByLayer
 10
64.9999999999999289
 20
16.0000000000000284
 30
0.0
 11
64.9999999999999574
 21
28.0000000000000284
 31
0.0
  0
ARC
  5
F4
100
AcDbEntity
  8
ComponentAccess
 62
256
370
-1
  6
ByLayer
100
AcDbCircle
 10
66.9999999999999432
 20
16.0000000000000284
 30
0.0
 40
2.0
100
AcDbArc
 50
180.0
 51
270.0
  0
ARC
  5
F5
100
AcDbEntity
  8
ComponentAccess
 62
256
370
-1
  6
ByLayer
100
AcDbCircle
 10
66.9999999999999574
 20
38.0000000000000568
 30
0.0
 40
2.0
100
AcDbArc
 50
90.0
 51
180.0
  0
LINE
  5
F6
100
AcDbEntity
100
AcDbLine
  8
ComponentAccess
 62
256
370
-1
  6
ByLayer
 10
66.9999999999999574
 20
40.0000000000000568
 30
0.0
 11
93.0000000000000568
 21
40.0
 31
0.0
  0
LINE
  5
F7
100
AcDbEntity
100
AcDbLine
  8
ComponentAccess
 62
256
370
-1
  6
ByLayer
 10
95.0000000000000568
 20
38.0
 30
0.0
 11
94.9999999999999716
 21
28.0
 31
0.0
  0
LINE
  5
F8
100
AcDbEntity
100
AcDbLine
  8
ComponentAccess
 62
256
370
-1
  6
ByLayer
 10
64.9999999999999574
 20
38.0000000000000568
 30
0.0
 11
64.9999999999999574
 21
28.0000000000000284
 31
0.0
  0
LINE
  5
F9
100
AcDbEntity
100
AcDbLine
  8
ComponentAccess
 62
256
370
-1
  6
ByLayer
 10
66.9999999999999432
 20
14.0000000000000284
 30
0.0
 11
92.9999999999999147
 21
14.0000000000000568
 31
0.0
  0
ARC
  5
FA
100
AcDbEntity
  8
ComponentAccess
 62
256
370
-1
  6
ByLayer
100
AcDbCircle
 10
68.0
 20
88.0
 30
0.0
 40
2.0
100
AcDbArc
 50
0.0
 51
90.0
  0
LINE
  5
FB
100
AcDbEntity
100
AcDbLine
  8
ComponentAccess
 62
256
370
-1
  6
ByLayer
 10
62.0
 20
90.0
 30
0.0
 11
68.0
 21
90.0
 31
0.0
  0
ARC
  5
FC
100
AcDbEntity
  8
ComponentAccess
 62
256
370
-1
  6
ByLayer
100
AcDbCircle
 10
62.0
 20
88.0
 30
0.0
 40
2.0
100
AcDbArc
 50
90.0
 51
180.0
  0
LINE
  5
FD
100
AcDbEntity
100
AcDbLine
  8
ComponentAccess
 62
256
370
-1
  6
ByLayer
 10
60.0
 20
72.0
 30
0.0
 11
60.0
 21
88.0
 31
0.0
  0
ARC
  5
FE
100
AcDbEntity
  8
ComponentAccess
 62
256
370
-1
  6
ByLayer
100
AcDbCircle
 10
62.0
 20
72.0
 30
0.0
 40
2.0
100
AcDbArc
 50
180.0
 51
270.0
  0
LINE
  5
FF
100
AcDbEntity
100
AcDbLine
  8
ComponentAccess
 62
256
370
-1
  6
ByLayer
 10
68.0
 20
70.0
 30
0.0
 11
62.0
 21
70.0
 31
0.0
  0
LINE
  5
100
100
AcDbEntity
100
AcDbLine
  8
ComponentAccess
 62
256
370
-1
  6
ByLayer
 10
70.0
 20
88.0
 30
0.0
 11
70.0
 21
72.0
 31
0.0
  0
ARC
  5
101
100
AcDbEntity
  8
ComponentAccess
 62
256
370
-1
  6
ByLayer
100
AcDbCircle
 10
68.0
 20
72.0
 30
0.0
 40
2.0
100
AcDbArc
 50
270.0
 51
0.0
  0
ENDSEC
  0
SECTION
  2
OBJECTS
  0
DICTIONARY
  5
C
100
AcDbDictionary
280
0
281
1
  3
ACAD_GROUP
350
D
  3
ACAD_LAYOUT
350
1A
  3
ACAD_MLINESTYLE
350
17
  3
ACAD_PLOTSETTINGS
350
19
  3
ACAD_PLOTSTYLENAME
350
E
  3
AcDbVariableDictionary
350
102
  0
DICTIONARY
  5
D
100
AcDbDictionary
280
0
281
1
  0
ACDBDICTIONARYWDFLT
  5
E
100
AcDbDictionary
281
1
  3
Normal
350
F
100
AcDbDictionaryWithDefault
340
F
  0
ACDBPLACEHOLDER
  5
F
  0
DICTIONARY
  5
17
100
AcDbDictionary
280
0
281
1
  3
Standard
350
18
  0
MLINESTYLE
  5
18
100
AcDbMlineStyle
  2
STANDARD
 70
0
  3

 62
256
 51
90.0
 52
90.0
 71
2
 49
0.5
 62
256
  6
BYLAYER
 49
-0.5
 62
256
  6
BYLAYER
  0
DICTIONARY
  5
19
100
AcDbDictionary
280
0
281
1
  0
DICTIONARY
  5
1A
100
AcDbDictionary
281
1
  3
Layout1
350
1E
  3
Layout2
350
26
  3
Model
350
22
  0
LAYOUT
  5
1E
100
AcDbPlotSettings
  1

  2
C:\Program Files\AutoCAD 2002\plotters\DWF ePlot (optimized for plotting).pc3
  4

  6

 40
0.0
 41
0.0
 42
0.0
 43
0.0
 44
0.0
 45
0.0
 46
0.0
 47
0.0
 48
0.0
 49
0.0
140
0.0
141
0.0
142
1.0
143
1.0
 70
688
 72
0
 73
0
 74
5
  7

 75
16
147
1.0
148
0.0
149
0.0
100
AcDbLayout
  1
Layout1
 70
1
 71
1
 10
0.0
 20
0.0
 11
420.0
 21
297.0
 12
0.0
 22
0.0
 32
0.0
 14
100000000000000000000.0
 24
100000000000000000000.0
 34
100000000000000000000.0
 15
-100000000000000000000.0
 25
-100000000000000000000.0
 35
-100000000000000000000.0
146
0.0
 13
0.0
 23
0.0
 33
0.0
 16
1.0
 26
0.0
 36
0.0
 17
0.0
 27
1.0
 37
0.0
 76
0
330
1B
  0
LAYOUT
  5
22
100
AcDbPlotSettings
  1

  2
C:\Program Files\AutoCAD 2002\plotters\DWF ePlot (optimized for plotting).pc3
  4

  6

 40
0.0
 41
0.0
 42
0.0
 43
0.0
 44
0.0
 45
0.0
 46
0.0
 47
0.0
 48
0.0
 49
0.0
140
0.0
141
0.0
142
1.0
143
1.0
 70
1712
 72
0
 73
0
 74
0
  7

 75
0
147
1.0
148
0.0
149
0.0
100
AcDbLayout
  1
Model
 70
1
 71
0
 10
0.0
 20
0.0
 11
12.0
 21
9.0
 12
0.0
 22
0.0
 32
0.0
 14
0.0
 24
0.0
 34
0.0
 15
0.0
 25
0.0
 35
0.0
146
0.0
 13
0.0
 23
0.0
 33
0.0
 16
1.0
 26
0.0
 36
0.0
 17
0.0
 27
1.0
 37
0.0
 76
0
330
1F
  0
LAYOUT
  5
26
100
AcDbPlotSettings
  1

  2
C:\Program Files\AutoCAD 2002\plotters\DWF ePlot (optimized for plotting).pc3
  4

  6

 40
0.0
 41
0.0
 42
0.0
 43
0.0
 44
0.0
 45
0.0
 46
0.0
 47
0.0
 48
0.0
 49
0.0
140
0.0
141
0.0
142
1.0
143
1.0
 70
688
 72
0
 73
0
 74
5
  7

 75
16
147
1.0
148
0.0
149
0.0
100
AcDbLayout
  1
Layout2
 70
1
 71
2
 10
0.0
 20
0.0
 11
12.0
 21
9.0
 12
0.0
 22
0.0
 32
0.0
 14
0.0
 24
0.0
 34
0.0
 15
0.0
 25
0.0
 35
0.0
146
0.0
 13
0.0
 23
0.0
 33
0.0
 16
1.0
 26
0.0
 36
0.0
 17
0.0
 27
1.0
 37
0.0
 76
0
330
23
  0
DICTIONARY
  5
102
100
AcDbDictionary
281
1
  3
DIMASSOC
350
104
  3
HIDETEXT
350
103
  0
DICTIONARYVAR
  5
103
100
DictionaryVariables
280
0
  1
2
  0
DICTIONARYVAR
  5
104
100
DictionaryVariables
280
0
  1
1
  0
ENDSEC
  0
EOF
