999
dxflib 2.2.0.0
  0
SECTION
  2
HEADER
  9
$ACADVER
  1
AC1015
  9
$HANDSEED
  5
FFFF
  9
$SNAPSTYLE
 70
0
  9
$SPLINESEGS
 70
8
  9
$DIMEXE
 40
1.25
  9
$PSVPSCALE
 40
1.0
  9
$LIMMAX
 10
420.0
 20
297.0
  9
$DIMLUNIT
 70
2
  9
$GRIDMODE
 70
1
  9
$INSBASE
 10
0.0
 20
0.0
 30
0.0
  9
$INSUNITS
 70
4
  9
$DIMADEC
 70
2
  9
$DIMASZ
 40
2.5
  9
$DIMGAP
 40
0.625
  9
$DIMTXT
 40
2.5
  9
$TEXTSTYLE
  7
STANDARD
  9
$GRIDUNIT
 10
0.0
 20
0.0
  9
$LIMMIN
 10
0.0
 20
0.0
  9
$DIMEXO
 40
0.625
  9
$LUPREC
 70
4
  9
$EXTMAX
 10
-100000000000000000000.0
 20
-100000000000000000000.0
 30
-100000000000000000000.0
  9
$DIMTIH
 70
0
  9
$PINSBASE
 10
-95.0
 20
-51.5
 30
0.0
  9
$ORTHOMODE
 70
0
  9
$DIMAUNIT
 70
0
  9
$DWGCODEPAGE
  3
ANSI_1252
  9
$LTSCALE
 40
1.0
  9
$AUPREC
 70
2
  9
$PLIMMIN
 10
0.0
 20
0.0
  9
$LUNITS
 70
2
  9
$EXTMIN
 10
100000000000000000000.0
 20
100000000000000000000.0
 30
100000000000000000000.0
  9
$PLIMMAX
 10
500.0
 20
500.0
  9
$DIMTSZ
 40
0.0
  9
$DIMSTYLE
  2
STANDARD
  9
$AUNITS
 70
0
  0
ENDSEC
  0
SECTION
  2
TABLES
  0
TABLE
  2
VPORT
  5
8
100
AcDbSymbolTable
 70
1
  0
VPORT
  5
30
100
AcDbSymbolTableRecord
100
AcDbViewportTableRecord
  2
*Active
 70
0
 10
0.0
 20
0.0
 11
1.0
 21
1.0
 12
286.3055555555554861
 22
148.5
 13
0.0
 23
0.0
 14
10.0
 24
10.0
 15
10.0
 25
10.0
 16
0.0
 26
0.0
 36
1.0
 17
0.0
 27
0.0
 37
0.0
 40
297.0
 41
1.92798353909465
 42
50.0
 43
0.0
 44
0.0
 50
0.0
 51
0.0
 71
0
 72
100
 73
1
 74
3
 75
1
 76
1
 77
0
 78
0
281
0
 65
1
110
0.0
120
0.0
130
0.0
111
1.0
121
0.0
131
0.0
112
0.0
122
1.0
132
0.0
 79
0
146
0.0
  0
ENDTAB
  0
TABLE
  2
LTYPE
  5
5
100
AcDbSymbolTable
 70
21
  0
LTYPE
  5
14
100
AcDbSymbolTableRecord
100
AcDbLinetypeTableRecord
  2
ByBlock
 70
0
  3

 72
65
 73
0
 40
0.0
  0
LTYPE
  5
15
100
AcDbSymbolTableRecord
100
AcDbLinetypeTableRecord
  2
ByLayer
 70
0
  3

 72
65
 73
0
 40
0.0
  0
LTYPE
  5
16
100
AcDbSymbolTableRecord
100
AcDbLinetypeTableRecord
  2
CONTINUOUS
 70
0
  3
Solid line
 72
65
 73
0
 40
0.0
  0
LTYPE
  5
31
100
AcDbSymbolTableRecord
100
AcDbLinetypeTableRecord
  2
DOT
 70
0
  3
Dot . . . . . . . . . . . . . . . . . . . . . .
 72
65
 73
2
 40
6.3499999999999996
 49
0.0
 74
0
 49
-6.3499999999999996
 74
0
  0
LTYPE
  5
32
100
AcDbSymbolTableRecord
100
AcDbLinetypeTableRecord
  2
DOT2
 70
0
  3
Dot (.5x) .....................................
 72
65
 73
2
 40
3.1749999999999998
 49
0.0
 74
0
 49
-3.1749999999999998
 74
0
  0
LTYPE
  5
33
100
AcDbSymbolTableRecord
100
AcDbLinetypeTableRecord
  2
DOTX2
 70
0
  3
Dot (2x) .  .  .  .  .  .  .  .  .  .  .  .  .
 72
65
 73
2
 40
12.6999999999999993
 49
0.0
 74
0
 49
-12.6999999999999993
 74
0
  0
LTYPE
  5
34
100
AcDbSymbolTableRecord
100
AcDbLinetypeTableRecord
  2
DASHED
 70
0
  3
Dashed __ __ __ __ __ __ __ __ __ __ __ __ __ _
 72
65
 73
2
 40
19.0500000000000007
 49
12.6999999999999993
 74
0
 49
-6.3499999999999996
 74
0
  0
LTYPE
  5
35
100
AcDbSymbolTableRecord
100
AcDbLinetypeTableRecord
  2
DASHED2
 70
0
  3
Dashed (.5x) _ _ _ _ _ _ _ _ _ _ _ _ _ _ _ _ _
 72
65
 73
2
 40
9.5250000000000004
 49
6.3499999999999996
 74
0
 49
-3.1749999999999998
 74
0
  0
LTYPE
  5
36
100
AcDbSymbolTableRecord
100
AcDbLinetypeTableRecord
  2
DASHEDX2
 70
0
  3
Dashed (2x) ____  ____  ____  ____  ____  ___
 72
65
 73
2
 40
38.1000000000000014
 49
25.3999999999999986
 74
0
 49
-12.6999999999999993
 74
0
  0
LTYPE
  5
37
100
AcDbSymbolTableRecord
100
AcDbLinetypeTableRecord
  2
DASHDOT
 70
0
  3
Dash dot __ . __ . __ . __ . __ . __ . __ . __
 72
65
 73
4
 40
25.3999999999999986
 49
12.6999999999999993
 74
0
 49
-6.3499999999999996
 74
0
 49
0.0
 74
0
 49
-6.3499999999999996
 74
0
  0
LTYPE
  5
38
100
AcDbSymbolTableRecord
100
AcDbLinetypeTableRecord
  2
DASHDOT2
 70
0
  3
Dash dot (.5x) _._._._._._._._._._._._._._._.
 72
65
 73
4
 40
12.6999999999999993
 49
6.3499999999999996
 74
0
 49
-3.1749999999999998
 74
0
 49
0.0
 74
0
 49
-3.1749999999999998
 74
0
  0
LTYPE
  5
39
100
AcDbSymbolTableRecord
100
AcDbLinetypeTableRecord
  2
DASHDOTX2
 70
0
  3
Dash dot (2x) ____  .  ____  .  ____  .  ___
 72
65
 73
4
 40
50.7999999999999972
 49
25.3999999999999986
 74
0
 49
-12.6999999999999993
 74
0
 49
0.0
 74
0
 49
-12.6999999999999993
 74
0
  0
LTYPE
  5
3A
100
AcDbSymbolTableRecord
100
AcDbLinetypeTableRecord
  2
DIVIDE
 70
0
  3
Divide ____ . . ____ . . ____ . . ____ . . ____
 72
65
 73
6
 40
31.75
 49
12.6999999999999993
 74
0
 49
-6.3499999999999996
 74
0
 49
0.0
 74
0
 49
-6.3499999999999996
 74
0
 49
0.0
 74
0
 49
-6.3499999999999996
 74
0
  0
LTYPE
  5
3B
100
AcDbSymbolTableRecord
100
AcDbLinetypeTableRecord
  2
DIVIDE2
 70
0
  3
Divide (.5x) __..__..__..__..__..__..__..__.._
 72
65
 73
6
 40
15.875
 49
6.3499999999999996
 74
0
 49
-3.1749999999999998
 74
0
 49
0.0
 74
0
 49
-3.1749999999999998
 74
0
 49
0.0
 74
0
 49
-3.1749999999999998
 74
0
  0
LTYPE
  5
3C
100
AcDbSymbolTableRecord
100
AcDbLinetypeTableRecord
  2
DIVIDEX2
 70
0
  3
Divide (2x) ________  .  .  ________  .  .  _
 72
65
 73
6
 40
63.5
 49
25.3999999999999986
 74
0
 49
-12.6999999999999993
 74
0
 49
0.0
 74
0
 49
-12.6999999999999993
 74
0
 49
0.0
 74
0
 49
-12.6999999999999993
 74
0
  0
LTYPE
  5
3D
100
AcDbSymbolTableRecord
100
AcDbLinetypeTableRecord
  2
CENTER
 70
0
  3
Center ____ _ ____ _ ____ _ ____ _ ____ _ ____
 72
65
 73
4
 40
50.7999999999999972
 49
31.75
 74
0
 49
-6.3499999999999996
 74
0
 49
6.3499999999999996
 74
0
 49
-6.3499999999999996
 74
0
  0
LTYPE
  5
3E
100
AcDbSymbolTableRecord
100
AcDbLinetypeTableRecord
  2
CENTER2
 70
0
  3
Center (.5x) ___ _ ___ _ ___ _ ___ _ ___ _ ___
 72
65
 73
4
 40
28.5749999999999993
 49
19.0500000000000007
 74
0
 49
-3.1749999999999998
 74
0
 49
3.1749999999999998
 74
0
 49
-3.1749999999999998
 74
0
  0
LTYPE
  5
3F
100
AcDbSymbolTableRecord
100
AcDbLinetypeTableRecord
  2
CENTERX2
 70
0
  3
Center (2x) ________  __  ________  __  _____
 72
65
 73
4
 40
101.5999999999999943
 49
63.5
 74
0
 49
-12.6999999999999993
 74
0
 49
12.6999999999999993
 74
0
 49
-12.6999999999999993
 74
0
  0
LTYPE
  5
40
100
AcDbSymbolTableRecord
100
AcDbLinetypeTableRecord
  2
BORDER
 70
0
  3
Border __ __ . __ __ . __ __ . __ __ . __ __ .
 72
65
 73
6
 40
44.4500000000000028
 49
12.6999999999999993
 74
0
 49
-6.3499999999999996
 74
0
 49
12.6999999999999993
 74
0
 49
-6.3499999999999996
 74
0
 49
0.0
 74
0
 49
-6.3499999999999996
 74
0
  0
LTYPE
  5
41
100
AcDbSymbolTableRecord
100
AcDbLinetypeTableRecord
  2
BORDER2
 70
0
  3
Border (.5x) __.__.__.__.__.__.__.__.__.__.__.
 72
65
 73
6
 40
22.2250000000000014
 49
6.3499999999999996
 74
0
 49
-3.1749999999999998
 74
0
 49
6.3499999999999996
 74
0
 49
-3.1749999999999998
 74
0
 49
0.0
 74
0
 49
-3.1749999999999998
 74
0
  0
LTYPE
  5
42
100
AcDbSymbolTableRecord
100
AcDbLinetypeTableRecord
  2
BORDERX2
 70
0
  3
Border (2x) ____  ____  .  ____  ____  .  ___
 72
65
 73
6
 40
88.9000000000000057
 49
25.3999999999999986
 74
0
 49
-12.6999999999999993
 74
0
 49
25.3999999999999986
 74
0
 49
-12.6999999999999993
 74
0
 49
0.0
 74
0
 49
-12.6999999999999993
 74
0
  0
ENDTAB
  0
TABLE
  2
LAYER
  5
2
100
AcDbSymbolTable
 70
30
  0
LAYER
  5
10
100
AcDbSymbolTableRecord
100
AcDbLayerTableRecord
  2
0
 70
0
 62
9
  6
CONTINUOUS
370
0
390
F
  0
LAYER
  5
43
100
AcDbSymbolTableRecord
100
AcDbLayerTableRecord
  2
BaseLayer
 70
0
 62
1
  6
CONTINUOUS
370
0
390
F
  0
LAYER
  5
44
100
AcDbSymbolTableRecord
100
AcDbLayerTableRecord
  2
MotorBody
 70
0
 62
2
  6
DASHED2
370
0
390
F
  0
LAYER
  5
45
100
AcDbSymbolTableRecord
100
AcDbLayerTableRecord
  2
MotorMountingHoles
 70
0
 62
1
  6
CONTINUOUS
370
0
390
F
  0
LAYER
  5
46
100
AcDbSymbolTableRecord
100
AcDbLayerTableRecord
  2
PropSpace
 70
0
 62
4
  6
DASHEDX2
370
0
390
F
  0
LAYER
  5
47
100
AcDbSymbolTableRecord
100
AcDbLayerTableRecord
  2
ElectronicsLayerPosition
 70
0
 62
2
  6
DASHED
370
0
390
F
  0
LAYER
  5
48
100
AcDbSymbolTableRecord
100
AcDbLayerTableRecord
  2
ElectronicsLayerMountingHoles
 70
0
 62
1
  6
CONTINUOUS
370
0
390
F
  0
LAYER
  5
49
100
AcDbSymbolTableRecord
100
AcDbLayerTableRecord
  2
ESC_Position
 70
0
 62
2
  6
DASHED2
370
0
390
F
  0
LAYER
  5
4A
100
AcDbSymbolTableRecord
100
AcDbLayerTableRecord
  2
BaseSupportMountings
 70
0
 62
1
  6
CONTINUOUS
370
0
390
F
  0
LAYER
  5
4B
100
AcDbSymbolTableRecord
100
AcDbLayerTableRecord
  2
BatteryPosition
 70
0
 62
4
  6
DOT
370
0
390
F
  0
LAYER
  5
4C
100
AcDbSymbolTableRecord
100
AcDbLayerTableRecord
  2
ArduinoMega_Board
 70
0
 62
2
  6
CONTINUOUS
370
0
390
F
  0
LAYER
  5
4D
100
AcDbSymbolTableRecord
100
AcDbLayerTableRecord
  2
ArduinoMega_MountingHoles
 70
0
 62
1
  6
CONTINUOUS
370
0
390
F
  0
LAYER
  5
4E
100
AcDbSymbolTableRecord
100
AcDbLayerTableRecord
  2
ArduinoMega_Ports
 70
0
 62
3
  6
CONTINUOUS
370
0
390
F
  0
LAYER
  5
4F
100
AcDbSymbolTableRecord
100
AcDbLayerTableRecord
  2
ArduinoMega_Pins
 70
0
 62
4
  6
CONTINUOUS
370
0
390
F
  0
LAYER
  5
50
100
AcDbSymbolTableRecord
100
AcDbLayerTableRecord
  2
Components
 70
0
 62
8
  6
CONTINUOUS
370
0
390
F
  0
LAYER
  5
51
100
AcDbSymbolTableRecord
100
AcDbLayerTableRecord
  2
BatteryMountingHoles
 70
0
 62
1
  6
CONTINUOUS
370
0
390
F
  0
LAYER
  5
52
100
AcDbSymbolTableRecord
100
AcDbLayerTableRecord
  2
BatteryMountingPosition
 70
0
 62
2
  6
DOT
370
0
390
F
  0
LAYER
  5
53
100
AcDbSymbolTableRecord
100
AcDbLayerTableRecord
  2
WiringHoles
 70
0
 62
1
  6
CONTINUOUS
370
0
390
F
  0
LAYER
  5
54
100
AcDbSymbolTableRecord
100
AcDbLayerTableRecord
  2
MaxSonar-EZ24_Board
 70
0
 62
2
  6
CONTINUOUS
370
0
390
F
  0
LAYER
  5
55
100
AcDbSymbolTableRecord
100
AcDbLayerTableRecord
  2
MaxSonar-EZ24_Pins
 70
0
 62
4
  6
CONTINUOUS
370
0
390
F
  0
LAYER
  5
56
100
AcDbSymbolTableRecord
100
AcDbLayerTableRecord
  2
MaxSonar-EZ24_Module
 70
0
 62
3
  6
CONTINUOUS
370
0
390
F
  0
LAYER
  5
57
100
AcDbSymbolTableRecord
100
AcDbLayerTableRecord
  2
MaxSonar-EZ24_MountingHoles
 70
0
 62
1
  6
CONTINUOUS
370
0
390
F
  0
LAYER
  5
58
100
AcDbSymbolTableRecord
100
AcDbLayerTableRecord
  2
SensorBoard_Board
 70
0
 62
2
  6
CONTINUOUS
370
0
390
F
  0
LAYER
  5
59
100
AcDbSymbolTableRecord
100
AcDbLayerTableRecord
  2
SensorBoard_MountingHoles
 70
0
 62
1
  6
CONTINUOUS
370
0
390
F
  0
LAYER
  5
5A
100
AcDbSymbolTableRecord
100
AcDbLayerTableRecord
  2
ESC_ZipTieHoles
 70
0
 62
1
  6
CONTINUOUS
370
0
390
F
  0
LAYER
  5
5B
100
AcDbSymbolTableRecord
100
AcDbLayerTableRecord
  2
PropGuardSpace
 70
0
 62
4
  6
DASHDOT
370
0
390
F
  0
LAYER
  5
5C
100
AcDbSymbolTableRecord
100
AcDbLayerTableRecord
  2
UnderFrame_Guide
 70
0
 62
5
  6
CONTINUOUS
370
0
390
F
  0
LAYER
  5
5D
100
AcDbSymbolTableRecord
100
AcDbLayerTableRecord
  2
FlightDirArrow
 70
0
 62
7
  6
CONTINUOUS
370
0
390
F
  0
LAYER
  5
5E
100
AcDbSymbolTableRecord
100
AcDbLayerTableRecord
  2
LED_Board_Brd
 70
0
 62
2
  6
CONTINUOUS
370
0
390
F
  0
LAYER
  5
5F
100
AcDbSymbolTableRecord
100
AcDbLayerTableRecord
  2
LED_Board_MountingHoles
 70
0
 62
1
  6
CONTINUOUS
370
0
390
F
  0
ENDTAB
  0
TABLE
  2
STYLE
  5
3
100
AcDbSymbolTable
 70
1
  0
STYLE
  5
11
100
AcDbSymbolTableRecord
100
AcDbTextStyleTableRecord
  2
Standard
 70
0
 40
0.0
 41
0.75
 50
0.0
 71
0
 42
2.5
  3
txt
  4

  0
ENDTAB
  0
TABLE
  2
VIEW
  5
6
100
AcDbSymbolTable
 70
0
  0
ENDTAB
  0
TABLE
  2
UCS
  5
7
100
AcDbSymbolTable
 70
0
  0
ENDTAB
  0
TABLE
  2
APPID
  5
9
100
AcDbSymbolTable
 70
1
  0
APPID
  5
12
100
AcDbSymbolTableRecord
100
AcDbRegAppTableRecord
  2
ACAD
 70
0
  0
ENDTAB
  0
TABLE
  2
DIMSTYLE
  5
A
100
AcDbSymbolTable
 70
1
100
AcDbDimStyleTable
 71
0
  0
DIMSTYLE
105
27
100
AcDbSymbolTableRecord
100
AcDbDimStyleTableRecord
  2
Standard
 41
2.5
 42
0.625
 43
3.75
 44
1.25
 70
0
 73
0
 74
0
 77
1
 78
8
140
2.5
141
2.5
143
0.03937007874016
147
0.625
171
3
172
1
271
2
272
2
274
3
278
44
283
0
284
8
340
11
  0
ENDTAB
  0
TABLE
  2
BLOCK_RECORD
  5
1
100
AcDbSymbolTable
 70
1
  0
BLOCK_RECORD
  5
1F
100
AcDbSymbolTableRecord
100
AcDbBlockTableRecord
  2
*Model_Space
340
22
  0
BLOCK_RECORD
  5
1B
100
AcDbSymbolTableRecord
100
AcDbBlockTableRecord
  2
*Paper_Space
340
1E
  0
BLOCK_RECORD
  5
23
100
AcDbSymbolTableRecord
100
AcDbBlockTableRecord
  2
*Paper_Space0
340
26
  0
BLOCK_RECORD
  5
60
100
AcDbSymbolTableRecord
100
AcDbBlockTableRecord
  2
Motor
340
0
  0
BLOCK_RECORD
  5
61
100
AcDbSymbolTableRecord
100
AcDbBlockTableRecord
  2
ESC
340
0
  0
BLOCK_RECORD
  5
62
100
AcDbSymbolTableRecord
100
AcDbBlockTableRecord
  2
Battery
340
0
  0
BLOCK_RECORD
  5
63
100
AcDbSymbolTableRecord
100
AcDbBlockTableRecord
  2
ArduinoMega-0
340
0
  0
BLOCK_RECORD
  5
64
100
AcDbSymbolTableRecord
100
AcDbBlockTableRecord
  2
MaxSonarEZ24-0
340
0
  0
BLOCK_RECORD
  5
65
100
AcDbSymbolTableRecord
100
AcDbBlockTableRecord
  2
SensorBoard
340
0
  0
BLOCK_RECORD
  5
66
100
AcDbSymbolTableRecord
100
AcDbBlockTableRecord
  2
LED_Board
340
0
  0
ENDTAB
  0
ENDSEC
  0
SECTION
  2
BLOCKS
  0
BLOCK
  5
20
100
AcDbEntity
  8
0
100
AcDbBlockBegin
  2
*Model_Space
 70
0
 10
0.0
 20
0.0
 30
0.0
  3
*Model_Space
  1

  0
ENDBLK
  5
21
100
AcDbEntity
  8
0
100
AcDbBlockEnd
  0
BLOCK
  5
1C
100
AcDbEntity
 67
1
  8
0
100
AcDbBlockBegin
  2
*Paper_Space
 70
0
 10
0.0
 20
0.0
 30
0.0
  3
*Paper_Space
  1

  0
ENDBLK
  5
1D
100
AcDbEntity
 67
1
  8
0
100
AcDbBlockEnd
  0
BLOCK
  5
24
100
AcDbEntity
  8
0
100
AcDbBlockBegin
  2
*Paper_Space0
 70
0
 10
0.0
 20
0.0
 30
0.0
  3
*Paper_Space0
  1

  0
ENDBLK
  5
25
100
AcDbEntity
  8
0
100
AcDbBlockEnd
  0
BLOCK
  5
67
100
AcDbEntity
  8
0
100
AcDbBlockBegin
  2
Motor
 70
0
 10
0.0
 20
0.0
 30
0.0
  3
Motor
  1

  0
CIRCLE
  5
68
100
AcDbEntity
100
AcDbCircle
  8
MotorBody
 62
256
370
-1
  6
ByLayer
 10
0.0
 20
0.0
 30
0.0
 40
16.0
  0
CIRCLE
  5
69
100
AcDbEntity
100
AcDbCircle
  8
MotorMountingHoles
 62
256
370
-1
  6
ByLayer
 10
-14.8492424049174971
 20
14.8492424049175042
 30
0.0
 40
1.5
  0
CIRCLE
  5
6A
100
AcDbEntity
100
AcDbCircle
  8
MotorMountingHoles
 62
256
370
-1
  6
ByLayer
 10
14.8492424049174989
 20
14.8492424049175042
 30
0.0
 40
1.5
  0
CIRCLE
  5
6B
100
AcDbEntity
100
AcDbCircle
  8
MotorMountingHoles
 62
256
370
-1
  6
ByLayer
 10
14.8492424049174936
 20
-14.8492424049175042
 30
0.0
 40
1.5
  0
CIRCLE
  5
6C
100
AcDbEntity
100
AcDbCircle
  8
MotorMountingHoles
 62
256
370
-1
  6
ByLayer
 10
-14.8492424049175007
 20
-14.8492424049175042
 30
0.0
 40
1.5
  0
ENDBLK
  5
6D
100
AcDbEntity
  8
0
100
AcDbBlockEnd
  0
BLOCK
  5
6E
100
AcDbEntity
  8
0
100
AcDbBlockBegin
  2
ESC
 70
0
 10
0.0
 20
0.0
 30
0.0
  3
ESC
  1

  0
LINE
  5
6F
100
AcDbEntity
100
AcDbLine
  8
ESC_Position
 62
256
370
-1
  6
ByLayer
 10
10.0
 20
-30.0
 30
0.0
 11
31.2132034355964265
 21
-8.786796564403577
 31
0.0
  0
LINE
  5
70
100
AcDbEntity
100
AcDbLine
  8
ESC_Position
 62
256
370
-1
  6
ByLayer
 10
10.0
 20
-30.0
 30
0.0
 11
-32.4264068711928459
 21
12.426406871192853
 31
0.0
  0
LINE
  5
71
100
AcDbEntity
100
AcDbLine
  8
ESC_Position
 62
256
370
-1
  6
ByLayer
 10
31.2132034355964265
 20
-8.786796564403577
 30
0.0
 11
-11.2132034355964159
 21
33.6396103067892795
 31
0.0
  0
LINE
  5
72
100
AcDbEntity
100
AcDbLine
  8
ESC_Position
 62
256
370
-1
  6
ByLayer
 10
-32.4264068711928459
 20
12.426406871192853
 30
0.0
 11
-11.2132034355964159
 21
33.6396103067892795
 31
0.0
  0
ENDBLK
  5
73
100
AcDbEntity
  8
0
100
AcDbBlockEnd
  0
BLOCK
  5
74
100
AcDbEntity
  8
0
100
AcDbBlockBegin
  2
Battery
 70
0
 10
0.0
 20
0.0
 30
0.0
  3
Battery
  1

  0
LINE
  5
75
100
AcDbEntity
100
AcDbLine
  8
BatteryPosition
 62
256
370
-1
  6
ByLayer
 10
-25.0
 20
-77.0
 30
0.0
 11
25.0
 21
-77.0
 31
0.0
  0
LINE
  5
76
100
AcDbEntity
100
AcDbLine
  8
BatteryPosition
 62
256
370
-1
  6
ByLayer
 10
25.0
 20
-77.0
 30
0.0
 11
25.0
 21
77.0
 31
0.0
  0
LINE
  5
77
100
AcDbEntity
100
AcDbLine
  8
BatteryPosition
 62
256
370
-1
  6
ByLayer
 10
-25.0
 20
-77.0
 30
0.0
 11
-25.0
 21
77.0
 31
0.0
  0
LINE
  5
78
100
AcDbEntity
100
AcDbLine
  8
BatteryPosition
 62
256
370
-1
  6
ByLayer
 10
-25.0
 20
77.0
 30
0.0
 11
25.0
 21
77.0
 31
0.0
  0
ENDBLK
  5
79
100
AcDbEntity
  8
0
100
AcDbBlockEnd
  0
BLOCK
  5
7A
100
AcDbEntity
  8
0
100
AcDbBlockBegin
  2
ArduinoMega-0
 70
0
 10
0.0
 20
0.0
 30
0.0
  3
ArduinoMega-0
  1

  0
LINE
  5
7B
100
AcDbEntity
100
AcDbLine
  8
ArduinoMega_Board
 62
256
370
-1
  6
ByLayer
 10
0.0000000000000142
 20
53.3000000000000114
 30
0.0
 11
0.0
 21
0.0
 31
0.0
  0
POINT
  5
7C
100
AcDbEntity
100
AcDbPoint
  8
0
 62
256
370
-1
  6
ByLayer
 10
0.0
 20
0.0
 30
0.0
  0
LINE
  5
7D
100
AcDbEntity
100
AcDbLine
  8
ArduinoMega_Ports
 62
256
370
-1
  6
ByLayer
 10
-6.3499999999999943
 20
44.1000000000000227
 30
0.0
 11
-6.3499999999999943
 21
32.6700000000000159
 31
0.0
  0
LINE
  5
7E
100
AcDbEntity
100
AcDbLine
  8
ArduinoMega_Ports
 62
256
370
-1
  6
ByLayer
 10
-6.3499999999999943
 20
32.6700000000000159
 30
0.0
 11
9.5200000000000102
 21
32.6700000000000159
 31
0.0
  0
LINE
  5
7F
100
AcDbEntity
100
AcDbLine
  8
ArduinoMega_Ports
 62
256
370
-1
  6
ByLayer
 10
-6.3499999999999943
 20
44.1000000000000227
 30
0.0
 11
9.5200000000000102
 21
44.1000000000000227
 31
0.0
  0
LINE
  5
80
100
AcDbEntity
100
AcDbLine
  8
ArduinoMega_Ports
 62
256
370
-1
  6
ByLayer
 10
9.5200000000000102
 20
44.1000000000000227
 30
0.0
 11
9.5200000000000102
 21
32.6700000000000159
 31
0.0
  0
LINE
  5
81
100
AcDbEntity
100
AcDbLine
  8
ArduinoMega_Ports
 62
256
370
-1
  6
ByLayer
 10
-1.9000000000000057
 20
3.1699999999999875
 30
0.0
 11
-1.9000000000000057
 21
12.0600000000000023
 31
0.0
  0
LINE
  5
82
100
AcDbEntity
100
AcDbLine
  8
ArduinoMega_Ports
 62
256
370
-1
  6
ByLayer
 10
-1.9000000000000057
 20
12.0600000000000023
 30
0.0
 11
11.4399999999999977
 21
12.0600000000000023
 31
0.0
  0
LINE
  5
83
100
AcDbEntity
100
AcDbLine
  8
ArduinoMega_Ports
 62
256
370
-1
  6
ByLayer
 10
-1.9000000000000057
 20
3.1699999999999875
 30
0.0
 11
11.4399999999999977
 21
3.1699999999999875
 31
0.0
  0
LINE
  5
84
100
AcDbEntity
100
AcDbLine
  8
ArduinoMega_Ports
 62
256
370
-1
  6
ByLayer
 10
11.4399999999999977
 20
12.0600000000000023
 30
0.0
 11
11.4399999999999977
 21
3.1699999999999875
 31
0.0
  0
LINE
  5
85
100
AcDbEntity
100
AcDbLine
  8
ArduinoMega_Board
 62
256
370
-1
  6
ByLayer
 10
0.0
 20
0.0
 30
0.0
 11
99.0600000000000023
 21
0.0
 31
0.0
  0
LINE
  5
86
100
AcDbEntity
100
AcDbLine
  8
ArduinoMega_Board
 62
256
370
-1
  6
ByLayer
 10
99.0600000000000023
 20
0.0
 30
0.0
 11
99.0600000000000023
 21
1.2700000000000102
 31
0.0
  0
LINE
  5
87
100
AcDbEntity
100
AcDbLine
  8
ArduinoMega_Board
 62
256
370
-1
  6
ByLayer
 10
101.5999999999999943
 20
3.8100000000000023
 30
0.0
 11
99.0600000000000023
 21
1.2700000000000102
 31
0.0
  0
LINE
  5
88
100
AcDbEntity
100
AcDbLine
  8
ArduinoMega_Board
 62
256
370
-1
  6
ByLayer
 10
101.5999999999999943
 20
3.8100000000000023
 30
0.0
 11
101.5999999999999943
 21
38.1000000000000227
 31
0.0
  0
LINE
  5
89
100
AcDbEntity
100
AcDbLine
  8
ArduinoMega_Board
 62
256
370
-1
  6
ByLayer
 10
101.5999999999999943
 20
38.1000000000000227
 30
0.0
 11
99.0600000000000023
 21
40.6399999999999864
 31
0.0
  0
LINE
  5
8A
100
AcDbEntity
100
AcDbLine
  8
ArduinoMega_Board
 62
256
370
-1
  6
ByLayer
 10
99.0600000000000023
 20
40.6399999999999864
 30
0.0
 11
99.0600000000000023
 21
50.8000000000000114
 31
0.0
  0
LINE
  5
8B
100
AcDbEntity
100
AcDbLine
  8
ArduinoMega_Board
 62
256
370
-1
  6
ByLayer
 10
0.0000000000000142
 20
53.3000000000000114
 30
0.0
 11
96.5200000000000102
 21
53.3000000000000114
 31
0.0
  0
LINE
  5
8C
100
AcDbEntity
100
AcDbLine
  8
ArduinoMega_Board
 62
256
370
-1
  6
ByLayer
 10
96.5200000000000102
 20
53.3000000000000114
 30
0.0
 11
99.0600000000000023
 21
50.8000000000000114
 31
0.0
  0
CIRCLE
  5
8D
100
AcDbEntity
100
AcDbCircle
  8
ArduinoMega_Pins
 62
256
370
-1
  6
ByLayer
 10
27.9399999999999977
 20
2.539999999999992
 30
0.0
 40
0.635
  0
CIRCLE
  5
8E
100
AcDbEntity
100
AcDbCircle
  8
ArduinoMega_Pins
 62
256
370
-1
  6
ByLayer
 10
30.4799999999999898
 20
2.539999999999992
 30
0.0
 40
0.635
  0
CIRCLE
  5
8F
100
AcDbEntity
100
AcDbCircle
  8
ArduinoMega_Pins
 62
256
370
-1
  6
ByLayer
 10
33.0199999999999818
 20
2.539999999999992
 30
0.0
 40
0.635
  0
CIRCLE
  5
90
100
AcDbEntity
100
AcDbCircle
  8
ArduinoMega_Pins
 62
256
370
-1
  6
ByLayer
 10
35.5600000000000023
 20
2.539999999999992
 30
0.0
 40
0.635
  0
CIRCLE
  5
91
100
AcDbEntity
100
AcDbCircle
  8
ArduinoMega_Pins
 62
256
370
-1
  6
ByLayer
 10
38.0999999999999943
 20
2.539999999999992
 30
0.0
 40
0.635
  0
CIRCLE
  5
92
100
AcDbEntity
100
AcDbCircle
  8
ArduinoMega_Pins
 62
256
370
-1
  6
ByLayer
 10
40.6399999999999864
 20
2.539999999999992
 30
0.0
 40
0.635
  0
CIRCLE
  5
93
100
AcDbEntity
100
AcDbCircle
  8
ArduinoMega_Pins
 62
256
370
-1
  6
ByLayer
 10
43.1800000000000068
 20
2.539999999999992
 30
0.0
 40
0.635
  0
CIRCLE
  5
94
100
AcDbEntity
100
AcDbCircle
  8
ArduinoMega_Pins
 62
256
370
-1
  6
ByLayer
 10
45.7199999999999989
 20
2.539999999999992
 30
0.0
 40
0.635
  0
CIRCLE
  5
95
100
AcDbEntity
100
AcDbCircle
  8
ArduinoMega_Pins
 62
256
370
-1
  6
ByLayer
 10
50.8000000000000114
 20
2.539999999999992
 30
0.0
 40
0.635
  0
CIRCLE
  5
96
100
AcDbEntity
100
AcDbCircle
  8
ArduinoMega_Pins
 62
256
370
-1
  6
ByLayer
 10
53.339999999999975
 20
2.539999999999992
 30
0.0
 40
0.635
  0
CIRCLE
  5
97
100
AcDbEntity
100
AcDbCircle
  8
ArduinoMega_Pins
 62
256
370
-1
  6
ByLayer
 10
55.8799999999999955
 20
2.539999999999992
 30
0.0
 40
0.635
  0
CIRCLE
  5
98
100
AcDbEntity
100
AcDbCircle
  8
ArduinoMega_Pins
 62
256
370
-1
  6
ByLayer
 10
58.4199999999999875
 20
2.539999999999992
 30
0.0
 40
0.635
  0
CIRCLE
  5
99
100
AcDbEntity
100
AcDbCircle
  8
ArduinoMega_Pins
 62
256
370
-1
  6
ByLayer
 10
60.9599999999999795
 20
2.539999999999992
 30
0.0
 40
0.635
  0
CIRCLE
  5
9A
100
AcDbEntity
100
AcDbCircle
  8
ArduinoMega_Pins
 62
256
370
-1
  6
ByLayer
 10
63.5
 20
2.539999999999992
 30
0.0
 40
0.635
  0
CIRCLE
  5
9B
100
AcDbEntity
100
AcDbCircle
  8
ArduinoMega_Pins
 62
256
370
-1
  6
ByLayer
 10
66.039999999999992
 20
2.539999999999992
 30
0.0
 40
0.635
  0
CIRCLE
  5
9C
100
AcDbEntity
100
AcDbCircle
  8
ArduinoMega_Pins
 62
256
370
-1
  6
ByLayer
 10
68.5799999999999841
 20
2.539999999999992
 30
0.0
 40
0.635
  0
CIRCLE
  5
9D
100
AcDbEntity
100
AcDbCircle
  8
ArduinoMega_Pins
 62
256
370
-1
  6
ByLayer
 10
73.6599999999999682
 20
2.539999999999992
 30
0.0
 40
0.635
  0
CIRCLE
  5
9E
100
AcDbEntity
100
AcDbCircle
  8
ArduinoMega_Pins
 62
256
370
-1
  6
ByLayer
 10
76.1999999999999886
 20
2.539999999999992
 30
0.0
 40
0.635
  0
CIRCLE
  5
9F
100
AcDbEntity
100
AcDbCircle
  8
ArduinoMega_Pins
 62
256
370
-1
  6
ByLayer
 10
78.7399999999999807
 20
2.539999999999992
 30
0.0
 40
0.635
  0
CIRCLE
  5
A0
100
AcDbEntity
100
AcDbCircle
  8
ArduinoMega_Pins
 62
256
370
-1
  6
ByLayer
 10
81.2799999999999727
 20
2.539999999999992
 30
0.0
 40
0.635
  0
CIRCLE
  5
A1
100
AcDbEntity
100
AcDbCircle
  8
ArduinoMega_Pins
 62
256
370
-1
  6
ByLayer
 10
83.8199999999999932
 20
2.539999999999992
 30
0.0
 40
0.635
  0
CIRCLE
  5
A2
100
AcDbEntity
100
AcDbCircle
  8
ArduinoMega_Pins
 62
256
370
-1
  6
ByLayer
 10
86.3599999999999852
 20
2.539999999999992
 30
0.0
 40
0.635
  0
CIRCLE
  5
A3
100
AcDbEntity
100
AcDbCircle
  8
ArduinoMega_Pins
 62
256
370
-1
  6
ByLayer
 10
88.8999999999999773
 20
2.539999999999992
 30
0.0
 40
0.635
  0
CIRCLE
  5
A4
100
AcDbEntity
100
AcDbCircle
  8
ArduinoMega_Pins
 62
256
370
-1
  6
ByLayer
 10
91.4399999999999977
 20
2.539999999999992
 30
0.0
 40
0.635
  0
CIRCLE
  5
A5
100
AcDbEntity
100
AcDbCircle
  8
ArduinoMega_Pins
 62
256
370
-1
  6
ByLayer
 10
93.9800000000000182
 20
7.6200000000000045
 30
0.0
 40
0.635
  0
CIRCLE
  5
A6
100
AcDbEntity
100
AcDbCircle
  8
ArduinoMega_Pins
 62
256
370
-1
  6
ByLayer
 10
96.5200000000000102
 20
7.6200000000000045
 30
0.0
 40
0.635
  0
CIRCLE
  5
A7
100
AcDbEntity
100
AcDbCircle
  8
ArduinoMega_Pins
 62
256
370
-1
  6
ByLayer
 10
93.9800000000000182
 20
10.1599999999999966
 30
0.0
 40
0.635
  0
CIRCLE
  5
A8
100
AcDbEntity
100
AcDbCircle
  8
ArduinoMega_Pins
 62
256
370
-1
  6
ByLayer
 10
96.5200000000000102
 20
10.1599999999999966
 30
0.0
 40
0.635
  0
CIRCLE
  5
A9
100
AcDbEntity
100
AcDbCircle
  8
ArduinoMega_Pins
 62
256
370
-1
  6
ByLayer
 10
93.9800000000000182
 20
12.6999999999999886
 30
0.0
 40
0.635
  0
CIRCLE
  5
AA
100
AcDbEntity
100
AcDbCircle
  8
ArduinoMega_Pins
 62
256
370
-1
  6
ByLayer
 10
96.5200000000000102
 20
12.6999999999999886
 30
0.0
 40
0.635
  0
CIRCLE
  5
AB
100
AcDbEntity
100
AcDbCircle
  8
ArduinoMega_Pins
 62
256
370
-1
  6
ByLayer
 10
93.9800000000000182
 20
15.2400000000000091
 30
0.0
 40
0.635
  0
CIRCLE
  5
AC
100
AcDbEntity
100
AcDbCircle
  8
ArduinoMega_Pins
 62
256
370
-1
  6
ByLayer
 10
96.5200000000000102
 20
15.2400000000000091
 30
0.0
 40
0.635
  0
CIRCLE
  5
AD
100
AcDbEntity
100
AcDbCircle
  8
ArduinoMega_Pins
 62
256
370
-1
  6
ByLayer
 10
93.9800000000000182
 20
17.7800000000000011
 30
0.0
 40
0.635
  0
CIRCLE
  5
AE
100
AcDbEntity
100
AcDbCircle
  8
ArduinoMega_Pins
 62
256
370
-1
  6
ByLayer
 10
96.5200000000000102
 20
17.7800000000000011
 30
0.0
 40
0.635
  0
CIRCLE
  5
AF
100
AcDbEntity
100
AcDbCircle
  8
ArduinoMega_Pins
 62
256
370
-1
  6
ByLayer
 10
93.9800000000000182
 20
20.3199999999999932
 30
0.0
 40
0.635
  0
CIRCLE
  5
B0
100
AcDbEntity
100
AcDbCircle
  8
ArduinoMega_Pins
 62
256
370
-1
  6
ByLayer
 10
96.5200000000000102
 20
20.3199999999999932
 30
0.0
 40
0.635
  0
CIRCLE
  5
B1
100
AcDbEntity
100
AcDbCircle
  8
ArduinoMega_Pins
 62
256
370
-1
  6
ByLayer
 10
93.9800000000000182
 20
22.8600000000000136
 30
0.0
 40
0.635
  0
CIRCLE
  5
B2
100
AcDbEntity
100
AcDbCircle
  8
ArduinoMega_Pins
 62
256
370
-1
  6
ByLayer
 10
96.5200000000000102
 20
22.8600000000000136
 30
0.0
 40
0.635
  0
CIRCLE
  5
B3
100
AcDbEntity
100
AcDbCircle
  8
ArduinoMega_Pins
 62
256
370
-1
  6
ByLayer
 10
93.9800000000000182
 20
25.4000000000000057
 30
0.0
 40
0.635
  0
CIRCLE
  5
B4
100
AcDbEntity
100
AcDbCircle
  8
ArduinoMega_Pins
 62
256
370
-1
  6
ByLayer
 10
96.5200000000000102
 20
25.4000000000000057
 30
0.0
 40
0.635
  0
CIRCLE
  5
B5
100
AcDbEntity
100
AcDbCircle
  8
ArduinoMega_Pins
 62
256
370
-1
  6
ByLayer
 10
93.9800000000000182
 20
27.9399999999999977
 30
0.0
 40
0.635
  0
CIRCLE
  5
B6
100
AcDbEntity
100
AcDbCircle
  8
ArduinoMega_Pins
 62
256
370
-1
  6
ByLayer
 10
96.5200000000000102
 20
27.9399999999999977
 30
0.0
 40
0.635
  0
CIRCLE
  5
B7
100
AcDbEntity
100
AcDbCircle
  8
ArduinoMega_Pins
 62
256
370
-1
  6
ByLayer
 10
93.9800000000000182
 20
30.4799999999999898
 30
0.0
 40
0.635
  0
CIRCLE
  5
B8
100
AcDbEntity
100
AcDbCircle
  8
ArduinoMega_Pins
 62
256
370
-1
  6
ByLayer
 10
96.5200000000000102
 20
30.4799999999999898
 30
0.0
 40
0.635
  0
CIRCLE
  5
B9
100
AcDbEntity
100
AcDbCircle
  8
ArduinoMega_Pins
 62
256
370
-1
  6
ByLayer
 10
93.9800000000000182
 20
33.0199999999999818
 30
0.0
 40
0.635
  0
CIRCLE
  5
BA
100
AcDbEntity
100
AcDbCircle
  8
ArduinoMega_Pins
 62
256
370
-1
  6
ByLayer
 10
96.5200000000000102
 20
33.0199999999999818
 30
0.0
 40
0.635
  0
CIRCLE
  5
BB
100
AcDbEntity
100
AcDbCircle
  8
ArduinoMega_Pins
 62
256
370
-1
  6
ByLayer
 10
93.9800000000000182
 20
35.5600000000000023
 30
0.0
 40
0.635
  0
CIRCLE
  5
BC
100
AcDbEntity
100
AcDbCircle
  8
ArduinoMega_Pins
 62
256
370
-1
  6
ByLayer
 10
96.5200000000000102
 20
35.5600000000000023
 30
0.0
 40
0.635
  0
CIRCLE
  5
BD
100
AcDbEntity
100
AcDbCircle
  8
ArduinoMega_Pins
 62
256
370
-1
  6
ByLayer
 10
93.9800000000000182
 20
38.0999999999999943
 30
0.0
 40
0.635
  0
CIRCLE
  5
BE
100
AcDbEntity
100
AcDbCircle
  8
ArduinoMega_Pins
 62
256
370
-1
  6
ByLayer
 10
96.5200000000000102
 20
38.0999999999999943
 30
0.0
 40
0.635
  0
CIRCLE
  5
BF
100
AcDbEntity
100
AcDbCircle
  8
ArduinoMega_Pins
 62
256
370
-1
  6
ByLayer
 10
93.9800000000000182
 20
40.6399999999999864
 30
0.0
 40
0.635
  0
CIRCLE
  5
C0
100
AcDbEntity
100
AcDbCircle
  8
ArduinoMega_Pins
 62
256
370
-1
  6
ByLayer
 10
96.5200000000000102
 20
40.6399999999999864
 30
0.0
 40
0.635
  0
CIRCLE
  5
C1
100
AcDbEntity
100
AcDbCircle
  8
ArduinoMega_Pins
 62
256
370
-1
  6
ByLayer
 10
93.9800000000000182
 20
43.1800000000000068
 30
0.0
 40
0.635
  0
CIRCLE
  5
C2
100
AcDbEntity
100
AcDbCircle
  8
ArduinoMega_Pins
 62
256
370
-1
  6
ByLayer
 10
96.5200000000000102
 20
43.1800000000000068
 30
0.0
 40
0.635
  0
CIRCLE
  5
C3
100
AcDbEntity
100
AcDbCircle
  8
ArduinoMega_Pins
 62
256
370
-1
  6
ByLayer
 10
93.9800000000000182
 20
45.7199999999999989
 30
0.0
 40
0.635
  0
CIRCLE
  5
C4
100
AcDbEntity
100
AcDbCircle
  8
ArduinoMega_Pins
 62
256
370
-1
  6
ByLayer
 10
96.5200000000000102
 20
45.7199999999999989
 30
0.0
 40
0.635
  0
CIRCLE
  5
C5
100
AcDbEntity
100
AcDbCircle
  8
ArduinoMega_Pins
 62
256
370
-1
  6
ByLayer
 10
93.9800000000000182
 20
48.2599999999999909
 30
0.0
 40
0.635
  0
CIRCLE
  5
C6
100
AcDbEntity
100
AcDbCircle
  8
ArduinoMega_Pins
 62
256
370
-1
  6
ByLayer
 10
96.5200000000000102
 20
48.2599999999999909
 30
0.0
 40
0.635
  0
CIRCLE
  5
C7
100
AcDbEntity
100
AcDbCircle
  8
ArduinoMega_Pins
 62
256
370
-1
  6
ByLayer
 10
93.9800000000000182
 20
50.8000000000000114
 30
0.0
 40
0.635
  0
CIRCLE
  5
C8
100
AcDbEntity
100
AcDbCircle
  8
ArduinoMega_Pins
 62
256
370
-1
  6
ByLayer
 10
96.5200000000000102
 20
50.8000000000000114
 30
0.0
 40
0.635
  0
CIRCLE
  5
C9
100
AcDbEntity
100
AcDbCircle
  8
ArduinoMega_Pins
 62
256
370
-1
  6
ByLayer
 10
86.3600000000000136
 20
50.8000000000000114
 30
0.0
 40
0.635
  0
CIRCLE
  5
CA
100
AcDbEntity
100
AcDbCircle
  8
ArduinoMega_Pins
 62
256
370
-1
  6
ByLayer
 10
83.8199999999999932
 20
50.8000000000000114
 30
0.0
 40
0.635
  0
CIRCLE
  5
CB
100
AcDbEntity
100
AcDbCircle
  8
ArduinoMega_Pins
 62
256
370
-1
  6
ByLayer
 10
81.2799999999999727
 20
50.8000000000000114
 30
0.0
 40
0.635
  0
CIRCLE
  5
CC
100
AcDbEntity
100
AcDbCircle
  8
ArduinoMega_Pins
 62
256
370
-1
  6
ByLayer
 10
78.7399999999999807
 20
50.8000000000000114
 30
0.0
 40
0.635
  0
CIRCLE
  5
CD
100
AcDbEntity
100
AcDbCircle
  8
ArduinoMega_Pins
 62
256
370
-1
  6
ByLayer
 10
76.1999999999999886
 20
50.8000000000000114
 30
0.0
 40
0.635
  0
CIRCLE
  5
CE
100
AcDbEntity
100
AcDbCircle
  8
ArduinoMega_Pins
 62
256
370
-1
  6
ByLayer
 10
73.6599999999999682
 20
50.8000000000000114
 30
0.0
 40
0.635
  0
CIRCLE
  5
CF
100
AcDbEntity
100
AcDbCircle
  8
ArduinoMega_Pins
 62
256
370
-1
  6
ByLayer
 10
71.1199999999999477
 20
50.8000000000000114
 30
0.0
 40
0.635
  0
CIRCLE
  5
D0
100
AcDbEntity
100
AcDbCircle
  8
ArduinoMega_Pins
 62
256
370
-1
  6
ByLayer
 10
68.5799999999999557
 20
50.8000000000000114
 30
0.0
 40
0.635
  0
CIRCLE
  5
D1
100
AcDbEntity
100
AcDbCircle
  8
ArduinoMega_Pins
 62
256
370
-1
  6
ByLayer
 10
63.4999999999999432
 20
50.8000000000000114
 30
0.0
 40
0.635
  0
CIRCLE
  5
D2
100
AcDbEntity
100
AcDbCircle
  8
ArduinoMega_Pins
 62
256
370
-1
  6
ByLayer
 10
60.9599999999999227
 20
50.8000000000000114
 30
0.0
 40
0.635
  0
CIRCLE
  5
D3
100
AcDbEntity
100
AcDbCircle
  8
ArduinoMega_Pins
 62
256
370
-1
  6
ByLayer
 10
58.4199999999999307
 20
50.8000000000000114
 30
0.0
 40
0.635
  0
CIRCLE
  5
D4
100
AcDbEntity
100
AcDbCircle
  8
ArduinoMega_Pins
 62
256
370
-1
  6
ByLayer
 10
55.8799999999999386
 20
50.8000000000000114
 30
0.0
 40
0.635
  0
CIRCLE
  5
D5
100
AcDbEntity
100
AcDbCircle
  8
ArduinoMega_Pins
 62
256
370
-1
  6
ByLayer
 10
53.3399999999999181
 20
50.8000000000000114
 30
0.0
 40
0.635
  0
CIRCLE
  5
D6
100
AcDbEntity
100
AcDbCircle
  8
ArduinoMega_Pins
 62
256
370
-1
  6
ByLayer
 10
50.7999999999998977
 20
50.8000000000000114
 30
0.0
 40
0.635
  0
CIRCLE
  5
D7
100
AcDbEntity
100
AcDbCircle
  8
ArduinoMega_Pins
 62
256
370
-1
  6
ByLayer
 10
48.2599999999999056
 20
50.8000000000000114
 30
0.0
 40
0.635
  0
CIRCLE
  5
D8
100
AcDbEntity
100
AcDbCircle
  8
ArduinoMega_Pins
 62
256
370
-1
  6
ByLayer
 10
45.7199999999999136
 20
50.8000000000000114
 30
0.0
 40
0.635
  0
CIRCLE
  5
D9
100
AcDbEntity
100
AcDbCircle
  8
ArduinoMega_Pins
 62
256
370
-1
  6
ByLayer
 10
41.6599999999999113
 20
50.8000000000000114
 30
0.0
 40
0.635
  0
CIRCLE
  5
DA
100
AcDbEntity
100
AcDbCircle
  8
ArduinoMega_Pins
 62
256
370
-1
  6
ByLayer
 10
39.1199999999998909
 20
50.8000000000000114
 30
0.0
 40
0.635
  0
CIRCLE
  5
DB
100
AcDbEntity
100
AcDbCircle
  8
ArduinoMega_Pins
 62
256
370
-1
  6
ByLayer
 10
36.5799999999998988
 20
50.8000000000000114
 30
0.0
 40
0.635
  0
CIRCLE
  5
DC
100
AcDbEntity
100
AcDbCircle
  8
ArduinoMega_Pins
 62
256
370
-1
  6
ByLayer
 10
34.0399999999999068
 20
50.8000000000000114
 30
0.0
 40
0.635
  0
CIRCLE
  5
DD
100
AcDbEntity
100
AcDbCircle
  8
ArduinoMega_Pins
 62
256
370
-1
  6
ByLayer
 10
31.4999999999998863
 20
50.8000000000000114
 30
0.0
 40
0.635
  0
CIRCLE
  5
DE
100
AcDbEntity
100
AcDbCircle
  8
ArduinoMega_Pins
 62
256
370
-1
  6
ByLayer
 10
28.9599999999998943
 20
50.8000000000000114
 30
0.0
 40
0.635
  0
CIRCLE
  5
DF
100
AcDbEntity
100
AcDbCircle
  8
ArduinoMega_Pins
 62
256
370
-1
  6
ByLayer
 10
26.4199999999999022
 20
50.8000000000000114
 30
0.0
 40
0.635
  0
CIRCLE
  5
E0
100
AcDbEntity
100
AcDbCircle
  8
ArduinoMega_Pins
 62
256
370
-1
  6
ByLayer
 10
23.8799999999999102
 20
50.8000000000000114
 30
0.0
 40
0.635
  0
CIRCLE
  5
E1
100
AcDbEntity
100
AcDbCircle
  8
ArduinoMega_Pins
 62
256
370
-1
  6
ByLayer
 10
21.3399999999999039
 20
50.8000000000000114
 30
0.0
 40
0.635
  0
CIRCLE
  5
E2
100
AcDbEntity
100
AcDbCircle
  8
ArduinoMega_Pins
 62
256
370
-1
  6
ByLayer
 10
18.7999999999998977
 20
50.8000000000000114
 30
0.0
 40
0.635
  0
CIRCLE
  5
E3
100
AcDbEntity
100
AcDbCircle
  8
ArduinoMega_Pins
 62
256
370
-1
  6
ByLayer
 10
63.6299999999999955
 20
30.4799999999999898
 30
0.0
 40
0.635
  0
CIRCLE
  5
E4
100
AcDbEntity
100
AcDbCircle
  8
ArduinoMega_Pins
 62
256
370
-1
  6
ByLayer
 10
66.1700000000000159
 20
30.4799999999999898
 30
0.0
 40
0.635
  0
CIRCLE
  5
E5
100
AcDbEntity
100
AcDbCircle
  8
ArduinoMega_Pins
 62
256
370
-1
  6
ByLayer
 10
63.6299999999999955
 20
27.9399999999999977
 30
0.0
 40
0.635
  0
CIRCLE
  5
E6
100
AcDbEntity
100
AcDbCircle
  8
ArduinoMega_Pins
 62
256
370
-1
  6
ByLayer
 10
66.1700000000000159
 20
27.9399999999999977
 30
0.0
 40
0.635
  0
CIRCLE
  5
E7
100
AcDbEntity
100
AcDbCircle
  8
ArduinoMega_Pins
 62
256
370
-1
  6
ByLayer
 10
63.6299999999999955
 20
25.4000000000000057
 30
0.0
 40
0.635
  0
CIRCLE
  5
E8
100
AcDbEntity
100
AcDbCircle
  8
ArduinoMega_Pins
 62
256
370
-1
  6
ByLayer
 10
66.1700000000000159
 20
25.4000000000000057
 30
0.0
 40
0.635
  0
CIRCLE
  5
E9
100
AcDbEntity
100
AcDbCircle
  8
ArduinoMega_MountingHoles
 62
256
370
-1
  6
ByLayer
 10
13.9699999999999989
 20
2.539999999999992
 30
0.0
 40
2.0
  0
CIRCLE
  5
EA
100
AcDbEntity
100
AcDbCircle
  8
ArduinoMega_MountingHoles
 62
256
370
-1
  6
ByLayer
 10
66.0400000000000205
 20
7.6200000000000045
 30
0.0
 40
2.0
  0
CIRCLE
  5
EB
100
AcDbEntity
100
AcDbCircle
  8
ArduinoMega_MountingHoles
 62
256
370
-1
  6
ByLayer
 10
66.0400000000000205
 20
35.5600000000000023
 30
0.0
 40
2.0
  0
CIRCLE
  5
EC
100
AcDbEntity
100
AcDbCircle
  8
ArduinoMega_MountingHoles
 62
256
370
-1
  6
ByLayer
 10
96.5199999999999818
 20
2.539999999999992
 30
0.0
 40
2.0
  0
CIRCLE
  5
ED
100
AcDbEntity
100
AcDbCircle
  8
ArduinoMega_MountingHoles
 62
256
370
-1
  6
ByLayer
 10
90.1700000000000159
 20
50.8000000000000114
 30
0.0
 40
2.0
  0
CIRCLE
  5
EE
100
AcDbEntity
100
AcDbCircle
  8
ArduinoMega_MountingHoles
 62
256
370
-1
  6
ByLayer
 10
15.2400000000000091
 20
50.8000000000000114
 30
0.0
 40
2.0
  0
ENDBLK
  5
EF
100
AcDbEntity
  8
0
100
AcDbBlockEnd
  0
BLOCK
  5
F0
100
AcDbEntity
  8
0
100
AcDbBlockBegin
  2
MaxSonarEZ24-0
 70
0
 10
0.0
 20
0.0
 30
0.0
  3
MaxSonarEZ24-0
  1

  0
LINE
  5
F1
100
AcDbEntity
100
AcDbLine
  8
MaxSonar-EZ24_Board
 62
256
370
-1
  6
ByLayer
 10
0.0
 20
0.0
 30
0.0
 11
20.0799999999999841
 21
0.0
 31
0.0
  0
LINE
  5
F2
100
AcDbEntity
100
AcDbLine
  8
MaxSonar-EZ24_Board
 62
256
370
-1
  6
ByLayer
 10
0.0
 20
0.0
 30
0.0
 11
0.0
 21
22.1599999999999966
 31
0.0
  0
LINE
  5
F3
100
AcDbEntity
100
AcDbLine
  8
MaxSonar-EZ24_Board
 62
256
370
-1
  6
ByLayer
 10
20.0799999999999841
 20
0.0
 30
0.0
 11
20.0799999999999841
 21
22.1599999999999966
 31
0.0
  0
LINE
  5
F4
100
AcDbEntity
100
AcDbLine
  8
MaxSonar-EZ24_Board
 62
256
370
-1
  6
ByLayer
 10
0.0
 20
22.1599999999999966
 30
0.0
 11
20.0799999999999841
 21
22.1599999999999966
 31
0.0
  0
CIRCLE
  5
F5
100
AcDbEntity
100
AcDbCircle
  8
MaxSonar-EZ24_Pins
 62
256
370
-1
  6
ByLayer
 10
1.2699999999999818
 20
20.8899999999999864
 30
0.0
 40
0.635
  0
CIRCLE
  5
F6
100
AcDbEntity
100
AcDbCircle
  8
MaxSonar-EZ24_Pins
 62
256
370
-1
  6
ByLayer
 10
1.2699999999999818
 20
18.3499999999999943
 30
0.0
 40
0.635
  0
CIRCLE
  5
F7
100
AcDbEntity
100
AcDbCircle
  8
MaxSonar-EZ24_Pins
 62
256
370
-1
  6
ByLayer
 10
1.2699999999999818
 20
15.8100000000000023
 30
0.0
 40
0.635
  0
CIRCLE
  5
F8
100
AcDbEntity
100
AcDbCircle
  8
MaxSonar-EZ24_Pins
 62
256
370
-1
  6
ByLayer
 10
1.2699999999999818
 20
13.2700000000000102
 30
0.0
 40
0.635
  0
CIRCLE
  5
F9
100
AcDbEntity
100
AcDbCircle
  8
MaxSonar-EZ24_Pins
 62
256
370
-1
  6
ByLayer
 10
1.2699999999999818
 20
10.7300000000000182
 30
0.0
 40
0.635
  0
CIRCLE
  5
FA
100
AcDbEntity
100
AcDbCircle
  8
MaxSonar-EZ24_Pins
 62
256
370
-1
  6
ByLayer
 10
1.2699999999999818
 20
8.1899999999999977
 30
0.0
 40
0.635
  0
CIRCLE
  5
FB
100
AcDbEntity
100
AcDbCircle
  8
MaxSonar-EZ24_Pins
 62
256
370
-1
  6
ByLayer
 10
1.2699999999999818
 20
5.6500000000000057
 30
0.0
 40
0.635
  0
MTEXT
  5
FC
100
AcDbEntity
100
AcDbMText
  8
MaxSonar-EZ24_Pins
 62
256
370
-1
  6
ByLayer
 10
2.7699999999999818
 20
5.6500000000000057
 30
0.0
 40
1.0
 41
100.0
 71
4
 72
2
  1
GND
  7
iso
 50
0.0
 73
1
 44
1.0
  0
MTEXT
  5
FD
100
AcDbEntity
100
AcDbMText
  8
MaxSonar-EZ24_Pins
 62
256
370
-1
  6
ByLayer
 10
2.7699999999999818
 20
8.1899999999999977
 30
0.0
 40
1.0
 41
100.0
 71
4
 72
2
  1
Vin
  7
iso
 50
0.0
 73
1
 44
1.0
  0
MTEXT
  5
FE
100
AcDbEntity
100
AcDbMText
  8
MaxSonar-EZ24_Pins
 62
256
370
-1
  6
ByLayer
 10
2.7699999999999818
 20
10.7300000000000182
 30
0.0
 40
1.0
 41
100.0
 71
4
 72
2
  1
Tx
  7
iso
 50
0.0
 73
1
 44
1.0
  0
MTEXT
  5
FF
100
AcDbEntity
100
AcDbMText
  8
MaxSonar-EZ24_Pins
 62
256
370
-1
  6
ByLayer
 10
2.7699999999999818
 20
13.2700000000000102
 30
0.0
 40
1.0
 41
100.0
 71
4
 72
2
  1
Rx
  7
iso
 50
0.0
 73
1
 44
1.0
  0
MTEXT
  5
100
100
AcDbEntity
100
AcDbMText
  8
MaxSonar-EZ24_Pins
 62
256
370
-1
  6
ByLayer
 10
2.7699999999999818
 20
15.8100000000000023
 30
0.0
 40
1.0
 41
100.0
 71
4
 72
2
  1
AN
  7
iso
 50
0.0
 73
1
 44
1.0
  0
MTEXT
  5
101
100
AcDbEntity
100
AcDbMText
  8
MaxSonar-EZ24_Pins
 62
256
370
-1
  6
ByLayer
 10
2.7699999999999818
 20
18.3499999999999943
 30
0.0
 40
1.0
 41
100.0
 71
4
 72
2
  1
PW
  7
iso
 50
0.0
 73
1
 44
1.0
  0
MTEXT
  5
102
100
AcDbEntity
100
AcDbMText
  8
MaxSonar-EZ24_Pins
 62
256
370
-1
  6
ByLayer
 10
2.7699999999999818
 20
20.8899999999999864
 30
0.0
 40
1.0
 41
100.0
 71
4
 72
2
  1
BW
  7
iso
 50
0.0
 73
1
 44
1.0
  0
CIRCLE
  5
103
100
AcDbEntity
100
AcDbCircle
  8
MaxSonar-EZ24_Module
 62
256
370
-1
  6
ByLayer
 10
11.7599999999999909
 20
10.9300000000000068
 30
0.0
 40
8.0
  0
CIRCLE
  5
104
100
AcDbEntity
100
AcDbCircle
  8
MaxSonar-EZ24_MountingHoles
 62
256
370
-1
  6
ByLayer
 10
17.3299999999999841
 20
19.4099999999999966
 30
0.0
 40
2.0
  0
CIRCLE
  5
105
100
AcDbEntity
100
AcDbCircle
  8
MaxSonar-EZ24_MountingHoles
 62
256
370
-1
  6
ByLayer
 10
4.1999999999999886
 20
2.3000000000000114
 30
0.0
 40
2.0
  0
ENDBLK
  5
106
100
AcDbEntity
  8
0
100
AcDbBlockEnd
  0
BLOCK
  5
107
100
AcDbEntity
  8
0
100
AcDbBlockBegin
  2
SensorBoard
 70
0
 10
0.0
 20
0.0
 30
0.0
  3
SensorBoard
  1

  0
LINE
  5
108
100
AcDbEntity
100
AcDbLine
  8
SensorBoard_Board
 62
256
370
-1
  6
ByLayer
 10
0.0
 20
0.0
 30
0.0
 11
47.0
 21
0.0
 31
0.0
  0
LINE
  5
109
100
AcDbEntity
100
AcDbLine
  8
SensorBoard_Board
 62
256
370
-1
  6
ByLayer
 10
0.0
 20
0.0
 30
0.0
 11
0.0000000000000058
 21
95.0
 31
0.0
  0
LINE
  5
10A
100
AcDbEntity
100
AcDbLine
  8
SensorBoard_Board
 62
256
370
-1
  6
ByLayer
 10
47.0
 20
0.0
 30
0.0
 11
47.0000000000000071
 21
95.0
 31
0.0
  0
LINE
  5
10B
100
AcDbEntity
100
AcDbLine
  8
SensorBoard_Board
 62
256
370
-1
  6
ByLayer
 10
0.0000000000000058
 20
95.0
 30
0.0
 11
47.0000000000000071
 21
95.0
 31
0.0
  0
CIRCLE
  5
10C
100
AcDbEntity
100
AcDbCircle
  8
SensorBoard_MountingHoles
 62
256
370
-1
  6
ByLayer
 10
5.0000000000000053
 20
90.0
 30
0.0
 40
2.5
  0
CIRCLE
  5
10D
100
AcDbEntity
100
AcDbCircle
  8
SensorBoard_MountingHoles
 62
256
370
-1
  6
ByLayer
 10
40.0000000000000071
 20
90.0
 30
0.0
 40
2.5
  0
CIRCLE
  5
10E
100
AcDbEntity
100
AcDbCircle
  8
SensorBoard_MountingHoles
 62
256
370
-1
  6
ByLayer
 10
40.0
 20
5.0000000000000009
 30
0.0
 40
2.5
  0
CIRCLE
  5
10F
100
AcDbEntity
100
AcDbCircle
  8
SensorBoard_MountingHoles
 62
256
370
-1
  6
ByLayer
 10
5.0
 20
5.0
 30
0.0
 40
2.5
  0
ENDBLK
  5
110
100
AcDbEntity
  8
0
100
AcDbBlockEnd
  0
BLOCK
  5
111
100
AcDbEntity
  8
0
100
AcDbBlockBegin
  2
LED_Board
 70
0
 10
0.0
 20
0.0
 30
0.0
  3
LED_Board
  1

  0
LINE
  5
112
100
AcDbEntity
100
AcDbLine
  8
LED_Board_Brd
 62
256
370
-1
  6
ByLayer
 10
0.0
 20
0.0
 30
0.0
 11
39.0
 21
0.0
 31
0.0
  0
LINE
  5
113
100
AcDbEntity
100
AcDbLine
  8
LED_Board_Brd
 62
256
370
-1
  6
ByLayer
 10
39.0
 20
0.0
 30
0.0
 11
39.0
 21
31.0
 31
0.0
  0
LINE
  5
114
100
AcDbEntity
100
AcDbLine
  8
LED_Board_Brd
 62
256
370
-1
  6
ByLayer
 10
0.0
 20
0.0
 30
0.0
 11
0.0000000000000019
 21
31.0
 31
0.0
  0
LINE
  5
115
100
AcDbEntity
100
AcDbLine
  8
LED_Board_Brd
 62
256
370
-1
  6
ByLayer
 10
0.0000000000000019
 20
31.0
 30
0.0
 11
39.0
 21
31.0
 31
0.0
  0
CIRCLE
  5
116
100
AcDbEntity
100
AcDbCircle
  8
LED_Board_MountingHoles
 62
256
370
-1
  6
ByLayer
 10
9.0
 20
25.0
 30
0.0
 40
2.0
  0
CIRCLE
  5
117
100
AcDbEntity
100
AcDbCircle
  8
LED_Board_MountingHoles
 62
256
370
-1
  6
ByLayer
 10
34.2000000000000028
 20
25.0
 30
0.0
 40
2.0
  0
ENDBLK
  5
118
100
AcDbEntity
  8
0
100
AcDbBlockEnd
  0
ENDSEC
  0
SECTION
  2
ENTITIES
  0
HATCH
  5
119
  8
FlightDirArrow
 62
256
370
-1
  6
ByLayer
100
AcDbEntity
100
AcDbHatch
 10
0.0
 20
0.0
 30
0.0
210
0.0
220
0.0
230
1.0
  2
ansi31
 70
0
 71
0
 91
1
 92
1
 93
7
 72
1
 10
290.0
 20
200.0
 11
270.0
 21
220.0
 72
1
 10
270.0
 20
220.0
 11
270.0
 21
210.0
 72
1
 10
270.0
 20
210.0
 11
230.0
 21
210.0
 72
1
 10
230.0
 20
210.0
 11
230.0
 21
190.0
 72
1
 10
230.0
 20
190.0
 11
270.0
 21
190.0
 72
1
 10
270.0
 20
190.0
 11
270.0
 21
180.0
 72
1
 10
270.0
 20
180.0
 11
290.0
 21
200.0
 97
0
 75
0
 76
1
 52
0.0
 41
0.5
 77
0
 78
1
 53
45.0
 43
0.0
 44
0.0
 45
-0.0883883476483184
 46
0.0883883476483185
 79
0
 98
0
  0
ARC
  5
11A
100
AcDbEntity
  8
BaseLayer
 62
256
370
-1
  6
ByLayer
100
AcDbCircle
 10
400.0
 20
0.0
 30
0.0
 40
30.0
100
AcDbArc
 50
224.5031757954773184
 51
45.4968242045226745
  0
ARC
  5
11B
100
AcDbEntity
  8
BaseLayer
 62
256
370
-1
  6
ByLayer
100
AcDbCircle
 10
400.0
 20
400.0
 30
0.0
 40
30.0
100
AcDbArc
 50
314.5031757954773184
 51
135.4968242045226816
  0
ARC
  5
11C
100
AcDbEntity
  8
BaseLayer
 62
256
370
-1
  6
ByLayer
100
AcDbCircle
 10
0.0000000000000245
 20
400.0
 30
0.0
 40
30.0
100
AcDbArc
 50
44.5031757954773255
 51
225.4968242045226816
  0
ARC
  5
11D
100
AcDbEntity
  8
BaseLayer
 62
256
370
-1
  6
ByLayer
100
AcDbCircle
 10
0.0
 20
0.0
 30
0.0
 40
30.0
100
AcDbArc
 50
134.5031757954773184
 51
315.4968242045226816
  0
CIRCLE
  5
11E
100
AcDbEntity
100
AcDbCircle
  8
PropSpace
 62
256
370
-1
  6
ByLayer
 10
0.0000000000000245
 20
400.0
 30
0.0
 40
127.0
  0
CIRCLE
  5
11F
100
AcDbEntity
100
AcDbCircle
  8
PropSpace
 62
256
370
-1
  6
ByLayer
 10
400.0
 20
400.0
 30
0.0
 40
127.0
  0
CIRCLE
  5
120
100
AcDbEntity
100
AcDbCircle
  8
PropSpace
 62
256
370
-1
  6
ByLayer
 10
400.0
 20
0.0
 30
0.0
 40
127.0
  0
CIRCLE
  5
121
100
AcDbEntity
100
AcDbCircle
  8
PropSpace
 62
256
370
-1
  6
ByLayer
 10
0.0
 20
0.0
 30
0.0
 40
127.0
  0
ARC
  5
122
100
AcDbEntity
  8
ElectronicsLayerPosition
 62
256
370
-1
  6
ByLayer
100
AcDbCircle
 10
140.0
 20
260.0
 30
0.0
 40
20.0
100
AcDbArc
 50
90.0
 51
180.0
  0
LINE
  5
123
100
AcDbEntity
100
AcDbLine
  8
ElectronicsLayerPosition
 62
256
370
-1
  6
ByLayer
 10
140.0
 20
280.0
 30
0.0
 11
260.0
 21
280.0
 31
0.0
  0
ARC
  5
124
100
AcDbEntity
  8
ElectronicsLayerPosition
 62
256
370
-1
  6
ByLayer
100
AcDbCircle
 10
260.0
 20
260.0
 30
0.0
 40
20.0
100
AcDbArc
 50
0.0
 51
90.0
  0
LINE
  5
125
100
AcDbEntity
100
AcDbLine
  8
ElectronicsLayerPosition
 62
256
370
-1
  6
ByLayer
 10
280.0
 20
260.0
 30
0.0
 11
280.0
 21
140.0
 31
0.0
  0
ARC
  5
126
100
AcDbEntity
  8
ElectronicsLayerPosition
 62
256
370
-1
  6
ByLayer
100
AcDbCircle
 10
260.0
 20
140.0
 30
0.0
 40
20.0
100
AcDbArc
 50
270.0
 51
0.0
  0
LINE
  5
127
100
AcDbEntity
100
AcDbLine
  8
ElectronicsLayerPosition
 62
256
370
-1
  6
ByLayer
 10
260.0
 20
120.0
 30
0.0
 11
140.0
 21
120.0
 31
0.0
  0
LINE
  5
128
100
AcDbEntity
100
AcDbLine
  8
ElectronicsLayerPosition
 62
256
370
-1
  6
ByLayer
 10
120.0
 20
140.0
 30
0.0
 11
120.0
 21
260.0
 31
0.0
  0
ARC
  5
129
100
AcDbEntity
  8
ElectronicsLayerPosition
 62
256
370
-1
  6
ByLayer
100
AcDbCircle
 10
140.0
 20
140.0
 30
0.0
 40
20.0
100
AcDbArc
 50
180.0
 51
270.0
  0
LINE
  5
12A
100
AcDbEntity
100
AcDbLine
  8
BaseSupportMountings
 62
256
370
-1
  6
ByLayer
 10
-8.4852813742386957
 20
8.4852813742386957
 30
0.0
 11
-12.7279220613577309
 21
12.7279220613577877
 31
0.0
  0
LINE
  5
12B
100
AcDbEntity
100
AcDbLine
  8
BaseSupportMountings
 62
256
370
-1
  6
ByLayer
 10
-12.7279220613577309
 20
12.7279220613577877
 30
0.0
 11
-5.6568542494925396
 21
19.7989898732233769
 31
0.0
  0
LINE
  5
12C
100
AcDbEntity
100
AcDbLine
  8
BaseSupportMountings
 62
256
370
-1
  6
ByLayer
 10
-5.6568542494925396
 20
19.7989898732233769
 30
0.0
 11
-1.414213562373277
 21
15.5563491861041712
 31
0.0
  0
LINE
  5
12D
100
AcDbEntity
100
AcDbLine
  8
BaseSupportMountings
 62
256
370
-1
  6
ByLayer
 10
62.2253967444158889
 20
79.1959594928935076
 30
0.0
 11
57.9827560572970242
 21
83.4386001800123722
 31
0.0
  0
LINE
  5
12E
100
AcDbEntity
100
AcDbLine
  8
BaseSupportMountings
 62
256
370
-1
  6
ByLayer
 10
57.9827560572970242
 20
83.4386001800123722
 30
0.0
 11
65.0538238691621018
 21
90.5096679918783593
 31
0.0
  0
LINE
  5
12F
100
AcDbEntity
100
AcDbLine
  8
BaseSupportMountings
 62
256
370
-1
  6
ByLayer
 10
65.0538238691621018
 20
90.5096679918783593
 30
0.0
 11
69.2964645562814212
 21
86.2670273047589831
 31
0.0
  0
LINE
  5
130
100
AcDbEntity
100
AcDbLine
  8
BaseSupportMountings
 62
256
370
-1
  6
ByLayer
 10
132.9360748630708144
 20
149.9066376115482626
 30
0.0
 11
128.6934341759514382
 21
154.149278298667582
 31
0.0
  0
LINE
  5
131
100
AcDbEntity
100
AcDbLine
  8
BaseSupportMountings
 62
256
370
-1
  6
ByLayer
 10
128.6934341759514382
 20
154.149278298667582
 30
0.0
 11
135.7645019878168569
 21
161.2203461105331428
 31
0.0
  0
LINE
  5
132
100
AcDbEntity
100
AcDbLine
  8
BaseSupportMountings
 62
256
370
-1
  6
ByLayer
 10
135.7645019878168569
 20
161.2203461105331428
 30
0.0
 11
140.0071426749362047
 21
156.9777054234137381
 31
0.0
  0
LINE
  5
133
100
AcDbEntity
100
AcDbLine
  8
BaseSupportMountings
 62
256
370
-1
  6
ByLayer
 10
391.5147186257613612
 20
408.4852813742386388
 30
0.0
 11
387.2720779386422691
 21
412.7279220613577309
 31
0.0
  0
LINE
  5
134
100
AcDbEntity
100
AcDbLine
  8
BaseSupportMountings
 62
256
370
-1
  6
ByLayer
 10
387.2720779386422691
 20
412.7279220613577309
 30
0.0
 11
380.2010101267763957
 21
405.6568542494925396
 31
0.0
  0
LINE
  5
135
100
AcDbEntity
100
AcDbLine
  8
BaseSupportMountings
 62
256
370
-1
  6
ByLayer
 10
380.2010101267763957
 20
405.6568542494925396
 30
0.0
 11
384.4436508138958857
 21
401.4142135623731633
 31
0.0
  0
LINE
  5
136
100
AcDbEntity
100
AcDbLine
  8
BaseSupportMountings
 62
256
370
-1
  6
ByLayer
 10
320.8040405071066061
 20
337.7746032555838838
 30
0.0
 11
316.5613998199874004
 21
342.0172439427030895
 31
0.0
  0
LINE
  5
137
100
AcDbEntity
100
AcDbLine
  8
BaseSupportMountings
 62
256
370
-1
  6
ByLayer
 10
316.5613998199874004
 20
342.0172439427030895
 30
0.0
 11
309.4903320081219249
 21
334.9461761308376708
 31
0.0
  0
LINE
  5
138
100
AcDbEntity
100
AcDbLine
  8
BaseSupportMountings
 62
256
370
-1
  6
ByLayer
 10
309.4903320081219249
 20
334.9461761308376708
 30
0.0
 11
313.7329726952411306
 21
330.7035354437184083
 31
0.0
  0
LINE
  5
139
100
AcDbEntity
100
AcDbLine
  8
BaseSupportMountings
 62
256
370
-1
  6
ByLayer
 10
250.0933623884517658
 20
267.0639251369292424
 30
0.0
 11
245.8507217013327306
 21
271.3065658240482207
 31
0.0
  0
LINE
  5
13A
100
AcDbEntity
100
AcDbLine
  8
BaseSupportMountings
 62
256
370
-1
  6
ByLayer
 10
245.8507217013327306
 20
271.3065658240482207
 30
0.0
 11
238.7796538894672551
 21
264.2354980121828021
 31
0.0
  0
LINE
  5
13B
100
AcDbEntity
100
AcDbLine
  8
BaseSupportMountings
 62
256
370
-1
  6
ByLayer
 10
238.7796538894672551
 20
264.2354980121828021
 30
0.0
 11
243.0222945765862903
 21
259.9928573250637101
 31
0.0
  0
LINE
  5
13C
100
AcDbEntity
100
AcDbLine
  8
BaseSupportMountings
 62
256
370
-1
  6
ByLayer
 10
391.5147186257613612
 20
408.4852813742386388
 30
0.0
 11
384.4436508138958857
 21
401.4142135623731633
 31
0.0
  0
LINE
  5
13D
100
AcDbEntity
100
AcDbLine
  8
BaseSupportMountings
 62
256
370
-1
  6
ByLayer
 10
313.7329726952411306
 20
330.7035354437184083
 30
0.0
 11
320.8040405071066061
 21
337.7746032555838838
 31
0.0
  0
LINE
  5
13E
100
AcDbEntity
100
AcDbLine
  8
BaseSupportMountings
 62
256
370
-1
  6
ByLayer
 10
250.0933623884517658
 20
267.0639251369292424
 30
0.0
 11
243.0222945765862903
 21
259.9928573250637101
 31
0.0
  0
LINE
  5
13F
100
AcDbEntity
100
AcDbLine
  8
BaseSupportMountings
 62
256
370
-1
  6
ByLayer
 10
132.9360748630708144
 20
149.9066376115482626
 30
0.0
 11
140.0071426749362047
 21
156.9777054234137381
 31
0.0
  0
LINE
  5
140
100
AcDbEntity
100
AcDbLine
  8
BaseSupportMountings
 62
256
370
-1
  6
ByLayer
 10
69.2964645562814212
 20
86.2670273047589831
 30
0.0
 11
62.2253967444158889
 21
79.1959594928935076
 31
0.0
  0
LINE
  5
141
100
AcDbEntity
100
AcDbLine
  8
BaseSupportMountings
 62
256
370
-1
  6
ByLayer
 10
-8.4852813742386957
 20
8.4852813742386957
 30
0.0
 11
-1.414213562373277
 21
15.5563491861041712
 31
0.0
  0
LINE
  5
142
100
AcDbEntity
100
AcDbLine
  8
BaseSupportMountings
 62
256
370
-1
  6
ByLayer
 10
12.727922061357674
 20
-12.727922061357674
 30
0.0
 11
8.4852813742386388
 21
-8.485281374238582
 31
0.0
  0
LINE
  5
143
100
AcDbEntity
100
AcDbLine
  8
BaseSupportMountings
 62
256
370
-1
  6
ByLayer
 10
8.4852813742386388
 20
-8.485281374238582
 30
0.0
 11
15.5563491861038301
 21
-1.4142135623729928
 31
0.0
  0
LINE
  5
144
100
AcDbEntity
100
AcDbLine
  8
BaseSupportMountings
 62
256
370
-1
  6
ByLayer
 10
15.5563491861038301
 20
-1.4142135623729928
 30
0.0
 11
19.7989898732230927
 21
-5.6568542494921985
 31
0.0
  0
LINE
  5
145
100
AcDbEntity
100
AcDbLine
  8
BaseSupportMountings
 62
256
370
-1
  6
ByLayer
 10
83.4386001800122585
 20
57.9827560572971379
 30
0.0
 11
79.1959594928933939
 21
62.2253967444160025
 31
0.0
  0
LINE
  5
146
100
AcDbEntity
100
AcDbLine
  8
BaseSupportMountings
 62
256
370
-1
  6
ByLayer
 10
79.1959594928933939
 20
62.2253967444160025
 30
0.0
 11
86.2670273047584715
 21
69.2964645562819896
 31
0.0
  0
LINE
  5
147
100
AcDbEntity
100
AcDbLine
  8
BaseSupportMountings
 62
256
370
-1
  6
ByLayer
 10
86.2670273047584715
 20
69.2964645562819896
 30
0.0
 11
90.5096679918777909
 21
65.0538238691626134
 31
0.0
  0
LINE
  5
148
100
AcDbEntity
100
AcDbLine
  8
BaseSupportMountings
 62
256
370
-1
  6
ByLayer
 10
154.1492782986671841
 20
128.6934341759518929
 30
0.0
 11
149.9066376115478079
 21
132.9360748630712123
 31
0.0
  0
LINE
  5
149
100
AcDbEntity
100
AcDbLine
  8
BaseSupportMountings
 62
256
370
-1
  6
ByLayer
 10
149.9066376115478079
 20
132.9360748630712123
 30
0.0
 11
156.9777054234132265
 21
140.0071426749367731
 31
0.0
  0
LINE
  5
14A
100
AcDbEntity
100
AcDbLine
  8
BaseSupportMountings
 62
256
370
-1
  6
ByLayer
 10
156.9777054234132265
 20
140.0071426749367731
 30
0.0
 11
161.2203461105325744
 21
135.7645019878173684
 31
0.0
  0
LINE
  5
14B
100
AcDbEntity
100
AcDbLine
  8
BaseSupportMountings
 62
256
370
-1
  6
ByLayer
 10
412.7279220613577309
 20
387.2720779386422691
 30
0.0
 11
408.4852813742386388
 21
391.5147186257613612
 31
0.0
  0
LINE
  5
14C
100
AcDbEntity
100
AcDbLine
  8
BaseSupportMountings
 62
256
370
-1
  6
ByLayer
 10
408.4852813742386388
 20
391.5147186257613612
 30
0.0
 11
401.4142135623727654
 21
384.4436508138961699
 31
0.0
  0
LINE
  5
14D
100
AcDbEntity
100
AcDbLine
  8
BaseSupportMountings
 62
256
370
-1
  6
ByLayer
 10
401.4142135623727654
 20
384.4436508138961699
 30
0.0
 11
405.6568542494922553
 21
380.2010101267767936
 31
0.0
  0
LINE
  5
14E
100
AcDbEntity
100
AcDbLine
  8
BaseSupportMountings
 62
256
370
-1
  6
ByLayer
 10
342.0172439427029758
 20
316.5613998199875141
 30
0.0
 11
337.7746032555837701
 21
320.8040405071067198
 31
0.0
  0
LINE
  5
14F
100
AcDbEntity
100
AcDbLine
  8
BaseSupportMountings
 62
256
370
-1
  6
ByLayer
 10
337.7746032555837701
 20
320.8040405071067198
 30
0.0
 11
330.7035354437182946
 21
313.7329726952413012
 31
0.0
  0
LINE
  5
150
100
AcDbEntity
100
AcDbLine
  8
BaseSupportMountings
 62
256
370
-1
  6
ByLayer
 10
330.7035354437182946
 20
313.7329726952413012
 30
0.0
 11
334.9461761308375003
 21
309.4903320081220386
 31
0.0
  0
LINE
  5
151
100
AcDbEntity
100
AcDbLine
  8
BaseSupportMountings
 62
256
370
-1
  6
ByLayer
 10
271.3065658240481071
 20
245.8507217013328727
 30
0.0
 11
267.0639251369291287
 21
250.0933623884518511
 31
0.0
  0
LINE
  5
152
100
AcDbEntity
100
AcDbLine
  8
BaseSupportMountings
 62
256
370
-1
  6
ByLayer
 10
267.0639251369291287
 20
250.0933623884518511
 30
0.0
 11
259.9928573250635964
 21
243.0222945765864324
 31
0.0
  0
LINE
  5
153
100
AcDbEntity
100
AcDbLine
  8
BaseSupportMountings
 62
256
370
-1
  6
ByLayer
 10
259.9928573250635964
 20
243.0222945765864324
 30
0.0
 11
264.2354980121826884
 21
238.7796538894673404
 31
0.0
  0
LINE
  5
154
100
AcDbEntity
100
AcDbLine
  8
BaseSupportMountings
 62
256
370
-1
  6
ByLayer
 10
412.7279220613577309
 20
387.2720779386422691
 30
0.0
 11
405.6568542494922553
 21
380.2010101267767936
 31
0.0
  0
LINE
  5
155
100
AcDbEntity
100
AcDbLine
  8
BaseSupportMountings
 62
256
370
-1
  6
ByLayer
 10
334.9461761308375003
 20
309.4903320081220386
 30
0.0
 11
342.0172439427029758
 21
316.5613998199875141
 31
0.0
  0
LINE
  5
156
100
AcDbEntity
100
AcDbLine
  8
BaseSupportMountings
 62
256
370
-1
  6
ByLayer
 10
271.3065658240481071
 20
245.8507217013328727
 30
0.0
 11
264.2354980121826884
 21
238.7796538894673404
 31
0.0
  0
LINE
  5
157
100
AcDbEntity
100
AcDbLine
  8
BaseSupportMountings
 62
256
370
-1
  6
ByLayer
 10
154.1492782986671841
 20
128.6934341759518929
 30
0.0
 11
161.2203461105325744
 21
135.7645019878173684
 31
0.0
  0
LINE
  5
158
100
AcDbEntity
100
AcDbLine
  8
BaseSupportMountings
 62
256
370
-1
  6
ByLayer
 10
90.5096679918777909
 20
65.0538238691626134
 30
0.0
 11
83.4386001800122585
 21
57.9827560572971379
 31
0.0
  0
LINE
  5
159
100
AcDbEntity
100
AcDbLine
  8
BaseSupportMountings
 62
256
370
-1
  6
ByLayer
 10
12.727922061357674
 20
-12.727922061357674
 30
0.0
 11
19.7989898732230927
 21
-5.6568542494921985
 31
0.0
  0
LINE
  5
15A
100
AcDbEntity
100
AcDbLine
  8
BaseSupportMountings
 62
256
370
-1
  6
ByLayer
 10
391.5147186257611907
 20
-8.4852813742386957
 30
0.0
 11
387.2720779386420418
 21
-12.7279220613579014
 31
0.0
  0
LINE
  5
15B
100
AcDbEntity
100
AcDbLine
  8
BaseSupportMountings
 62
256
370
-1
  6
ByLayer
 10
387.2720779386420418
 20
-12.7279220613579014
 30
0.0
 11
380.2010101267763957
 21
-5.6568542494926533
 31
0.0
  0
LINE
  5
15C
100
AcDbEntity
100
AcDbLine
  8
BaseSupportMountings
 62
256
370
-1
  6
ByLayer
 10
380.2010101267763957
 20
-5.6568542494926533
 30
0.0
 11
384.4436508138956015
 21
-1.4142135623735612
 31
0.0
  0
LINE
  5
15D
100
AcDbEntity
100
AcDbLine
  8
BaseSupportMountings
 62
256
370
-1
  6
ByLayer
 10
320.8040405071063219
 20
62.2253967444156615
 30
0.0
 11
316.5613998199874004
 21
57.9827560572967968
 31
0.0
  0
LINE
  5
15E
100
AcDbEntity
100
AcDbLine
  8
BaseSupportMountings
 62
256
370
-1
  6
ByLayer
 10
316.5613998199874004
 20
57.9827560572967968
 30
0.0
 11
309.4903320081214133
 21
65.0538238691619313
 31
0.0
  0
LINE
  5
15F
100
AcDbEntity
100
AcDbLine
  8
BaseSupportMountings
 62
256
370
-1
  6
ByLayer
 10
309.4903320081214133
 20
65.0538238691619313
 30
0.0
 11
313.7329726952409601
 21
69.2964645562813075
 31
0.0
  0
LINE
  5
160
100
AcDbEntity
100
AcDbLine
  8
BaseSupportMountings
 62
256
370
-1
  6
ByLayer
 10
250.0933623884518227
 20
132.9360748630708713
 30
0.0
 11
245.8507217013323896
 21
128.6934341759514382
 31
0.0
  0
LINE
  5
161
100
AcDbEntity
100
AcDbLine
  8
BaseSupportMountings
 62
256
370
-1
  6
ByLayer
 10
245.8507217013323896
 20
128.6934341759514382
 30
0.0
 11
238.7796538894666867
 21
135.7645019878166863
 31
0.0
  0
LINE
  5
162
100
AcDbEntity
100
AcDbLine
  8
BaseSupportMountings
 62
256
370
-1
  6
ByLayer
 10
238.7796538894666867
 20
135.7645019878166863
 30
0.0
 11
243.0222945765861482
 21
140.0071426749360626
 31
0.0
  0
LINE
  5
163
100
AcDbEntity
100
AcDbLine
  8
BaseSupportMountings
 62
256
370
-1
  6
ByLayer
 10
-8.4852813742386477
 20
391.5147186257613612
 30
0.0
 11
-12.7279220613577433
 21
387.2720779386422691
 31
0.0
  0
LINE
  5
164
100
AcDbEntity
100
AcDbLine
  8
BaseSupportMountings
 62
256
370
-1
  6
ByLayer
 10
-12.7279220613577433
 20
387.2720779386422691
 30
0.0
 11
-5.6568542494925236
 21
380.2010101267763957
 31
0.0
  0
LINE
  5
165
100
AcDbEntity
100
AcDbLine
  8
BaseSupportMountings
 62
256
370
-1
  6
ByLayer
 10
-5.6568542494925236
 20
380.2010101267763957
 30
0.0
 11
-1.4142135623731638
 21
384.4436508138958857
 31
0.0
  0
LINE
  5
166
100
AcDbEntity
100
AcDbLine
  8
BaseSupportMountings
 62
256
370
-1
  6
ByLayer
 10
62.225396744416102
 20
320.8040405071066061
 30
0.0
 11
57.9827560572968466
 21
316.5613998199873436
 31
0.0
  0
LINE
  5
167
100
AcDbEntity
100
AcDbLine
  8
BaseSupportMountings
 62
256
370
-1
  6
ByLayer
 10
57.9827560572968466
 20
316.5613998199873436
 30
0.0
 11
65.0538238691623008
 21
309.4903320081218681
 31
0.0
  0
LINE
  5
168
100
AcDbEntity
100
AcDbLine
  8
BaseSupportMountings
 62
256
370
-1
  6
ByLayer
 10
65.0538238691623008
 20
309.4903320081218681
 30
0.0
 11
69.2964645562815775
 21
313.7329726952411306
 31
0.0
  0
LINE
  5
169
100
AcDbEntity
100
AcDbLine
  8
BaseSupportMountings
 62
256
370
-1
  6
ByLayer
 10
132.9360748630708144
 20
250.0933623884517942
 30
0.0
 11
128.6934341759516656
 21
245.8507217013326454
 31
0.0
  0
LINE
  5
16A
100
AcDbEntity
100
AcDbLine
  8
BaseSupportMountings
 62
256
370
-1
  6
ByLayer
 10
128.6934341759516656
 20
245.8507217013326454
 30
0.0
 11
135.7645019878171979
 21
238.7796538894672551
 31
0.0
  0
LINE
  5
16B
100
AcDbEntity
100
AcDbLine
  8
BaseSupportMountings
 62
256
370
-1
  6
ByLayer
 10
135.7645019878171979
 20
238.7796538894672551
 30
0.0
 11
140.0071426749361763
 21
243.022294576586205
 31
0.0
  0
LINE
  5
16C
100
AcDbEntity
100
AcDbLine
  8
BaseSupportMountings
 62
256
370
-1
  6
ByLayer
 10
-8.4852813742386477
 20
391.5147186257613612
 30
0.0
 11
-1.4142135623731638
 21
384.4436508138958857
 31
0.0
  0
LINE
  5
16D
100
AcDbEntity
100
AcDbLine
  8
BaseSupportMountings
 62
256
370
-1
  6
ByLayer
 10
69.2964645562815775
 20
313.7329726952411306
 30
0.0
 11
62.225396744416102
 21
320.8040405071066061
 31
0.0
  0
LINE
  5
16E
100
AcDbEntity
100
AcDbLine
  8
BaseSupportMountings
 62
256
370
-1
  6
ByLayer
 10
132.9360748630708144
 20
250.0933623884517942
 30
0.0
 11
140.0071426749361763
 21
243.022294576586205
 31
0.0
  0
LINE
  5
16F
100
AcDbEntity
100
AcDbLine
  8
BaseSupportMountings
 62
256
370
-1
  6
ByLayer
 10
250.0933623884518227
 20
132.9360748630708713
 30
0.0
 11
243.0222945765861482
 21
140.0071426749360626
 31
0.0
  0
LINE
  5
170
100
AcDbEntity
100
AcDbLine
  8
BaseSupportMountings
 62
256
370
-1
  6
ByLayer
 10
313.7329726952409601
 20
69.2964645562813075
 30
0.0
 11
320.8040405071063219
 21
62.2253967444156615
 31
0.0
  0
LINE
  5
171
100
AcDbEntity
100
AcDbLine
  8
BaseSupportMountings
 62
256
370
-1
  6
ByLayer
 10
391.5147186257611907
 20
-8.4852813742386957
 30
0.0
 11
384.4436508138956015
 21
-1.4142135623735612
 31
0.0
  0
LINE
  5
172
100
AcDbEntity
100
AcDbLine
  8
BaseSupportMountings
 62
256
370
-1
  6
ByLayer
 10
412.7279220613577309
 20
12.7279220613577309
 30
0.0
 11
408.4852813742385251
 21
8.485281374238582
 31
0.0
  0
LINE
  5
173
100
AcDbEntity
100
AcDbLine
  8
BaseSupportMountings
 62
256
370
-1
  6
ByLayer
 10
408.4852813742385251
 20
8.485281374238582
 30
0.0
 11
401.4142135623727086
 21
15.5563491861034322
 31
0.0
  0
LINE
  5
174
100
AcDbEntity
100
AcDbLine
  8
BaseSupportMountings
 62
256
370
-1
  6
ByLayer
 10
401.4142135623727086
 20
15.5563491861034322
 30
0.0
 11
405.6568542494921985
 21
19.7989898732231495
 31
0.0
  0
LINE
  5
175
100
AcDbEntity
100
AcDbLine
  8
BaseSupportMountings
 62
256
370
-1
  6
ByLayer
 10
342.0172439427027484
 20
83.4386001800122017
 30
0.0
 11
337.7746032555838269
 21
79.1959594928932233
 31
0.0
  0
LINE
  5
176
100
AcDbEntity
100
AcDbLine
  8
BaseSupportMountings
 62
256
370
-1
  6
ByLayer
 10
337.7746032555838269
 20
79.1959594928932233
 30
0.0
 11
330.7035354437178967
 21
86.2670273047583578
 31
0.0
  0
LINE
  5
177
100
AcDbEntity
100
AcDbLine
  8
BaseSupportMountings
 62
256
370
-1
  6
ByLayer
 10
330.7035354437178967
 20
86.2670273047583578
 30
0.0
 11
334.9461761308374435
 21
90.5096679918778477
 31
0.0
  0
LINE
  5
178
100
AcDbEntity
100
AcDbLine
  8
BaseSupportMountings
 62
256
370
-1
  6
ByLayer
 10
271.3065658240479934
 20
154.149278298667042
 30
0.0
 11
267.0639251369285603
 21
149.9066376115476089
 31
0.0
  0
LINE
  5
179
100
AcDbEntity
100
AcDbLine
  8
BaseSupportMountings
 62
256
370
-1
  6
ByLayer
 10
267.0639251369285603
 20
149.9066376115476089
 30
0.0
 11
259.9928573250631416
 21
156.9777054234130844
 31
0.0
  0
LINE
  5
17A
100
AcDbEntity
100
AcDbLine
  8
BaseSupportMountings
 62
256
370
-1
  6
ByLayer
 10
259.9928573250631416
 20
156.9777054234130844
 30
0.0
 11
264.2354980121825747
 21
161.2203461105325175
 31
0.0
  0
LINE
  5
17B
100
AcDbEntity
100
AcDbLine
  8
BaseSupportMountings
 62
256
370
-1
  6
ByLayer
 10
12.7279220613577326
 20
412.7279220613577309
 30
0.0
 11
8.4852813742386406
 21
408.4852813742386388
 31
0.0
  0
LINE
  5
17C
100
AcDbEntity
100
AcDbLine
  8
BaseSupportMountings
 62
256
370
-1
  6
ByLayer
 10
8.4852813742386406
 20
408.4852813742386388
 30
0.0
 11
15.5563491861038301
 21
401.4142135623727654
 31
0.0
  0
LINE
  5
17D
100
AcDbEntity
100
AcDbLine
  8
BaseSupportMountings
 62
256
370
-1
  6
ByLayer
 10
15.5563491861038301
 20
401.4142135623727654
 30
0.0
 11
19.7989898732232064
 21
405.6568542494922553
 31
0.0
  0
LINE
  5
17E
100
AcDbEntity
100
AcDbLine
  8
BaseSupportMountings
 62
256
370
-1
  6
ByLayer
 10
83.4386001800125001
 20
342.0172439427029758
 30
0.0
 11
79.1959594928932518
 21
337.7746032555837132
 31
0.0
  0
LINE
  5
17F
100
AcDbEntity
100
AcDbLine
  8
BaseSupportMountings
 62
256
370
-1
  6
ByLayer
 10
79.1959594928932518
 20
337.7746032555837132
 30
0.0
 11
86.2670273047586704
 21
330.7035354437182377
 31
0.0
  0
LINE
  5
180
100
AcDbEntity
100
AcDbLine
  8
BaseSupportMountings
 62
256
370
-1
  6
ByLayer
 10
86.2670273047586704
 20
330.7035354437182377
 30
0.0
 11
90.5096679918779614
 21
334.9461761308375003
 31
0.0
  0
LINE
  5
181
100
AcDbEntity
100
AcDbLine
  8
BaseSupportMountings
 62
256
370
-1
  6
ByLayer
 10
154.149278298667042
 20
271.3065658240479934
 30
0.0
 11
149.9066376115481489
 21
267.0639251369291287
 31
0.0
  0
LINE
  5
182
100
AcDbEntity
100
AcDbLine
  8
BaseSupportMountings
 62
256
370
-1
  6
ByLayer
 10
149.9066376115481489
 20
267.0639251369291287
 30
0.0
 11
156.9777054234134539
 21
259.9928573250634827
 31
0.0
  0
LINE
  5
183
100
AcDbEntity
100
AcDbLine
  8
BaseSupportMountings
 62
256
370
-1
  6
ByLayer
 10
156.9777054234134539
 20
259.9928573250634827
 30
0.0
 11
161.220346110532688
 21
264.2354980121826884
 31
0.0
  0
LINE
  5
184
100
AcDbEntity
100
AcDbLine
  8
BaseSupportMountings
 62
256
370
-1
  6
ByLayer
 10
12.7279220613577326
 20
412.7279220613577309
 30
0.0
 11
19.7989898732232064
 21
405.6568542494922553
 31
0.0
  0
LINE
  5
185
100
AcDbEntity
100
AcDbLine
  8
BaseSupportMountings
 62
256
370
-1
  6
ByLayer
 10
90.5096679918779614
 20
334.9461761308375003
 30
0.0
 11
83.4386001800125001
 21
342.0172439427029758
 31
0.0
  0
LINE
  5
186
100
AcDbEntity
100
AcDbLine
  8
BaseSupportMountings
 62
256
370
-1
  6
ByLayer
 10
154.149278298667042
 20
271.3065658240479934
 30
0.0
 11
161.220346110532688
 21
264.2354980121826884
 31
0.0
  0
LINE
  5
187
100
AcDbEntity
100
AcDbLine
  8
BaseSupportMountings
 62
256
370
-1
  6
ByLayer
 10
271.3065658240479934
 20
154.149278298667042
 30
0.0
 11
264.2354980121825747
 21
161.2203461105325175
 31
0.0
  0
LINE
  5
188
100
AcDbEntity
100
AcDbLine
  8
BaseSupportMountings
 62
256
370
-1
  6
ByLayer
 10
334.9461761308374435
 20
90.5096679918778477
 30
0.0
 11
342.0172439427027484
 21
83.4386001800122017
 31
0.0
  0
LINE
  5
189
100
AcDbEntity
100
AcDbLine
  8
BaseSupportMountings
 62
256
370
-1
  6
ByLayer
 10
412.7279220613577309
 20
12.7279220613577309
 30
0.0
 11
405.6568542494921985
 21
19.7989898732231495
 31
0.0
  0
LINE
  5
18A
100
AcDbEntity
100
AcDbLine
  8
BaseLayer
 62
256
370
-1
  6
ByLayer
 10
421.0284639199422259
 20
378.6036520600433164
 30
0.0
 11
335.8861443202310966
 21
294.9252504567862729
 31
0.0
  0
LINE
  5
18B
100
AcDbEntity
100
AcDbLine
  8
BaseLayer
 62
256
370
-1
  6
ByLayer
 10
421.0284639199422259
 20
21.3963479399566552
 30
0.0
 11
335.8861443202310966
 21
105.0747495432137271
 31
0.0
  0
LINE
  5
18C
100
AcDbEntity
100
AcDbLine
  8
BaseLayer
 62
256
370
-1
  6
ByLayer
 10
21.3963479399566552
 20
-21.0284639199422188
 30
0.0
 11
105.0747495432136702
 21
64.1138556797689319
 31
0.0
  0
LINE
  5
18D
100
AcDbEntity
100
AcDbLine
  8
BaseLayer
 62
256
370
-1
  6
ByLayer
 10
378.6036520600433164
 20
-21.0284639199422188
 30
0.0
 11
294.9252504567863298
 21
64.1138556797689034
 31
0.0
  0
LINE
  5
18E
100
AcDbEntity
100
AcDbLine
  8
BaseLayer
 62
256
370
-1
  6
ByLayer
 10
-21.0284639199422188
 20
21.3963479399566552
 30
0.0
 11
64.1138556797689034
 21
105.0747495432136702
 31
0.0
  0
LINE
  5
18F
100
AcDbEntity
100
AcDbLine
  8
BaseLayer
 62
256
370
-1
  6
ByLayer
 10
-21.0284639199421832
 20
378.6036520600433164
 30
0.0
 11
64.1138556797689461
 21
294.9252504567862729
 31
0.0
  0
LINE
  5
190
100
AcDbEntity
100
AcDbLine
  8
BaseLayer
 62
256
370
-1
  6
ByLayer
 10
21.3963479399567085
 20
421.0284639199422259
 30
0.0
 11
105.0747495432136844
 21
335.8861443202310966
 31
0.0
  0
LINE
  5
191
100
AcDbEntity
100
AcDbLine
  8
BaseLayer
 62
256
370
-1
  6
ByLayer
 10
378.6036520600433164
 20
421.0284639199422259
 30
0.0
 11
294.9252504567862729
 21
335.8861443202310966
 31
0.0
  0
ARC
  5
192
100
AcDbEntity
  8
BaseLayer
 62
256
370
-1
  6
ByLayer
100
AcDbCircle
 10
420.0
 20
209.3398586969596522
 30
0.0
 40
120.0
100
AcDbArc
 50
134.5031757954774321
 51
180.0
  0
LINE
  5
193
100
AcDbEntity
100
AcDbLine
  8
BaseLayer
 62
256
370
-1
  6
ByLayer
 10
300.0
 20
209.3398586969596522
 30
0.0
 11
300.0
 21
190.6601413030403762
 31
0.0
  0
ARC
  5
194
100
AcDbEntity
  8
BaseLayer
 62
256
370
-1
  6
ByLayer
100
AcDbCircle
 10
420.0
 20
190.6601413030403762
 30
0.0
 40
120.0
100
AcDbArc
 50
180.0
 51
225.4968242045226532
  0
ARC
  5
195
100
AcDbEntity
  8
BaseLayer
 62
256
370
-1
  6
ByLayer
100
AcDbCircle
 10
190.6601413030403762
 20
-20.0
 30
0.0
 40
120.0
100
AcDbArc
 50
90.0
 51
135.4968242045226816
  0
LINE
  5
196
100
AcDbEntity
100
AcDbLine
  8
BaseLayer
 62
256
370
-1
  6
ByLayer
 10
209.3398586969596238
 20
100.0
 30
0.0
 11
190.6601413030404046
 21
100.0
 31
0.0
  0
ARC
  5
197
100
AcDbEntity
  8
BaseLayer
 62
256
370
-1
  6
ByLayer
100
AcDbCircle
 10
209.3398586969596238
 20
-20.0
 30
0.0
 40
120.0
100
AcDbArc
 50
44.5031757954773255
 51
90.0
  0
ARC
  5
198
100
AcDbEntity
  8
BaseLayer
 62
256
370
-1
  6
ByLayer
100
AcDbCircle
 10
-20.0
 20
190.6601413030403478
 30
0.0
 40
120.0
100
AcDbArc
 50
314.5031757954773184
 51
0.0
  0
LINE
  5
199
100
AcDbEntity
100
AcDbLine
  8
BaseLayer
 62
256
370
-1
  6
ByLayer
 10
100.0
 20
190.6601413030403478
 30
0.0
 11
100.0
 21
209.3398586969596238
 31
0.0
  0
ARC
  5
19A
100
AcDbEntity
  8
BaseLayer
 62
256
370
-1
  6
ByLayer
100
AcDbCircle
 10
-20.0
 20
209.3398586969596238
 30
0.0
 40
120.0
100
AcDbArc
 50
0.0
 51
45.4968242045226248
  0
ARC
  5
19B
100
AcDbEntity
  8
BaseLayer
 62
256
370
-1
  6
ByLayer
100
AcDbCircle
 10
190.6601413030403762
 20
420.0
 30
0.0
 40
120.0
100
AcDbArc
 50
224.5031757954773184
 51
270.0
  0
LINE
  5
19C
100
AcDbEntity
100
AcDbLine
  8
BaseLayer
 62
256
370
-1
  6
ByLayer
 10
190.6601413030403762
 20
300.0
 30
0.0
 11
209.3398586969595954
 21
300.0
 31
0.0
  0
ARC
  5
19D
100
AcDbEntity
  8
BaseLayer
 62
256
370
-1
  6
ByLayer
100
AcDbCircle
 10
209.3398586969595954
 20
420.0
 30
0.0
 40
120.0
100
AcDbArc
 50
270.0
 51
315.4968242045226816
  0
INSERT
  5
19E
100
AcDbEntity
100
AcDbBlockReference
  8
BatteryPosition
 62
256
370
-1
  6
ByLayer
  2
Battery
 10
200.0
 20
200.0
 30
0.0
 44
1.0
 45
1.0
  0
INSERT
  5
19F
100
AcDbEntity
100
AcDbBlockReference
  8
Components
 62
256
370
-1
  6
ByLayer
  2
Motor
 10
0.0000000000000245
 20
400.0
 30
0.0
 50
45.0
  0
INSERT
  5
1A0
100
AcDbEntity
100
AcDbBlockReference
  8
Components
 62
256
370
-1
  6
ByLayer
  2
Motor
 10
400.0
 20
400.0
 30
0.0
 50
45.0
 44
1.0
 45
1.0
  0
INSERT
  5
1A1
100
AcDbEntity
100
AcDbBlockReference
  8
Components
 62
256
370
-1
  6
ByLayer
  2
Motor
 10
400.0
 20
0.0
 30
0.0
 50
45.0
 44
1.0
 45
1.0
  0
INSERT
  5
1A2
100
AcDbEntity
100
AcDbBlockReference
  8
Components
 62
256
370
-1
  6
ByLayer
  2
Motor
 10
0.0
 20
0.0
 30
0.0
 50
45.0
 44
1.0
 45
1.0
  0
INSERT
  5
1A3
100
AcDbEntity
100
AcDbBlockReference
  8
Components
 62
256
370
-1
  6
ByLayer
  2
ArduinoMega-0
 10
165.0
 20
150.0
 30
0.0
 50
90.0
  0
CIRCLE
  5
1A4
100
AcDbEntity
100
AcDbCircle
  8
BatteryMountingHoles
 62
256
370
-1
  6
ByLayer
 10
170.0
 20
270.0
 30
0.0
 40
3.0
  0
CIRCLE
  5
1A5
100
AcDbEntity
100
AcDbCircle
  8
BatteryMountingHoles
 62
256
370
-1
  6
ByLayer
 10
230.0
 20
270.0
 30
0.0
 40
3.0
  0
CIRCLE
  5
1A6
100
AcDbEntity
100
AcDbCircle
  8
BatteryMountingHoles
 62
256
370
-1
  6
ByLayer
 10
170.0
 20
130.0
 30
0.0
 40
3.0
  0
CIRCLE
  5
1A7
100
AcDbEntity
100
AcDbCircle
  8
BatteryMountingHoles
 62
256
370
-1
  6
ByLayer
 10
230.0
 20
130.0
 30
0.0
 40
3.0
  0
ARC
  5
1A8
100
AcDbEntity
  8
BatteryMountingPosition
 62
256
370
-1
  6
ByLayer
100
AcDbCircle
 10
170.0
 20
270.0
 30
0.0
 40
8.0
100
AcDbArc
 50
90.0
 51
270.0
  0
LINE
  5
1A9
100
AcDbEntity
100
AcDbLine
  8
BatteryMountingPosition
 62
256
370
-1
  6
ByLayer
 10
170.0
 20
278.0
 30
0.0
 11
230.0
 21
278.0
 31
0.0
  0
LINE
  5
1AA
100
AcDbEntity
100
AcDbLine
  8
BatteryMountingPosition
 62
256
370
-1
  6
ByLayer
 10
230.0
 20
262.0
 30
0.0
 11
170.0
 21
262.0
 31
0.0
  0
ARC
  5
1AB
100
AcDbEntity
  8
BatteryMountingPosition
 62
256
370
-1
  6
ByLayer
100
AcDbCircle
 10
230.0
 20
270.0
 30
0.0
 40
8.0
100
AcDbArc
 50
270.0
 51
90.0
  0
ARC
  5
1AC
100
AcDbEntity
  8
BatteryMountingPosition
 62
256
370
-1
  6
ByLayer
100
AcDbCircle
 10
170.0
 20
130.0
 30
0.0
 40
8.0
100
AcDbArc
 50
90.0
 51
270.0
  0
LINE
  5
1AD
100
AcDbEntity
100
AcDbLine
  8
BatteryMountingPosition
 62
256
370
-1
  6
ByLayer
 10
170.0
 20
138.0
 30
0.0
 11
230.0
 21
138.0
 31
0.0
  0
LINE
  5
1AE
100
AcDbEntity
100
AcDbLine
  8
BatteryMountingPosition
 62
256
370
-1
  6
ByLayer
 10
230.0
 20
122.0
 30
0.0
 11
170.0
 21
122.0
 31
0.0
  0
ARC
  5
1AF
100
AcDbEntity
  8
BatteryMountingPosition
 62
256
370
-1
  6
ByLayer
100
AcDbCircle
 10
230.0
 20
130.0
 30
0.0
 40
8.0
100
AcDbArc
 50
270.0
 51
90.0
  0
CIRCLE
  5
1B0
100
AcDbEntity
100
AcDbCircle
  8
BaseSupportMountings
 62
256
370
-1
  6
ByLayer
 10
10.6066017177981102
 20
368.180194846605275
 30
0.0
 40
2.0
  0
CIRCLE
  5
1B1
100
AcDbEntity
100
AcDbCircle
  8
BaseSupportMountings
 62
256
370
-1
  6
ByLayer
 10
81.3172798364528262
 20
297.4695167279504631
 30
0.0
 40
2.0
  0
CIRCLE
  5
1B2
100
AcDbEntity
100
AcDbCircle
  8
BaseSupportMountings
 62
256
370
-1
  6
ByLayer
 10
102.5304832720492527
 20
318.6827201635468896
 30
0.0
 40
2.0
  0
CIRCLE
  5
1B3
100
AcDbEntity
100
AcDbCircle
  8
BaseSupportMountings
 62
256
370
-1
  6
ByLayer
 10
31.8198051533944977
 20
389.3933982822016446
 30
0.0
 40
2.0
  0
CIRCLE
  5
1B4
100
AcDbEntity
100
AcDbCircle
  8
BaseSupportMountings
 62
256
370
-1
  6
ByLayer
 10
189.3933982822018152
 20
210.6066017177981848
 30
0.0
 40
2.0
  0
CIRCLE
  5
1B5
100
AcDbEntity
100
AcDbCircle
  8
BaseSupportMountings
 62
256
370
-1
  6
ByLayer
 10
210.6066017177979859
 20
210.6066017177979575
 30
0.0
 40
2.0
  0
CIRCLE
  5
1B6
100
AcDbEntity
100
AcDbCircle
  8
BaseSupportMountings
 62
256
370
-1
  6
ByLayer
 10
210.6066017177980143
 20
189.3933982822019857
 30
0.0
 40
2.0
  0
CIRCLE
  5
1B7
100
AcDbEntity
100
AcDbCircle
  8
BaseSupportMountings
 62
256
370
-1
  6
ByLayer
 10
189.3933982822017867
 20
189.3933982822018152
 30
0.0
 40
2.0
  0
CIRCLE
  5
1B8
100
AcDbEntity
100
AcDbCircle
  8
BaseSupportMountings
 62
256
370
-1
  6
ByLayer
 10
152.0279579551074676
 20
226.7588386092956796
 30
0.0
 40
2.0
  0
CIRCLE
  5
1B9
100
AcDbEntity
100
AcDbCircle
  8
BaseSupportMountings
 62
256
370
-1
  6
ByLayer
 10
173.2411613907038372
 20
247.9720420448919924
 30
0.0
 40
2.0
  0
CIRCLE
  5
1BA
100
AcDbEntity
100
AcDbCircle
  8
BaseSupportMountings
 62
256
370
-1
  6
ByLayer
 10
226.758838609295708
 20
247.9720420448924756
 30
0.0
 40
2.0
  0
CIRCLE
  5
1BB
100
AcDbEntity
100
AcDbCircle
  8
BaseSupportMountings
 62
256
370
-1
  6
ByLayer
 10
247.9720420448920777
 20
226.7588386092961059
 30
0.0
 40
2.0
  0
CIRCLE
  5
1BC
100
AcDbEntity
100
AcDbCircle
  8
BaseSupportMountings
 62
256
370
-1
  6
ByLayer
 10
247.9720420448920208
 20
173.2411613907038372
 30
0.0
 40
2.0
  0
CIRCLE
  5
1BD
100
AcDbEntity
100
AcDbCircle
  8
BaseSupportMountings
 62
256
370
-1
  6
ByLayer
 10
226.7588386092955943
 20
152.0279579551074391
 30
0.0
 40
2.0
  0
CIRCLE
  5
1BE
100
AcDbEntity
100
AcDbCircle
  8
BaseSupportMountings
 62
256
370
-1
  6
ByLayer
 10
173.2411613907039225
 20
152.0279579551079223
 30
0.0
 40
2.0
  0
CIRCLE
  5
1BF
100
AcDbEntity
100
AcDbCircle
  8
BaseSupportMountings
 62
256
370
-1
  6
ByLayer
 10
152.0279579551075528
 20
173.241161390704292
 30
0.0
 40
2.0
  0
CIRCLE
  5
1C0
100
AcDbEntity
100
AcDbCircle
  8
BaseSupportMountings
 62
256
370
-1
  6
ByLayer
 10
389.3933982822016446
 20
368.1801948466055023
 30
0.0
 40
2.0
  0
CIRCLE
  5
1C1
100
AcDbEntity
100
AcDbCircle
  8
BaseSupportMountings
 62
256
370
-1
  6
ByLayer
 10
318.6827201635468896
 20
297.4695167279507473
 30
0.0
 40
2.0
  0
CIRCLE
  5
1C2
100
AcDbEntity
100
AcDbCircle
  8
BaseSupportMountings
 62
256
370
-1
  6
ByLayer
 10
297.4695167279505199
 20
318.682720163547117
 30
0.0
 40
2.0
  0
CIRCLE
  5
1C3
100
AcDbEntity
100
AcDbCircle
  8
BaseSupportMountings
 62
256
370
-1
  6
ByLayer
 10
368.180194846605275
 20
389.393398282201872
 30
0.0
 40
2.0
  0
CIRCLE
  5
1C4
100
AcDbEntity
100
AcDbCircle
  8
BaseSupportMountings
 62
256
370
-1
  6
ByLayer
 10
368.1801948466051613
 20
10.6066017177979575
 30
0.0
 40
2.0
  0
CIRCLE
  5
1C5
100
AcDbEntity
100
AcDbCircle
  8
BaseSupportMountings
 62
256
370
-1
  6
ByLayer
 10
389.3933982822011899
 20
31.8198051533939861
 30
0.0
 40
2.0
  0
CIRCLE
  5
1C6
100
AcDbEntity
100
AcDbCircle
  8
BaseSupportMountings
 62
256
370
-1
  6
ByLayer
 10
318.682720163546719
 20
102.5304832720490253
 30
0.0
 40
2.0
  0
CIRCLE
  5
1C7
100
AcDbEntity
100
AcDbCircle
  8
BaseSupportMountings
 62
256
370
-1
  6
ByLayer
 10
297.4695167279505199
 20
81.317279836452883
 30
0.0
 40
2.0
  0
CIRCLE
  5
1C8
100
AcDbEntity
100
AcDbCircle
  8
BaseSupportMountings
 62
256
370
-1
  6
ByLayer
 10
31.8198051533943271
 20
10.6066017177984904
 30
0.0
 40
2.0
  0
CIRCLE
  5
1C9
100
AcDbEntity
100
AcDbCircle
  8
BaseSupportMountings
 62
256
370
-1
  6
ByLayer
 10
10.6066017177979557
 20
31.81980515339486
 30
0.0
 40
2.0
  0
CIRCLE
  5
1CA
100
AcDbEntity
100
AcDbCircle
  8
BaseSupportMountings
 62
256
370
-1
  6
ByLayer
 10
81.3172798364527694
 20
102.5304832720495654
 30
0.0
 40
2.0
  0
CIRCLE
  5
1CB
100
AcDbEntity
100
AcDbCircle
  8
BaseSupportMountings
 62
256
370
-1
  6
ByLayer
 10
102.530483272049139
 20
81.3172798364531957
 30
0.0
 40
2.0
  0
CIRCLE
  5
1CC
100
AcDbEntity
100
AcDbCircle
  8
WiringHoles
 62
256
370
-1
  6
ByLayer
 10
200.0
 20
200.0
 30
0.0
 40
5.0
  0
INSERT
  5
1CD
100
AcDbEntity
100
AcDbBlockReference
  8
Components
 62
256
370
-1
  6
ByLayer
  2
MaxSonarEZ24-0
 10
215.0000000000000284
 20
199.0
 30
0.0
 41
1.0
 42
-1.0
 43
1.0
 50
224.9999999999998579
  0
CIRCLE
  5
1CE
100
AcDbEntity
100
AcDbCircle
  8
ESC_ZipTieHoles
 62
256
370
-1
  6
ByLayer
 10
95.0
 20
275.0
 30
0.0
 40
2.0
  0
CIRCLE
  5
1CF
100
AcDbEntity
100
AcDbCircle
  8
ESC_ZipTieHoles
 62
256
370
-1
  6
ByLayer
 10
125.0
 20
305.0
 30
0.0
 40
2.0
  0
CIRCLE
  5
1D0
100
AcDbEntity
100
AcDbCircle
  8
ESC_ZipTieHoles
 62
256
370
-1
  6
ByLayer
 10
305.0
 20
275.0
 30
0.0
 40
2.0
  0
CIRCLE
  5
1D1
100
AcDbEntity
100
AcDbCircle
  8
ESC_ZipTieHoles
 62
256
370
-1
  6
ByLayer
 10
275.0
 20
305.0
 30
0.0
 40
2.0
  0
CIRCLE
  5
1D2
100
AcDbEntity
100
AcDbCircle
  8
ESC_ZipTieHoles
 62
256
370
-1
  6
ByLayer
 10
95.0
 20
125.0
 30
0.0
 40
2.0
  0
CIRCLE
  5
1D3
100
AcDbEntity
100
AcDbCircle
  8
ESC_ZipTieHoles
 62
256
370
-1
  6
ByLayer
 10
125.0
 20
95.0
 30
0.0
 40
2.0
  0
CIRCLE
  5
1D4
100
AcDbEntity
100
AcDbCircle
  8
ESC_ZipTieHoles
 62
256
370
-1
  6
ByLayer
 10
275.0
 20
95.0
 30
0.0
 40
2.0
  0
CIRCLE
  5
1D5
100
AcDbEntity
100
AcDbCircle
  8
ESC_ZipTieHoles
 62
256
370
-1
  6
ByLayer
 10
305.0
 20
125.0
 30
0.0
 40
2.0
  0
INSERT
  5
1D6
100
AcDbEntity
100
AcDbBlockReference
  8
Components
 62
256
370
-1
  6
ByLayer
  2
ESC
 10
110.6066017177981848
 20
109.3933982822018152
 30
0.0
 50
90.0
 44
1.0
 45
1.0
  0
INSERT
  5
1D7
100
AcDbEntity
100
AcDbBlockReference
  8
Components
 62
256
370
-1
  6
ByLayer
  2
ESC
 10
108.1801948466053744
 20
293.0330085889910947
 30
0.0
 50
180.0
 44
1.0
 45
1.0
  0
INSERT
  5
1D8
100
AcDbEntity
100
AcDbBlockReference
  8
Components
 62
256
370
-1
  6
ByLayer
  2
ESC
 10
293.0330085889910379
 20
291.8198051533946682
 30
0.0
 50
90.0
 44
1.0
 45
1.0
  0
INSERT
  5
1D9
100
AcDbEntity
100
AcDbBlockReference
  8
Components
 62
256
370
-1
  6
ByLayer
  2
ESC
 10
290.6066017177981848
 20
110.6066017177981848
 30
0.0
 50
180.0
 44
1.0
 45
1.0
  0
CIRCLE
  5
1DA
100
AcDbEntity
100
AcDbCircle
  8
PropGuardSpace
 62
256
370
-1
  6
ByLayer
 10
0.0000000000000249
 20
400.0
 30
0.0
 40
150.0
  0
CIRCLE
  5
1DB
100
AcDbEntity
100
AcDbCircle
  8
PropGuardSpace
 62
256
370
-1
  6
ByLayer
 10
400.0
 20
400.0
 30
0.0
 40
150.0
  0
CIRCLE
  5
1DC
100
AcDbEntity
100
AcDbCircle
  8
PropGuardSpace
 62
256
370
-1
  6
ByLayer
 10
400.0
 20
0.0
 30
0.0
 40
150.0
  0
CIRCLE
  5
1DD
100
AcDbEntity
100
AcDbCircle
  8
PropGuardSpace
 62
256
370
-1
  6
ByLayer
 10
0.0
 20
0.0
 30
0.0
 40
150.0
  0
CIRCLE
  5
1DE
100
AcDbEntity
100
AcDbCircle
  8
ElectronicsLayerMountingHoles
 62
256
370
-1
  6
ByLayer
 10
135.0
 20
265.0
 30
0.0
 40
2.5
  0
CIRCLE
  5
1DF
100
AcDbEntity
100
AcDbCircle
  8
ElectronicsLayerMountingHoles
 62
256
370
-1
  6
ByLayer
 10
135.0
 20
135.0
 30
0.0
 40
2.5
  0
CIRCLE
  5
1E0
100
AcDbEntity
100
AcDbCircle
  8
ElectronicsLayerMountingHoles
 62
256
370
-1
  6
ByLayer
 10
265.0
 20
135.0
 30
0.0
 40
2.5
  0
CIRCLE
  5
1E1
100
AcDbEntity
100
AcDbCircle
  8
ElectronicsLayerMountingHoles
 62
256
370
-1
  6
ByLayer
 10
265.0
 20
265.0
 30
0.0
 40
2.5
  0
INSERT
  5
1E2
100
AcDbEntity
100
AcDbBlockReference
  8
SensorBoard_MountingHoles
 62
256
370
-1
  6
ByLayer
  2
SensorBoard
 10
240.0
 20
150.0
 30
0.0
 44
1.0
 45
1.0
  0
LINE
  5
1E3
100
AcDbEntity
100
AcDbLine
  8
UnderFrame_Guide
 62
256
370
-1
  6
ByLayer
 10
0.0000000000000245
 20
400.0
 30
0.0
 11
400.0
 21
0.0
 31
0.0
  0
LINE
  5
1E4
100
AcDbEntity
100
AcDbLine
  8
UnderFrame_Guide
 62
256
370
-1
  6
ByLayer
 10
0.0
 20
0.0
 30
0.0
 11
400.0
 21
400.0
 31
0.0
  0
LINE
  5
1E5
100
AcDbEntity
100
AcDbLine
  8
UnderFrame_Guide
 62
256
370
-1
  6
ByLayer
 10
410.6066017177981848
 20
389.3933982822018152
 30
0.0
 11
389.3933982822018152
 21
410.6066017177981848
 31
0.0
  0
LINE
  5
1E6
100
AcDbEntity
100
AcDbLine
  8
UnderFrame_Guide
 62
256
370
-1
  6
ByLayer
 10
-10.6066017177981902
 20
389.3933982822018152
 30
0.0
 11
10.6066017177982399
 21
410.6066017177981848
 31
0.0
  0
LINE
  5
1E7
100
AcDbEntity
100
AcDbLine
  8
UnderFrame_Guide
 62
256
370
-1
  6
ByLayer
 10
10.6066017177982115
 20
-10.6066017177982133
 30
0.0
 11
-10.6066017177982115
 21
10.6066017177982133
 31
0.0
  0
LINE
  5
1E8
100
AcDbEntity
100
AcDbLine
  8
UnderFrame_Guide
 62
256
370
-1
  6
ByLayer
 10
389.3933982822017583
 20
-10.6066017177982097
 30
0.0
 11
410.6066017177982417
 21
10.6066017177982097
 31
0.0
  0
LINE
  5
1E9
100
AcDbEntity
100
AcDbLine
  8
UnderFrame_Guide
 62
256
370
-1
  6
ByLayer
 10
-10.6066017177981902
 20
389.3933982822018152
 30
0.0
 11
389.3933982822017583
 21
-10.6066017177982097
 31
0.0
  0
LINE
  5
1EA
100
AcDbEntity
100
AcDbLine
  8
UnderFrame_Guide
 62
256
370
-1
  6
ByLayer
 10
410.6066017177982417
 20
10.6066017177982097
 30
0.0
 11
10.6066017177982399
 21
410.6066017177981848
 31
0.0
  0
LINE
  5
1EB
100
AcDbEntity
100
AcDbLine
  8
UnderFrame_Guide
 62
256
370
-1
  6
ByLayer
 10
389.3933982822018152
 20
410.6066017177981848
 30
0.0
 11
-10.6066017177982115
 21
10.6066017177982133
 31
0.0
  0
LINE
  5
1EC
100
AcDbEntity
100
AcDbLine
  8
UnderFrame_Guide
 62
256
370
-1
  6
ByLayer
 10
10.6066017177982115
 20
-10.6066017177982133
 30
0.0
 11
410.6066017177981848
 21
389.3933982822018152
 31
0.0
  0
LINE
  5
1ED
100
AcDbEntity
100
AcDbLine
  8
UnderFrame_Guide
 62
256
370
-1
  6
ByLayer
 10
-8.4852813742385464
 20
391.5147186257614749
 30
0.0
 11
391.514718625761418
 21
-8.4852813742385678
 31
0.0
  0
LINE
  5
1EE
100
AcDbEntity
100
AcDbLine
  8
UnderFrame_Guide
 62
256
370
-1
  6
ByLayer
 10
-12.7279220613578321
 20
387.2720779386421555
 30
0.0
 11
387.2720779386420986
 21
-12.7279220613578534
 31
0.0
  0
LINE
  5
1EF
100
AcDbEntity
100
AcDbLine
  8
UnderFrame_Guide
 62
256
370
-1
  6
ByLayer
 10
408.485281374238582
 20
8.4852813742385695
 30
0.0
 11
8.4852813742385962
 21
408.4852813742385251
 31
0.0
  0
LINE
  5
1F0
100
AcDbEntity
100
AcDbLine
  8
UnderFrame_Guide
 62
256
370
-1
  6
ByLayer
 10
412.7279220613579014
 20
12.7279220613578499
 30
0.0
 11
12.7279220613578854
 21
412.7279220613578445
 31
0.0
  0
LINE
  5
1F1
100
AcDbEntity
100
AcDbLine
  8
UnderFrame_Guide
 62
256
370
-1
  6
ByLayer
 10
12.7279220613578534
 20
-12.7279220613578552
 30
0.0
 11
412.7279220613578445
 21
387.2720779386421555
 31
0.0
  0
LINE
  5
1F2
100
AcDbEntity
100
AcDbLine
  8
UnderFrame_Guide
 62
256
370
-1
  6
ByLayer
 10
8.4852813742385695
 20
-8.4852813742385713
 30
0.0
 11
408.4852813742385251
 21
391.5147186257614749
 31
0.0
  0
LINE
  5
1F3
100
AcDbEntity
100
AcDbLine
  8
UnderFrame_Guide
 62
256
370
-1
  6
ByLayer
 10
387.2720779386421555
 20
412.7279220613578445
 30
0.0
 11
-12.7279220613578516
 21
12.7279220613578588
 31
0.0
  0
LINE
  5
1F4
100
AcDbEntity
100
AcDbLine
  8
UnderFrame_Guide
 62
256
370
-1
  6
ByLayer
 10
391.5147186257614749
 20
408.4852813742385251
 30
0.0
 11
-8.4852813742385695
 21
8.4852813742385713
 31
0.0
  0
LINE
  5
1F5
100
AcDbEntity
100
AcDbLine
  8
FlightDirArrow
 62
256
370
-1
  6
ByLayer
 10
290.0
 20
200.0
 30
0.0
 11
270.0
 21
220.0
 31
0.0
  0
LINE
  5
1F6
100
AcDbEntity
100
AcDbLine
  8
FlightDirArrow
 62
256
370
-1
  6
ByLayer
 10
290.0
 20
200.0
 30
0.0
 11
270.0
 21
180.0
 31
0.0
  0
LINE
  5
1F7
100
AcDbEntity
100
AcDbLine
  8
FlightDirArrow
 62
256
370
-1
  6
ByLayer
 10
270.0
 20
180.0
 30
0.0
 11
270.0
 21
190.0
 31
0.0
  0
LINE
  5
1F8
100
AcDbEntity
100
AcDbLine
  8
FlightDirArrow
 62
256
370
-1
  6
ByLayer
 10
270.0
 20
190.0
 30
0.0
 11
230.0
 21
190.0
 31
0.0
  0
LINE
  5
1F9
100
AcDbEntity
100
AcDbLine
  8
FlightDirArrow
 62
256
370
-1
  6
ByLayer
 10
230.0
 20
190.0
 30
0.0
 11
230.0
 21
210.0
 31
0.0
  0
LINE
  5
1FA
100
AcDbEntity
100
AcDbLine
  8
FlightDirArrow
 62
256
370
-1
  6
ByLayer
 10
230.0
 20
210.0
 30
0.0
 11
270.0
 21
210.0
 31
0.0
  0
LINE
  5
1FB
100
AcDbEntity
100
AcDbLine
  8
FlightDirArrow
 62
256
370
-1
  6
ByLayer
 10
270.0
 20
210.0
 30
0.0
 11
270.0
 21
220.0
 31
0.0
  0
INSERT
  5
1FC
100
AcDbEntity
100
AcDbBlockReference
  8
0
 62
256
370
-1
  6
ByLayer
  2
LED_Board
 10
80.0
 20
220.0
 30
0.0
 50
270.0
 44
1.0
 45
1.0
  0
ENDSEC
  0
SECTION
  2
OBJECTS
  0
DICTIONARY
  5
C
100
AcDbDictionary
280
0
281
1
  3
ACAD_GROUP
350
D
  3
ACAD_LAYOUT
350
1A
  3
ACAD_MLINESTYLE
350
17
  3
ACAD_PLOTSETTINGS
350
19
  3
ACAD_PLOTSTYLENAME
350
E
  3
AcDbVariableDictionary
350
1FD
  0
DICTIONARY
  5
D
100
AcDbDictionary
280
0
281
1
  0
ACDBDICTIONARYWDFLT
  5
E
100
AcDbDictionary
281
1
  3
Normal
350
F
100
AcDbDictionaryWithDefault
340
F
  0
ACDBPLACEHOLDER
  5
F
  0
DICTIONARY
  5
17
100
AcDbDictionary
280
0
281
1
  3
Standard
350
18
  0
MLINESTYLE
  5
18
100
AcDbMlineStyle
  2
STANDARD
 70
0
  3

 62
256
 51
90.0
 52
90.0
 71
2
 49
0.5
 62
256
  6
BYLAYER
 49
-0.5
 62
256
  6
BYLAYER
  0
DICTIONARY
  5
19
100
AcDbDictionary
280
0
281
1
  0
DICTIONARY
  5
1A
100
AcDbDictionary
281
1
  3
Layout1
350
1E
  3
Layout2
350
26
  3
Model
350
22
  0
LAYOUT
  5
1E
100
AcDbPlotSettings
  1

  2
C:\Program Files\AutoCAD 2002\plotters\DWF ePlot (optimized for plotting).pc3
  4

  6

 40
0.0
 41
0.0
 42
0.0
 43
0.0
 44
0.0
 45
0.0
 46
0.0
 47
0.0
 48
0.0
 49
0.0
140
0.0
141
0.0
142
1.0
143
1.0
 70
688
 72
0
 73
0
 74
5
  7

 75
16
147
1.0
148
0.0
149
0.0
100
AcDbLayout
  1
Layout1
 70
1
 71
1
 10
0.0
 20
0.0
 11
420.0
 21
297.0
 12
0.0
 22
0.0
 32
0.0
 14
100000000000000000000.0
 24
100000000000000000000.0
 34
100000000000000000000.0
 15
-100000000000000000000.0
 25
-100000000000000000000.0
 35
-100000000000000000000.0
146
0.0
 13
0.0
 23
0.0
 33
0.0
 16
1.0
 26
0.0
 36
0.0
 17
0.0
 27
1.0
 37
0.0
 76
0
330
1B
  0
LAYOUT
  5
22
100
AcDbPlotSettings
  1

  2
C:\Program Files\AutoCAD 2002\plotters\DWF ePlot (optimized for plotting).pc3
  4

  6

 40
0.0
 41
0.0
 42
0.0
 43
0.0
 44
0.0
 45
0.0
 46
0.0
 47
0.0
 48
0.0
 49
0.0
140
0.0
141
0.0
142
1.0
143
1.0
 70
1712
 72
0
 73
0
 74
0
  7

 75
0
147
1.0
148
0.0
149
0.0
100
AcDbLayout
  1
Model
 70
1
 71
0
 10
0.0
 20
0.0
 11
12.0
 21
9.0
 12
0.0
 22
0.0
 32
0.0
 14
0.0
 24
0.0
 34
0.0
 15
0.0
 25
0.0
 35
0.0
146
0.0
 13
0.0
 23
0.0
 33
0.0
 16
1.0
 26
0.0
 36
0.0
 17
0.0
 27
1.0
 37
0.0
 76
0
330
1F
  0
LAYOUT
  5
26
100
AcDbPlotSettings
  1

  2
C:\Program Files\AutoCAD 2002\plotters\DWF ePlot (optimized for plotting).pc3
  4

  6

 40
0.0
 41
0.0
 42
0.0
 43
0.0
 44
0.0
 45
0.0
 46
0.0
 47
0.0
 48
0.0
 49
0.0
140
0.0
141
0.0
142
1.0
143
1.0
 70
688
 72
0
 73
0
 74
5
  7

 75
16
147
1.0
148
0.0
149
0.0
100
AcDbLayout
  1
Layout2
 70
1
 71
2
 10
0.0
 20
0.0
 11
12.0
 21
9.0
 12
0.0
 22
0.0
 32
0.0
 14
0.0
 24
0.0
 34
0.0
 15
0.0
 25
0.0
 35
0.0
146
0.0
 13
0.0
 23
0.0
 33
0.0
 16
1.0
 26
0.0
 36
0.0
 17
0.0
 27
1.0
 37
0.0
 76
0
330
23
  0
DICTIONARY
  5
1FD
100
AcDbDictionary
281
1
  3
DIMASSOC
350
1FF
  3
HIDETEXT
350
1FE
  0
DICTIONARYVAR
  5
1FE
100
DictionaryVariables
280
0
  1
2
  0
DICTIONARYVAR
  5
1FF
100
DictionaryVariables
280
0
  1
1
  0
ENDSEC
  0
EOF
